NotoSerifTamil-Condensed.ufo
<glyph name="exclam" format="2">
  <advance width="274"/>
  <unicode hex="0021"/>
  <outline>
    <contour>
      <point x="117" y="198" type="line"/>
      <point x="156" y="198" type="line"/>
      <point x="188" y="714" type="line"/>
      <point x="85" y="714" type="line"/>
    </contour>
    <contour>
      <point x="137" y="-7" type="curve" smooth="yes"/>
      <point x="164" y="-7"/>
      <point x="188" y="8"/>
      <point x="188" y="55" type="curve" smooth="yes"/>
      <point x="188" y="102"/>
      <point x="164" y="117"/>
      <point x="137" y="117" type="curve" smooth="yes"/>
      <point x="108" y="117"/>
      <point x="86" y="102"/>
      <point x="86" y="55" type="curve" smooth="yes"/>
      <point x="86" y="8"/>
      <point x="108" y="-7"/>
    </contour>
  </outline>
</glyph>
<glyph name="quotedbl" format="2">
  <advance width="344"/>
  <unicode hex="0022"/>
  <outline>
    <contour>
      <point x="231" y="483" type="line"/>
      <point x="272" y="483" type="line"/>
      <point x="296" y="714" type="line"/>
      <point x="202" y="714" type="line"/>
    </contour>
    <contour>
      <point x="75" y="483" type="line"/>
      <point x="115" y="483" type="line"/>
      <point x="142" y="714" type="line"/>
      <point x="47" y="714" type="line"/>
    </contour>
  </outline>
</glyph>
<glyph name="numbersign" format="2">
  <advance width="443"/>
  <unicode hex="0023"/>
  <outline>
    <contour>
      <point x="44" y="0" type="line"/>
      <point x="99" y="0" type="line"/>
      <point x="138" y="208" type="line"/>
      <point x="242" y="208" type="line"/>
      <point x="203" y="0" type="line"/>
      <point x="258" y="0" type="line"/>
      <point x="297" y="208" type="line"/>
      <point x="403" y="208" type="line"/>
      <point x="403" y="259" type="line"/>
      <point x="307" y="259" type="line"/>
      <point x="345" y="460" type="line"/>
      <point x="435" y="460" type="line"/>
      <point x="435" y="513" type="line"/>
      <point x="355" y="513" type="line"/>
      <point x="393" y="714" type="line"/>
      <point x="337" y="714" type="line"/>
      <point x="300" y="513" type="line"/>
      <point x="196" y="513" type="line"/>
      <point x="234" y="714" type="line"/>
      <point x="178" y="714" type="line"/>
      <point x="141" y="513" type="line"/>
      <point x="39" y="513" type="line"/>
      <point x="39" y="460" type="line"/>
      <point x="130" y="460" type="line"/>
      <point x="93" y="259" type="line"/>
      <point x="7" y="259" type="line"/>
      <point x="7" y="208" type="line"/>
      <point x="83" y="208" type="line"/>
    </contour>
    <contour>
      <point x="148" y="259" type="line"/>
      <point x="186" y="460" type="line"/>
      <point x="290" y="460" type="line"/>
      <point x="252" y="259" type="line"/>
    </contour>
  </outline>
</glyph>
<glyph name="percent" format="2">
  <advance width="711"/>
  <unicode hex="0025"/>
  <outline>
    <contour>
      <point x="187" y="0" type="line"/>
      <point x="242" y="0" type="line"/>
      <point x="521" y="714" type="line"/>
      <point x="467" y="714" type="line"/>
    </contour>
    <contour>
      <point x="166" y="280" type="curve" smooth="yes"/>
      <point x="256" y="280"/>
      <point x="300" y="369"/>
      <point x="300" y="503" type="curve" smooth="yes"/>
      <point x="300" y="637"/>
      <point x="256" y="724"/>
      <point x="167" y="724" type="curve" smooth="yes"/>
      <point x="72" y="724"/>
      <point x="33" y="637"/>
      <point x="33" y="503" type="curve" smooth="yes"/>
      <point x="33" y="369"/>
      <point x="72" y="280"/>
    </contour>
    <contour>
      <point x="166" y="316" type="curve" smooth="yes"/>
      <point x="118" y="316"/>
      <point x="102" y="383"/>
      <point x="102" y="503" type="curve" smooth="yes"/>
      <point x="102" y="621"/>
      <point x="118" y="687"/>
      <point x="167" y="687" type="curve" smooth="yes"/>
      <point x="215" y="687"/>
      <point x="230" y="621"/>
      <point x="230" y="503" type="curve" smooth="yes"/>
      <point x="230" y="383"/>
      <point x="215" y="316"/>
    </contour>
    <contour>
      <point x="544" y="-10" type="curve" smooth="yes"/>
      <point x="634" y="-10"/>
      <point x="678" y="79"/>
      <point x="678" y="213" type="curve" smooth="yes"/>
      <point x="678" y="347"/>
      <point x="634" y="434"/>
      <point x="545" y="434" type="curve" smooth="yes"/>
      <point x="451" y="434"/>
      <point x="411" y="347"/>
      <point x="411" y="213" type="curve" smooth="yes"/>
      <point x="411" y="79"/>
      <point x="451" y="-10"/>
    </contour>
    <contour>
      <point x="544" y="26" type="curve" smooth="yes"/>
      <point x="496" y="26"/>
      <point x="480" y="93"/>
      <point x="480" y="213" type="curve" smooth="yes"/>
      <point x="480" y="331"/>
      <point x="496" y="397"/>
      <point x="544" y="397" type="curve" smooth="yes"/>
      <point x="593" y="397"/>
      <point x="608" y="331"/>
      <point x="608" y="213" type="curve" smooth="yes"/>
      <point x="608" y="93"/>
      <point x="593" y="26"/>
    </contour>
  </outline>
</glyph>
<glyph name="quotesingle" format="2">
  <advance width="190"/>
  <unicode hex="0027"/>
  <outline>
    <contour>
      <point x="75" y="483" type="line"/>
      <point x="115" y="483" type="line"/>
      <point x="142" y="714" type="line"/>
      <point x="47" y="714" type="line"/>
    </contour>
  </outline>
</glyph>
<glyph name="parenleft" format="2">
  <advance width="284"/>
  <unicode hex="0028"/>
  <outline>
    <contour>
      <point x="260" y="-127" type="curve"/>
      <point x="260" y="-83" type="line"/>
      <point x="154" y="0"/>
      <point x="140" y="158"/>
      <point x="140" y="317" type="curve" smooth="yes"/>
      <point x="140" y="476"/>
      <point x="154" y="632"/>
      <point x="260" y="716" type="curve"/>
      <point x="260" y="758" type="line"/>
      <point x="106" y="688"/>
      <point x="45" y="560"/>
      <point x="45" y="317" type="curve" smooth="yes"/>
      <point x="45" y="73"/>
      <point x="106" y="-55"/>
    </contour>
  </outline>
</glyph>
<glyph name="parenright" format="2">
  <advance width="284"/>
  <unicode hex="0029"/>
  <outline>
    <contour>
      <point x="25" y="-127" type="line"/>
      <point x="179" y="-55"/>
      <point x="240" y="73"/>
      <point x="240" y="317" type="curve" smooth="yes"/>
      <point x="240" y="560"/>
      <point x="179" y="688"/>
      <point x="25" y="758" type="curve"/>
      <point x="25" y="716" type="line"/>
      <point x="131" y="632"/>
      <point x="146" y="476"/>
      <point x="146" y="317" type="curve" smooth="yes"/>
      <point x="146" y="158"/>
      <point x="131" y="0"/>
      <point x="25" y="-83" type="curve"/>
    </contour>
  </outline>
</glyph>
<glyph name="comma" format="2">
  <advance width="207"/>
  <unicode hex="002C"/>
  <outline>
    <contour>
      <point x="32" y="-154" type="line"/>
      <point x="122" y="-122"/>
      <point x="156" y="-52"/>
      <point x="156" y="26" type="curve" smooth="yes"/>
      <point x="156" y="84"/>
      <point x="132" y="117"/>
      <point x="96" y="117" type="curve" smooth="yes"/>
      <point x="69" y="117"/>
      <point x="48" y="97"/>
      <point x="48" y="64" type="curve" smooth="yes"/>
      <point x="48" y="10"/>
      <point x="99" y="11"/>
      <point x="99" y="-26" type="curve" smooth="yes"/>
      <point x="99" y="-61"/>
      <point x="77" y="-97"/>
      <point x="32" y="-116" type="curve"/>
    </contour>
  </outline>
</glyph>
<glyph name="hyphen" format="2">
  <advance width="246"/>
  <unicode hex="002D"/>
  <outline>
    <contour>
      <point x="20" y="236" type="line"/>
      <point x="226" y="236" type="line"/>
      <point x="226" y="309" type="line"/>
      <point x="20" y="309" type="line"/>
    </contour>
  </outline>
</glyph>
<glyph name="period" format="2">
  <advance width="207"/>
  <unicode hex="002E"/>
  <outline>
    <contour>
      <point x="104" y="-7" type="curve" smooth="yes"/>
      <point x="131" y="-7"/>
      <point x="155" y="8"/>
      <point x="155" y="55" type="curve" smooth="yes"/>
      <point x="155" y="102"/>
      <point x="131" y="117"/>
      <point x="104" y="117" type="curve" smooth="yes"/>
      <point x="75" y="117"/>
      <point x="52" y="102"/>
      <point x="52" y="55" type="curve" smooth="yes"/>
      <point x="52" y="8"/>
      <point x="75" y="-7"/>
    </contour>
  </outline>
</glyph>
<glyph name="slash" format="2">
  <advance width="228"/>
  <unicode hex="002F"/>
  <outline>
    <contour>
      <point x="0" y="-121" type="line"/>
      <point x="50" y="-121" type="line"/>
      <point x="228" y="760" type="line"/>
      <point x="180" y="760" type="line"/>
    </contour>
  </outline>
</glyph>
<glyph name="zero" format="2">
  <advance width="442"/>
  <unicode hex="0030"/>
  <outline>
    <contour>
      <point x="221" y="-10" type="curve" smooth="yes"/>
      <point x="352" y="-10"/>
      <point x="408" y="125"/>
      <point x="408" y="358" type="curve" smooth="yes"/>
      <point x="408" y="594"/>
      <point x="355" y="724"/>
      <point x="222" y="724" type="curve" smooth="yes"/>
      <point x="81" y="724"/>
      <point x="33" y="588"/>
      <point x="33" y="359" type="curve" smooth="yes"/>
      <point x="33" y="121"/>
      <point x="84" y="-10"/>
    </contour>
    <contour>
      <point x="221" y="40" type="curve" smooth="yes"/>
      <point x="147" y="40"/>
      <point x="124" y="157"/>
      <point x="124" y="358" type="curve" smooth="yes"/>
      <point x="124" y="559"/>
      <point x="147" y="674"/>
      <point x="222" y="674" type="curve" smooth="yes"/>
      <point x="295" y="674"/>
      <point x="319" y="559"/>
      <point x="319" y="358" type="curve" smooth="yes"/>
      <point x="319" y="157"/>
      <point x="295" y="40"/>
    </contour>
  </outline>
</glyph>
<glyph name="one" format="2">
  <advance width="442"/>
  <unicode hex="0031"/>
  <outline>
    <contour>
      <point x="79" y="0" type="line"/>
      <point x="376" y="0" type="line"/>
      <point x="376" y="41" type="line"/>
      <point x="342" y="41" type="line" smooth="yes"/>
      <point x="302" y="41"/>
      <point x="275" y="51"/>
      <point x="275" y="113" type="curve" smooth="yes"/>
      <point x="275" y="718" type="line"/>
      <point x="220" y="718" type="line"/>
      <point x="165" y="667" type="line" smooth="yes"/>
      <point x="113" y="618"/>
      <point x="79" y="601"/>
      <point x="47" y="591" type="curve"/>
      <point x="47" y="560"/>
      <point x="64" y="541"/>
      <point x="88" y="541" type="curve" smooth="yes"/>
      <point x="119" y="541"/>
      <point x="151" y="583"/>
      <point x="190" y="640" type="curve"/>
      <point x="190" y="113" type="line" smooth="yes"/>
      <point x="190" y="48"/>
      <point x="163" y="41"/>
      <point x="123" y="41" type="curve" smooth="yes"/>
      <point x="79" y="41" type="line"/>
    </contour>
  </outline>
</glyph>
<glyph name="two" format="2">
  <advance width="442"/>
  <unicode hex="0032"/>
  <outline>
    <contour>
      <point x="37" y="0" type="line"/>
      <point x="395" y="0" type="line"/>
      <point x="398" y="170" type="line"/>
      <point x="359" y="170" type="line"/>
      <point x="355" y="151" type="line" smooth="yes"/>
      <point x="345" y="104"/>
      <point x="332" y="77"/>
      <point x="288" y="77" type="curve" smooth="yes"/>
      <point x="105" y="77" type="line"/>
      <point x="241" y="259" type="line" smooth="yes"/>
      <point x="321" y="366"/>
      <point x="380" y="440"/>
      <point x="380" y="554" type="curve" smooth="yes"/>
      <point x="380" y="655"/>
      <point x="316" y="724"/>
      <point x="209" y="724" type="curve" smooth="yes"/>
      <point x="100" y="724"/>
      <point x="45" y="666"/>
      <point x="45" y="595" type="curve" smooth="yes"/>
      <point x="45" y="545"/>
      <point x="82" y="530"/>
      <point x="120" y="530" type="curve"/>
      <point x="120" y="606"/>
      <point x="137" y="675"/>
      <point x="209" y="675" type="curve" smooth="yes"/>
      <point x="263" y="675"/>
      <point x="289" y="624"/>
      <point x="289" y="545" type="curve" smooth="yes"/>
      <point x="289" y="448"/>
      <point x="261" y="381"/>
      <point x="175" y="260" type="curve" smooth="yes"/>
      <point x="37" y="67" type="line"/>
    </contour>
  </outline>
</glyph>
<glyph name="three" format="2">
  <advance width="442"/>
  <unicode hex="0033"/>
  <outline>
    <contour>
      <point x="198" y="-10" type="curve" smooth="yes"/>
      <point x="301" y="-10"/>
      <point x="401" y="43"/>
      <point x="401" y="196" type="curve" smooth="yes"/>
      <point x="401" y="323"/>
      <point x="328" y="368"/>
      <point x="261" y="378" type="curve"/>
      <point x="330" y="399"/>
      <point x="381" y="469"/>
      <point x="381" y="559" type="curve" smooth="yes"/>
      <point x="381" y="665"/>
      <point x="314" y="724"/>
      <point x="217" y="724" type="curve" smooth="yes"/>
      <point x="108" y="724"/>
      <point x="52" y="664"/>
      <point x="52" y="591" type="curve" smooth="yes"/>
      <point x="52" y="547"/>
      <point x="85" y="532"/>
      <point x="123" y="532" type="curve"/>
      <point x="123" y="611"/>
      <point x="146" y="675"/>
      <point x="210" y="675" type="curve" smooth="yes"/>
      <point x="264" y="675"/>
      <point x="291" y="629"/>
      <point x="291" y="550" type="curve" smooth="yes"/>
      <point x="291" y="454"/>
      <point x="252" y="395"/>
      <point x="182" y="395" type="curve"/>
      <point x="143" y="395" type="line"/>
      <point x="143" y="348" type="line"/>
      <point x="181" y="348" type="line" smooth="yes"/>
      <point x="269" y="348"/>
      <point x="311" y="291"/>
      <point x="311" y="197" type="curve" smooth="yes"/>
      <point x="311" y="85"/>
      <point x="258" y="42"/>
      <point x="197" y="42" type="curve" smooth="yes"/>
      <point x="135" y="42"/>
      <point x="97" y="96"/>
      <point x="97" y="165" type="curve"/>
      <point x="65" y="165"/>
      <point x="42" y="141"/>
      <point x="42" y="102" type="curve" smooth="yes"/>
      <point x="42" y="41"/>
      <point x="90" y="-10"/>
    </contour>
  </outline>
</glyph>
<glyph name="four" format="2">
  <advance width="442"/>
  <unicode hex="0034"/>
  <outline>
    <contour>
      <point x="165" y="0" type="line"/>
      <point x="412" y="0" type="line"/>
      <point x="412" y="41" type="line"/>
      <point x="402" y="41" type="line" smooth="yes"/>
      <point x="365" y="41"/>
      <point x="336" y="50"/>
      <point x="336" y="113" type="curve" smooth="yes"/>
      <point x="336" y="197" type="line"/>
      <point x="429" y="197" type="line"/>
      <point x="429" y="252" type="line"/>
      <point x="336" y="252" type="line"/>
      <point x="336" y="714" type="line"/>
      <point x="250" y="714" type="line"/>
      <point x="13" y="236" type="line"/>
      <point x="13" y="197" type="line"/>
      <point x="252" y="197" type="line"/>
      <point x="252" y="113" type="line" smooth="yes"/>
      <point x="252" y="50"/>
      <point x="224" y="41"/>
      <point x="186" y="41" type="curve" smooth="yes"/>
      <point x="165" y="41" type="line"/>
    </contour>
    <contour>
      <point x="71" y="252" type="line"/>
      <point x="185" y="486" type="line" smooth="yes"/>
      <point x="206" y="529"/>
      <point x="245" y="614"/>
      <point x="257" y="646" type="curve"/>
      <point x="253" y="584"/>
      <point x="252" y="499"/>
      <point x="252" y="441" type="curve" smooth="yes"/>
      <point x="252" y="252" type="line"/>
    </contour>
  </outline>
</glyph>
<glyph name="five" format="2">
  <advance width="442"/>
  <unicode hex="0035"/>
  <outline>
    <contour>
      <point x="193" y="-10" type="curve" smooth="yes"/>
      <point x="307" y="-10"/>
      <point x="388" y="85"/>
      <point x="388" y="218" type="curve" smooth="yes"/>
      <point x="388" y="358"/>
      <point x="310" y="429"/>
      <point x="199" y="429" type="curve" smooth="yes"/>
      <point x="165" y="429"/>
      <point x="130" y="420"/>
      <point x="110" y="411" type="curve"/>
      <point x="127" y="636" type="line"/>
      <point x="281" y="636" type="line" smooth="yes"/>
      <point x="313" y="636"/>
      <point x="313" y="625"/>
      <point x="322" y="586" type="curve" smooth="yes"/>
      <point x="327" y="565" type="line"/>
      <point x="366" y="565" type="line"/>
      <point x="363" y="713" type="line"/>
      <point x="91" y="713" type="line"/>
      <point x="64" y="361" type="line"/>
      <point x="83" y="351" type="line"/>
      <point x="104" y="363"/>
      <point x="138" y="378"/>
      <point x="183" y="378" type="curve" smooth="yes"/>
      <point x="252" y="378"/>
      <point x="297" y="323"/>
      <point x="297" y="218" type="curve" smooth="yes"/>
      <point x="297" y="85"/>
      <point x="250" y="41"/>
      <point x="187" y="41" type="curve" smooth="yes"/>
      <point x="123" y="41"/>
      <point x="93" y="95"/>
      <point x="93" y="155" type="curve"/>
      <point x="61" y="155"/>
      <point x="40" y="130"/>
      <point x="40" y="94" type="curve" smooth="yes"/>
      <point x="40" y="51"/>
      <point x="75" y="-10"/>
    </contour>
  </outline>
</glyph>
<glyph name="six" format="2">
  <advance width="442"/>
  <unicode hex="0036"/>
  <outline>
    <contour>
      <point x="232" y="-10" type="curve" smooth="yes"/>
      <point x="342" y="-10"/>
      <point x="405" y="88"/>
      <point x="405" y="229" type="curve" smooth="yes"/>
      <point x="405" y="356"/>
      <point x="342" y="433"/>
      <point x="249" y="433" type="curve" smooth="yes"/>
      <point x="194" y="433"/>
      <point x="158" y="405"/>
      <point x="134" y="379" type="curve"/>
      <point x="137" y="575"/>
      <point x="175" y="677"/>
      <point x="248" y="677" type="curve" smooth="yes"/>
      <point x="300" y="677"/>
      <point x="322" y="631"/>
      <point x="322" y="562" type="curve"/>
      <point x="365" y="562"/>
      <point x="388" y="581"/>
      <point x="388" y="619" type="curve" smooth="yes"/>
      <point x="388" y="673"/>
      <point x="342" y="724"/>
      <point x="251" y="724" type="curve" smooth="yes"/>
      <point x="109" y="724"/>
      <point x="45" y="582"/>
      <point x="45" y="340" type="curve" smooth="yes"/>
      <point x="45" y="97"/>
      <point x="124" y="-10"/>
    </contour>
    <contour>
      <point x="234" y="40" type="curve" smooth="yes"/>
      <point x="173" y="40"/>
      <point x="135" y="133"/>
      <point x="133" y="327" type="curve"/>
      <point x="152" y="352"/>
      <point x="183" y="385"/>
      <point x="231" y="385" type="curve" smooth="yes"/>
      <point x="288" y="385"/>
      <point x="318" y="334"/>
      <point x="318" y="219" type="curve" smooth="yes"/>
      <point x="318" y="95"/>
      <point x="288" y="40"/>
    </contour>
  </outline>
</glyph>
<glyph name="seven" format="2">
  <advance width="442"/>
  <unicode hex="0037"/>
  <outline>
    <contour>
      <point x="135" y="0" type="line"/>
      <point x="197" y="0" type="line"/>
      <point x="403" y="686" type="line"/>
      <point x="403" y="713" type="line"/>
      <point x="46" y="713" type="line"/>
      <point x="41" y="535" type="line"/>
      <point x="83" y="535" type="line"/>
      <point x="87" y="582" type="line" smooth="yes"/>
      <point x="90" y="620"/>
      <point x="102" y="636"/>
      <point x="131" y="636" type="curve" smooth="yes"/>
      <point x="340" y="636" type="line"/>
    </contour>
  </outline>
</glyph>
<glyph name="eight" format="2">
  <advance width="442"/>
  <unicode hex="0038"/>
  <outline>
    <contour>
      <point x="218" y="-10" type="curve" smooth="yes"/>
      <point x="336" y="-10"/>
      <point x="409" y="60"/>
      <point x="409" y="178" type="curve" smooth="yes"/>
      <point x="409" y="283"/>
      <point x="358" y="335"/>
      <point x="281" y="379" type="curve"/>
      <point x="345" y="415"/>
      <point x="386" y="466"/>
      <point x="386" y="558" type="curve" smooth="yes"/>
      <point x="386" y="655"/>
      <point x="328" y="724"/>
      <point x="224" y="724" type="curve" smooth="yes"/>
      <point x="106" y="724"/>
      <point x="52" y="646"/>
      <point x="52" y="548" type="curve" smooth="yes"/>
      <point x="52" y="459"/>
      <point x="95" y="408"/>
      <point x="155" y="367" type="curve"/>
      <point x="89" y="331"/>
      <point x="35" y="275"/>
      <point x="35" y="173" type="curve" smooth="yes"/>
      <point x="35" y="70"/>
      <point x="95" y="-10"/>
    </contour>
    <contour>
      <point x="220" y="39" type="curve" smooth="yes"/>
      <point x="154" y="39"/>
      <point x="117" y="89"/>
      <point x="117" y="176" type="curve" smooth="yes"/>
      <point x="117" y="251"/>
      <point x="144" y="307"/>
      <point x="192" y="342" type="curve"/>
      <point x="286" y="285"/>
      <point x="324" y="237"/>
      <point x="324" y="167" type="curve" smooth="yes"/>
      <point x="324" y="85"/>
      <point x="282" y="39"/>
    </contour>
    <contour>
      <point x="242" y="401" type="curve"/>
      <point x="175" y="442"/>
      <point x="136" y="481"/>
      <point x="136" y="560" type="curve" smooth="yes"/>
      <point x="136" y="629"/>
      <point x="166" y="675"/>
      <point x="222" y="675" type="curve" smooth="yes"/>
      <point x="283" y="675"/>
      <point x="309" y="618"/>
      <point x="309" y="556" type="curve" smooth="yes"/>
      <point x="309" y="485"/>
      <point x="291" y="438"/>
    </contour>
  </outline>
</glyph>
<glyph name="nine" format="2">
  <advance width="442"/>
  <unicode hex="0039"/>
  <outline>
    <contour>
      <point x="180" y="-11" type="curve"/>
      <point x="335" y="-11"/>
      <point x="398" y="153"/>
      <point x="398" y="388" type="curve"/>
      <point x="398" y="626"/>
      <point x="315" y="724"/>
      <point x="207" y="724" type="curve" smooth="yes"/>
      <point x="98" y="724"/>
      <point x="37" y="624"/>
      <point x="37" y="484" type="curve" smooth="yes"/>
      <point x="37" y="352"/>
      <point x="102" y="281"/>
      <point x="193" y="281" type="curve" smooth="yes"/>
      <point x="248" y="281"/>
      <point x="291" y="317"/>
      <point x="310" y="347" type="curve"/>
      <point x="305" y="141"/>
      <point x="268" y="43"/>
      <point x="187" y="43" type="curve" smooth="yes"/>
      <point x="130" y="43"/>
      <point x="105" y="80"/>
      <point x="91" y="121" type="curve"/>
      <point x="71" y="114"/>
      <point x="61" y="95"/>
      <point x="61" y="70" type="curve" smooth="yes"/>
      <point x="61" y="30"/>
      <point x="93" y="-11"/>
    </contour>
    <contour>
      <point x="215" y="330" type="curve"/>
      <point x="153" y="333"/>
      <point x="125" y="384"/>
      <point x="125" y="488" type="curve" smooth="yes"/>
      <point x="125" y="607"/>
      <point x="154" y="674"/>
      <point x="211" y="674" type="curve" smooth="yes"/>
      <point x="273" y="674"/>
      <point x="309" y="593"/>
      <point x="312" y="399" type="curve"/>
      <point x="296" y="372"/>
      <point x="269" y="333"/>
    </contour>
  </outline>
</glyph>
<glyph name="colon" format="2">
  <advance width="220"/>
  <unicode hex="003A"/>
  <outline>
    <contour>
      <point x="110" y="409" type="curve" smooth="yes"/>
      <point x="137" y="409"/>
      <point x="161" y="423"/>
      <point x="161" y="470" type="curve" smooth="yes"/>
      <point x="161" y="517"/>
      <point x="137" y="531"/>
      <point x="110" y="531" type="curve" smooth="yes"/>
      <point x="81" y="531"/>
      <point x="59" y="517"/>
      <point x="59" y="470" type="curve" smooth="yes"/>
      <point x="59" y="423"/>
      <point x="81" y="409"/>
    </contour>
    <contour>
      <point x="110" y="-7" type="curve" smooth="yes"/>
      <point x="137" y="-7"/>
      <point x="161" y="8"/>
      <point x="161" y="55" type="curve" smooth="yes"/>
      <point x="161" y="102"/>
      <point x="137" y="117"/>
      <point x="110" y="117" type="curve" smooth="yes"/>
      <point x="81" y="117"/>
      <point x="59" y="102"/>
      <point x="59" y="55" type="curve" smooth="yes"/>
      <point x="59" y="8"/>
      <point x="81" y="-7"/>
    </contour>
  </outline>
</glyph>
<glyph name="semicolon" format="2">
  <advance width="220"/>
  <unicode hex="003B"/>
  <outline>
    <contour>
      <point x="39" y="-154" type="line"/>
      <point x="130" y="-122"/>
      <point x="164" y="-52"/>
      <point x="164" y="26" type="curve" smooth="yes"/>
      <point x="164" y="84"/>
      <point x="140" y="117"/>
      <point x="103" y="117" type="curve" smooth="yes"/>
      <point x="77" y="117"/>
      <point x="56" y="97"/>
      <point x="56" y="64" type="curve" smooth="yes"/>
      <point x="56" y="10"/>
      <point x="108" y="11"/>
      <point x="108" y="-26" type="curve" smooth="yes"/>
      <point x="108" y="-62"/>
      <point x="86" y="-97"/>
      <point x="39" y="-116" type="curve"/>
    </contour>
    <contour>
      <point x="110" y="409" type="curve" smooth="yes"/>
      <point x="138" y="409"/>
      <point x="161" y="423"/>
      <point x="161" y="470" type="curve" smooth="yes"/>
      <point x="161" y="517"/>
      <point x="138" y="531"/>
      <point x="110" y="531" type="curve" smooth="yes"/>
      <point x="81" y="531"/>
      <point x="59" y="517"/>
      <point x="59" y="470" type="curve" smooth="yes"/>
      <point x="59" y="423"/>
      <point x="81" y="409"/>
    </contour>
  </outline>
</glyph>
<glyph name="equal" format="2">
  <advance width="425"/>
  <unicode hex="003D"/>
  <outline>
    <contour>
      <point x="43" y="423" type="line"/>
      <point x="382" y="423" type="line"/>
      <point x="382" y="481" type="line"/>
      <point x="43" y="481" type="line"/>
    </contour>
    <contour>
      <point x="43" y="233" type="line"/>
      <point x="382" y="233" type="line"/>
      <point x="382" y="291" type="line"/>
      <point x="43" y="291" type="line"/>
    </contour>
  </outline>
</glyph>
<glyph name="greater" format="2">
  <advance width="425"/>
  <unicode hex="003E"/>
  <outline>
    <contour>
      <point x="43" y="111" type="line"/>
      <point x="382" y="340" type="line"/>
      <point x="382" y="375" type="line"/>
      <point x="43" y="605" type="line"/>
      <point x="43" y="540" type="line"/>
      <point x="305" y="357" type="line"/>
      <point x="43" y="177" type="line"/>
    </contour>
  </outline>
</glyph>
<glyph name="question" format="2">
  <advance width="412"/>
  <unicode hex="003F"/>
  <outline>
    <contour>
      <point x="168" y="209" type="line"/>
      <point x="203" y="209" type="line"/>
      <point x="217" y="323" type="line"/>
      <point x="317" y="373"/>
      <point x="365" y="436"/>
      <point x="365" y="547" type="curve" smooth="yes"/>
      <point x="365" y="660"/>
      <point x="298" y="724"/>
      <point x="192" y="724" type="curve" smooth="yes"/>
      <point x="90" y="724"/>
      <point x="34" y="674"/>
      <point x="34" y="612" type="curve" smooth="yes"/>
      <point x="34" y="569"/>
      <point x="64" y="553"/>
      <point x="109" y="553" type="curve"/>
      <point x="109" y="627"/>
      <point x="130" y="676"/>
      <point x="191" y="676" type="curve" smooth="yes"/>
      <point x="247" y="676"/>
      <point x="275" y="620"/>
      <point x="275" y="548" type="curve" smooth="yes"/>
      <point x="275" y="461"/>
      <point x="246" y="394"/>
      <point x="155" y="346" type="curve"/>
    </contour>
    <contour>
      <point x="185" y="-7" type="curve" smooth="yes"/>
      <point x="214" y="-7"/>
      <point x="238" y="8"/>
      <point x="238" y="55" type="curve" smooth="yes"/>
      <point x="238" y="102"/>
      <point x="214" y="117"/>
      <point x="185" y="117" type="curve" smooth="yes"/>
      <point x="157" y="117"/>
      <point x="135" y="102"/>
      <point x="135" y="55" type="curve" smooth="yes"/>
      <point x="135" y="8"/>
      <point x="157" y="-7"/>
    </contour>
  </outline>
</glyph>
<glyph name="bracketleft" format="2">
  <advance width="296"/>
  <unicode hex="005B"/>
  <outline>
    <contour>
      <point x="79" y="-128" type="line"/>
      <point x="267" y="-128" type="line"/>
      <point x="267" y="-87" type="line"/>
      <point x="233" y="-87" type="line" smooth="yes"/>
      <point x="198" y="-87"/>
      <point x="168" y="-78"/>
      <point x="168" y="-15" type="curve" smooth="yes"/>
      <point x="168" y="647" type="line" smooth="yes"/>
      <point x="168" y="710"/>
      <point x="198" y="719"/>
      <point x="233" y="719" type="curve" smooth="yes"/>
      <point x="267" y="719" type="line"/>
      <point x="267" y="760" type="line"/>
      <point x="79" y="760" type="line"/>
    </contour>
  </outline>
</glyph>
<glyph name="backslash" format="2">
  <advance width="228"/>
  <unicode hex="005C"/>
  <outline>
    <contour>
      <point x="179" y="-121" type="line"/>
      <point x="228" y="-121" type="line"/>
      <point x="49" y="760" type="line"/>
      <point x="0" y="760" type="line"/>
    </contour>
  </outline>
</glyph>
<glyph name="bracketright" format="2">
  <advance width="296"/>
  <unicode hex="005D"/>
  <outline>
    <contour>
      <point x="30" y="-128" type="line"/>
      <point x="217" y="-128" type="line"/>
      <point x="217" y="760" type="line"/>
      <point x="30" y="760" type="line"/>
      <point x="30" y="719" type="line"/>
      <point x="63" y="719" type="line" smooth="yes"/>
      <point x="99" y="719"/>
      <point x="128" y="710"/>
      <point x="128" y="647" type="curve" smooth="yes"/>
      <point x="128" y="-15" type="line" smooth="yes"/>
      <point x="128" y="-78"/>
      <point x="99" y="-87"/>
      <point x="63" y="-87" type="curve" smooth="yes"/>
      <point x="30" y="-87" type="line"/>
    </contour>
  </outline>
</glyph>
<glyph name="asciicircum" format="2">
  <advance width="425"/>
  <unicode hex="005E"/>
  <outline>
    <contour>
      <point x="30" y="267" type="line"/>
      <point x="85" y="267" type="line"/>
      <point x="211" y="624" type="line"/>
      <point x="338" y="267" type="line"/>
      <point x="394" y="267" type="line"/>
      <point x="226" y="714" type="line"/>
      <point x="197" y="714" type="line"/>
    </contour>
  </outline>
</glyph>
<glyph name="underscore" format="2">
  <advance width="362"/>
  <unicode hex="005F"/>
  <outline>
    <contour>
      <point x="-4" y="-142" type="line"/>
      <point x="366" y="-142" type="line"/>
      <point x="366" y="-83" type="line"/>
      <point x="-4" y="-83" type="line"/>
    </contour>
  </outline>
</glyph>
<glyph name="braceleft" format="2">
  <advance width="341"/>
  <unicode hex="007B"/>
  <outline>
    <contour>
      <point x="248" y="-128" type="curve" smooth="yes"/>
      <point x="306" y="-128" type="line"/>
      <point x="306" y="-86" type="line"/>
      <point x="281" y="-86" type="line" smooth="yes"/>
      <point x="235" y="-86"/>
      <point x="218" y="-49"/>
      <point x="218" y="19" type="curve" smooth="yes"/>
      <point x="218" y="192" type="line" smooth="yes"/>
      <point x="218" y="259"/>
      <point x="190" y="305"/>
      <point x="131" y="317" type="curve"/>
      <point x="131" y="318" type="line"/>
      <point x="190" y="329"/>
      <point x="218" y="375"/>
      <point x="218" y="441" type="curve" smooth="yes"/>
      <point x="218" y="612" type="line" smooth="yes"/>
      <point x="218" y="682"/>
      <point x="235" y="718"/>
      <point x="281" y="718" type="curve" smooth="yes"/>
      <point x="306" y="718" type="line"/>
      <point x="306" y="760" type="line"/>
      <point x="248" y="760" type="line" smooth="yes"/>
      <point x="170" y="760"/>
      <point x="128" y="708"/>
      <point x="128" y="617" type="curve" smooth="yes"/>
      <point x="128" y="443" type="line" smooth="yes"/>
      <point x="128" y="362"/>
      <point x="88" y="339"/>
      <point x="35" y="337" type="curve"/>
      <point x="35" y="297" type="line"/>
      <point x="88" y="294"/>
      <point x="128" y="272"/>
      <point x="128" y="189" type="curve" smooth="yes"/>
      <point x="128" y="16" type="line" smooth="yes"/>
      <point x="128" y="-73"/>
      <point x="170" y="-128"/>
    </contour>
  </outline>
</glyph>
<glyph name="bar" format="2">
  <advance width="442"/>
  <unicode hex="007C"/>
  <outline>
    <contour>
      <point x="195" y="-240" type="line"/>
      <point x="246" y="-240" type="line"/>
      <point x="246" y="760" type="line"/>
      <point x="195" y="760" type="line"/>
    </contour>
  </outline>
</glyph>
<glyph name="threesuperior" format="2">
  <advance width="316"/>
  <unicode hex="00B3"/>
  <outline>
    <contour>
      <point x="142" y="380" type="curve" smooth="yes"/>
      <point x="226" y="380"/>
      <point x="281" y="424"/>
      <point x="281" y="508" type="curve" smooth="yes"/>
      <point x="281" y="581"/>
      <point x="233" y="604"/>
      <point x="189" y="612" type="curve"/>
      <point x="189" y="615" type="line"/>
      <point x="231" y="630"/>
      <point x="268" y="664"/>
      <point x="268" y="723" type="curve" smooth="yes"/>
      <point x="268" y="785"/>
      <point x="228" y="823"/>
      <point x="150" y="823" type="curve" smooth="yes"/>
      <point x="71" y="823"/>
      <point x="34" y="781"/>
      <point x="34" y="738" type="curve" smooth="yes"/>
      <point x="34" y="708"/>
      <point x="53" y="697"/>
      <point x="84" y="697" type="curve"/>
      <point x="84" y="749"/>
      <point x="95" y="789"/>
      <point x="143" y="789" type="curve" smooth="yes"/>
      <point x="180" y="789"/>
      <point x="199" y="766"/>
      <point x="199" y="718" type="curve" smooth="yes"/>
      <point x="199" y="664"/>
      <point x="172" y="628"/>
      <point x="125" y="628" type="curve" smooth="yes"/>
      <point x="96" y="628" type="line"/>
      <point x="96" y="592" type="line"/>
      <point x="123" y="592" type="line" smooth="yes"/>
      <point x="183" y="592"/>
      <point x="210" y="561"/>
      <point x="210" y="509" type="curve" smooth="yes"/>
      <point x="210" y="443"/>
      <point x="179" y="418"/>
      <point x="138" y="418" type="curve" smooth="yes"/>
      <point x="84" y="418"/>
      <point x="69" y="462"/>
      <point x="69" y="508" type="curve"/>
      <point x="42" y="508"/>
      <point x="25" y="494"/>
      <point x="25" y="462" type="curve" smooth="yes"/>
      <point x="25" y="413"/>
      <point x="62" y="380"/>
    </contour>
  </outline>
</glyph>
<glyph name="multiply" format="2">
  <advance width="425"/>
  <unicode hex="00D7"/>
  <outline>
    <contour>
      <point x="87" y="151" type="line"/>
      <point x="215" y="314" type="line"/>
      <point x="343" y="151" type="line"/>
      <point x="386" y="186" type="line"/>
      <point x="251" y="358" type="line"/>
      <point x="386" y="529" type="line"/>
      <point x="343" y="564" type="line"/>
      <point x="215" y="403" type="line"/>
      <point x="88" y="565" type="line"/>
      <point x="44" y="530" type="line"/>
      <point x="180" y="358" type="line"/>
      <point x="44" y="185" type="line"/>
    </contour>
  </outline>
</glyph>
<glyph name="divide" format="2">
  <advance width="425"/>
  <unicode hex="00F7"/>
  <outline>
    <contour>
      <point x="43" y="329" type="line"/>
      <point x="382" y="329" type="line"/>
      <point x="382" y="386" type="line"/>
      <point x="43" y="386" type="line"/>
    </contour>
    <contour>
      <point x="213" y="114" type="curve" smooth="yes"/>
      <point x="237" y="114"/>
      <point x="256" y="128"/>
      <point x="256" y="168" type="curve" smooth="yes"/>
      <point x="256" y="209"/>
      <point x="237" y="222"/>
      <point x="213" y="222" type="curve" smooth="yes"/>
      <point x="188" y="222"/>
      <point x="169" y="209"/>
      <point x="169" y="168" type="curve" smooth="yes"/>
      <point x="169" y="128"/>
      <point x="188" y="114"/>
    </contour>
    <contour>
      <point x="213" y="493" type="curve" smooth="yes"/>
      <point x="237" y="493"/>
      <point x="256" y="507"/>
      <point x="256" y="547" type="curve" smooth="yes"/>
      <point x="256" y="588"/>
      <point x="237" y="601"/>
      <point x="213" y="601" type="curve" smooth="yes"/>
      <point x="188" y="601"/>
      <point x="169" y="588"/>
      <point x="169" y="547" type="curve" smooth="yes"/>
      <point x="169" y="507"/>
      <point x="188" y="493"/>
    </contour>
  </outline>
</glyph>
<glyph name="udatta-deva" format="2">
  <unicode hex="0951"/>
  <anchor x="0" y="554" name="_vedic"/>
  <outline>
    <contour>
      <point x="-25" y="917" type="line"/>
      <point x="25" y="917" type="line"/>
      <point x="25" y="1112" type="line"/>
      <point x="-25" y="1112" type="line"/>
    </contour>
  </outline>
</glyph>
<glyph name="anudatta-deva" format="2">
  <unicode hex="0952"/>
  <anchor x="0" y="0" name="_bottom"/>
  <outline>
    <contour>
      <point x="-201" y="-523" type="line"/>
      <point x="201" y="-523" type="line"/>
      <point x="201" y="-456" type="line"/>
      <point x="-201" y="-456" type="line"/>
    </contour>
  </outline>
</glyph>
<glyph name="danda-deva" format="2">
  <advance width="246"/>
  <unicode hex="0964"/>
  <outline>
    <contour>
      <point x="78" y="0" type="line"/>
      <point x="168" y="0" type="line"/>
      <point x="168" y="554" type="line"/>
      <point x="78" y="554" type="line"/>
    </contour>
  </outline>
</glyph>
<glyph name="dbldanda-deva" format="2">
  <advance width="444"/>
  <unicode hex="0965"/>
  <outline>
    <contour>
      <point x="276" y="0" type="line"/>
      <point x="366" y="0" type="line"/>
      <point x="366" y="554" type="line"/>
      <point x="276" y="554" type="line"/>
    </contour>
    <contour>
      <point x="78" y="0" type="line"/>
      <point x="168" y="0" type="line"/>
      <point x="168" y="554" type="line"/>
      <point x="78" y="554" type="line"/>
    </contour>
  </outline>
</glyph>
<glyph name="anusvara-tamil" format="2">
  <unicode hex="0B82"/>
  <note>
uni0B82
</note>
  <anchor x="0" y="554" name="_top"/>
  <outline>
    <contour>
      <point x="0" y="633" type="curve" smooth="yes"/>
      <point x="60" y="633"/>
      <point x="104" y="673"/>
      <point x="104" y="734" type="curve" smooth="yes"/>
      <point x="104" y="794"/>
      <point x="60" y="835"/>
      <point x="0" y="835" type="curve" smooth="yes"/>
      <point x="-60" y="835"/>
      <point x="-104" y="794"/>
      <point x="-104" y="734" type="curve" smooth="yes"/>
      <point x="-104" y="673"/>
      <point x="-60" y="633"/>
    </contour>
    <contour>
      <point x="0" y="687" type="curve" smooth="yes"/>
      <point x="-27" y="687"/>
      <point x="-45" y="706"/>
      <point x="-45" y="734" type="curve" smooth="yes"/>
      <point x="-45" y="762"/>
      <point x="-27" y="781"/>
      <point x="0" y="781" type="curve" smooth="yes"/>
      <point x="27" y="781"/>
      <point x="45" y="762"/>
      <point x="45" y="734" type="curve" smooth="yes"/>
      <point x="45" y="706"/>
      <point x="27" y="687"/>
    </contour>
  </outline>
</glyph>
<glyph name="visarga-tamil" format="2">
  <advance width="686"/>
  <unicode hex="0B83"/>
  <note>
uni0B83
</note>
  <outline>
    <contour>
      <point x="501" y="0" type="curve" smooth="yes"/>
      <point x="580" y="0"/>
      <point x="632" y="75"/>
      <point x="632" y="185" type="curve" smooth="yes"/>
      <point x="632" y="294"/>
      <point x="581" y="369"/>
      <point x="502" y="369" type="curve" smooth="yes"/>
      <point x="424" y="369"/>
      <point x="377" y="294"/>
      <point x="377" y="185" type="curve" smooth="yes"/>
      <point x="377" y="75"/>
      <point x="423" y="0"/>
    </contour>
    <contour>
      <point x="177" y="0" type="curve" smooth="yes"/>
      <point x="256" y="0"/>
      <point x="308" y="75"/>
      <point x="308" y="185" type="curve" smooth="yes"/>
      <point x="308" y="294"/>
      <point x="257" y="369"/>
      <point x="178" y="369" type="curve" smooth="yes"/>
      <point x="101" y="369"/>
      <point x="54" y="294"/>
      <point x="54" y="185" type="curve" smooth="yes"/>
      <point x="54" y="75"/>
      <point x="100" y="0"/>
    </contour>
    <contour>
      <point x="341" y="412" type="curve" smooth="yes"/>
      <point x="420" y="412"/>
      <point x="472" y="486"/>
      <point x="472" y="596" type="curve" smooth="yes"/>
      <point x="472" y="706"/>
      <point x="421" y="780"/>
      <point x="342" y="780" type="curve" smooth="yes"/>
      <point x="265" y="780"/>
      <point x="218" y="706"/>
      <point x="218" y="596" type="curve" smooth="yes"/>
      <point x="218" y="486"/>
      <point x="264" y="412"/>
    </contour>
    <contour>
      <point x="169" y="53" type="curve" smooth="yes"/>
      <point x="126" y="53"/>
      <point x="101" y="105"/>
      <point x="101" y="185" type="curve" smooth="yes"/>
      <point x="101" y="263"/>
      <point x="126" y="315"/>
      <point x="169" y="315" type="curve" smooth="yes"/>
      <point x="215" y="315"/>
      <point x="240" y="271"/>
      <point x="240" y="185" type="curve" smooth="yes"/>
      <point x="240" y="98"/>
      <point x="215" y="53"/>
    </contour>
    <contour>
      <point x="333" y="465" type="curve" smooth="yes"/>
      <point x="290" y="465"/>
      <point x="265" y="517"/>
      <point x="265" y="596" type="curve" smooth="yes"/>
      <point x="265" y="675"/>
      <point x="290" y="727"/>
      <point x="333" y="727" type="curve" smooth="yes"/>
      <point x="379" y="727"/>
      <point x="404" y="682"/>
      <point x="404" y="596" type="curve" smooth="yes"/>
      <point x="404" y="510"/>
      <point x="379" y="465"/>
    </contour>
    <contour>
      <point x="493" y="53" type="curve" smooth="yes"/>
      <point x="450" y="53"/>
      <point x="424" y="105"/>
      <point x="424" y="185" type="curve" smooth="yes"/>
      <point x="424" y="263"/>
      <point x="450" y="315"/>
      <point x="493" y="315" type="curve" smooth="yes"/>
      <point x="539" y="315"/>
      <point x="564" y="271"/>
      <point x="564" y="185" type="curve" smooth="yes"/>
      <point x="564" y="98"/>
      <point x="539" y="53"/>
    </contour>
  </outline>
</glyph>
<glyph name="aa-tamil" format="2">
  <advance width="1109"/>
  <unicode hex="0B86"/>
  <note>
uni0B86
</note>
  <anchor x="532" y="0" name="bottom"/>
  <anchor x="338" y="-122" name="nukta"/>
  <anchor x="542" y="554" name="top"/>
  <anchor x="543" y="554" name="vedic"/>
  <outline>
    <contour>
      <point x="750" y="-409" type="curve" smooth="yes"/>
      <point x="911" y="-409"/>
      <point x="1092" y="-294"/>
      <point x="1092" y="-95" type="curve" smooth="yes"/>
      <point x="1092" y="-1"/>
      <point x="1052" y="45"/>
      <point x="991" y="45" type="curve" smooth="yes"/>
      <point x="923" y="45"/>
      <point x="887" y="-20"/>
      <point x="882" y="-105" type="curve"/>
      <point x="900" y="-113" type="line"/>
      <point x="899" y="-62"/>
      <point x="925" y="-31"/>
      <point x="953" y="-31" type="curve" smooth="yes"/>
      <point x="985" y="-31"/>
      <point x="1006" y="-56"/>
      <point x="1006" y="-105" type="curve" smooth="yes"/>
      <point x="1005" y="-270"/>
      <point x="856" y="-355"/>
      <point x="745" y="-355" type="curve" smooth="yes"/>
      <point x="676" y="-355"/>
      <point x="625" y="-329"/>
      <point x="625" y="-271" type="curve" smooth="yes"/>
      <point x="625" y="-226"/>
      <point x="656" y="-198"/>
      <point x="707" y="-185" type="curve"/>
      <point x="693" y="-132" type="line"/>
      <point x="620" y="-153"/>
      <point x="568" y="-199"/>
      <point x="568" y="-266" type="curve" smooth="yes"/>
      <point x="568" y="-358"/>
      <point x="644" y="-409"/>
    </contour>
    <component base="a-tamil"/>
  </outline>
</glyph>
<glyph name="i-tamil" format="2">
  <advance width="767"/>
  <unicode hex="0B87"/>
  <note>
uni0B87
</note>
  <anchor x="368" y="0" name="bottom"/>
  <anchor x="366" y="-272" name="nukta"/>
  <anchor x="381" y="815" name="top"/>
  <anchor x="374" y="554" name="vedic"/>
  <outline>
    <contour>
      <point x="185" y="-297" type="curve" smooth="yes"/>
      <point x="407" y="-297"/>
      <point x="584" y="-37"/>
      <point x="584" y="239" type="curve" smooth="yes"/>
      <point x="584" y="435"/>
      <point x="494" y="559"/>
      <point x="355" y="559" type="curve" smooth="yes"/>
      <point x="268" y="559"/>
      <point x="197" y="499"/>
      <point x="197" y="382" type="curve" smooth="yes"/>
      <point x="197" y="300"/>
      <point x="243" y="248"/>
      <point x="308" y="248" type="curve" smooth="yes"/>
      <point x="377" y="248"/>
      <point x="419" y="298"/>
      <point x="419" y="374" type="curve" smooth="yes"/>
      <point x="419" y="436"/>
      <point x="382" y="499"/>
      <point x="318" y="517" type="curve"/>
      <point x="274" y="512" type="line"/>
      <point x="318" y="497"/>
      <point x="346" y="440"/>
      <point x="346" y="384" type="curve" smooth="yes"/>
      <point x="346" y="336"/>
      <point x="327" y="300"/>
      <point x="294" y="300" type="curve" smooth="yes"/>
      <point x="262" y="300"/>
      <point x="244" y="334"/>
      <point x="244" y="380" type="curve" smooth="yes"/>
      <point x="244" y="460"/>
      <point x="280" y="505"/>
      <point x="348" y="505" type="curve" smooth="yes"/>
      <point x="444" y="505"/>
      <point x="495" y="403"/>
      <point x="495" y="262" type="curve" smooth="yes"/>
      <point x="495" y="0"/>
      <point x="386" y="-243"/>
      <point x="191" y="-243" type="curve" smooth="yes"/>
      <point x="133" y="-243"/>
      <point x="101" y="-211"/>
      <point x="101" y="-150" type="curve" smooth="yes"/>
      <point x="101" y="-17"/>
      <point x="242" y="57"/>
      <point x="366" y="57" type="curve" smooth="yes"/>
      <point x="488" y="57"/>
      <point x="633" y="-9"/>
      <point x="633" y="-142" type="curve" smooth="yes"/>
      <point x="633" y="-214"/>
      <point x="591" y="-243"/>
      <point x="530" y="-243" type="curve" smooth="yes"/>
      <point x="334" y="-243"/>
      <point x="117" y="86"/>
      <point x="117" y="388" type="curve" smooth="yes"/>
      <point x="117" y="645"/>
      <point x="234" y="726"/>
      <point x="380" y="726" type="curve" smooth="yes"/>
      <point x="562" y="726"/>
      <point x="660" y="582"/>
      <point x="660" y="374" type="curve" smooth="yes"/>
      <point x="660" y="86" type="line"/>
      <point x="715" y="86" type="line"/>
      <point x="715" y="374" type="line" smooth="yes"/>
      <point x="715" y="670"/>
      <point x="589" y="815"/>
      <point x="381" y="815" type="curve" smooth="yes"/>
      <point x="179" y="815"/>
      <point x="57" y="665"/>
      <point x="57" y="422" type="curve" smooth="yes"/>
      <point x="57" y="74"/>
      <point x="283" y="-297"/>
      <point x="551" y="-297" type="curve" smooth="yes"/>
      <point x="629" y="-297"/>
      <point x="693" y="-248"/>
      <point x="693" y="-156" type="curve" smooth="yes"/>
      <point x="693" y="26"/>
      <point x="518" y="110"/>
      <point x="366" y="110" type="curve" smooth="yes"/>
      <point x="209" y="110"/>
      <point x="42" y="21"/>
      <point x="42" y="-151" type="curve" smooth="yes"/>
      <point x="42" y="-243"/>
      <point x="103" y="-297"/>
    </contour>
  </outline>
</glyph>
<glyph name="uu-tamil" format="2">
  <advance width="1263"/>
  <unicode hex="0B8A"/>
  <note>
uni0B8A
</note>
  <anchor x="654" y="0" name="bottom"/>
  <anchor x="654" y="0" name="nukta"/>
  <anchor x="657" y="554" name="top"/>
  <anchor x="657" y="554" name="vedic"/>
  <outline>
    <contour>
      <point x="125" y="0" type="curve" smooth="yes"/>
      <point x="1241" y="0" type="line"/>
      <point x="1241" y="54" type="line"/>
      <point x="129" y="54" type="line" smooth="yes"/>
      <point x="111" y="54"/>
      <point x="96" y="69"/>
      <point x="96" y="94" type="curve" smooth="yes"/>
      <point x="96" y="120"/>
      <point x="111" y="135"/>
      <point x="129" y="135" type="curve" smooth="yes"/>
      <point x="296" y="135" type="line" smooth="yes"/>
      <point x="415" y="135"/>
      <point x="500" y="200"/>
      <point x="500" y="336" type="curve" smooth="yes"/>
      <point x="500" y="481"/>
      <point x="402" y="559"/>
      <point x="283" y="559" type="curve" smooth="yes"/>
      <point x="181" y="559"/>
      <point x="108" y="492"/>
      <point x="108" y="382" type="curve" smooth="yes"/>
      <point x="108" y="303"/>
      <point x="149" y="247"/>
      <point x="218" y="247" type="curve" smooth="yes"/>
      <point x="286" y="247"/>
      <point x="332" y="292"/>
      <point x="332" y="374" type="curve" smooth="yes"/>
      <point x="332" y="448"/>
      <point x="288" y="511"/>
      <point x="231" y="519" type="curve"/>
      <point x="190" y="516" type="line"/>
      <point x="229" y="500"/>
      <point x="258" y="436"/>
      <point x="258" y="383" type="curve" smooth="yes"/>
      <point x="258" y="333"/>
      <point x="241" y="301"/>
      <point x="207" y="301" type="curve" smooth="yes"/>
      <point x="179" y="301"/>
      <point x="155" y="325"/>
      <point x="155" y="379" type="curve" smooth="yes"/>
      <point x="155" y="458"/>
      <point x="200" y="505"/>
      <point x="269" y="505" type="curve" smooth="yes"/>
      <point x="346" y="505"/>
      <point x="410" y="447"/>
      <point x="410" y="349" type="curve" smooth="yes"/>
      <point x="410" y="244"/>
      <point x="363" y="188"/>
      <point x="283" y="188" type="curve" smooth="yes"/>
      <point x="125" y="188" type="line" smooth="yes"/>
      <point x="77" y="188"/>
      <point x="44" y="154"/>
      <point x="44" y="94" type="curve" smooth="yes"/>
      <point x="44" y="35"/>
      <point x="77" y="0"/>
    </contour>
    <contour>
      <point x="697" y="103" type="curve" smooth="yes"/>
      <point x="775" y="103"/>
      <point x="820" y="161"/>
      <point x="820" y="242" type="curve" smooth="yes"/>
      <point x="820" y="340"/>
      <point x="771" y="390"/>
      <point x="706" y="390" type="curve" smooth="yes"/>
      <point x="646" y="390"/>
      <point x="599" y="334"/>
      <point x="591" y="252" type="curve"/>
      <point x="605" y="209" type="line"/>
      <point x="612" y="272"/>
      <point x="648" y="327"/>
      <point x="686" y="327" type="curve" smooth="yes"/>
      <point x="716" y="327"/>
      <point x="742" y="305"/>
      <point x="742" y="245" type="curve" smooth="yes"/>
      <point x="742" y="190"/>
      <point x="723" y="156"/>
      <point x="686" y="156" type="curve" smooth="yes"/>
      <point x="642" y="156"/>
      <point x="608" y="204"/>
      <point x="608" y="319" type="curve" smooth="yes"/>
      <point x="608" y="424"/>
      <point x="657" y="505"/>
      <point x="742" y="505" type="curve" smooth="yes"/>
      <point x="830" y="505"/>
      <point x="883" y="418"/>
      <point x="884" y="301" type="curve"/>
      <point x="929" y="301" type="line"/>
      <point x="928" y="458"/>
      <point x="863" y="559"/>
      <point x="740" y="559" type="curve" smooth="yes"/>
      <point x="621" y="559"/>
      <point x="556" y="452"/>
      <point x="556" y="317" type="curve" smooth="yes"/>
      <point x="556" y="181"/>
      <point x="610" y="103"/>
    </contour>
    <contour>
      <point x="884" y="107" type="line"/>
      <point x="971" y="107" type="line"/>
      <point x="971" y="502" type="line"/>
      <point x="1082" y="502" type="line"/>
      <point x="1082" y="107" type="line"/>
      <point x="1168" y="107" type="line"/>
      <point x="1168" y="502" type="line"/>
      <point x="1241" y="502" type="line"/>
      <point x="1241" y="554" type="line"/>
      <point x="897" y="554" type="line"/>
      <point x="897" y="379" type="line"/>
      <point x="884" y="375" type="line"/>
    </contour>
  </outline>
</glyph>
<glyph name="e-tamil" format="2">
  <advance width="705"/>
  <unicode hex="0B8E"/>
  <note>
uni0B8E
</note>
  <anchor x="362" y="0" name="bottom"/>
  <anchor x="363" y="0" name="nukta"/>
  <anchor x="365" y="554" name="top"/>
  <anchor x="365" y="554" name="vedic"/>
  <outline>
    <contour>
      <point x="211" y="-5" type="curve" smooth="yes"/>
      <point x="300" y="-5"/>
      <point x="352" y="57"/>
      <point x="352" y="152" type="curve" smooth="yes"/>
      <point x="352" y="245"/>
      <point x="302" y="303"/>
      <point x="229" y="303" type="curve" smooth="yes"/>
      <point x="142" y="303"/>
      <point x="95" y="213"/>
      <point x="93" y="118" type="curve"/>
      <point x="121" y="92" type="line"/>
      <point x="121" y="170"/>
      <point x="154" y="236"/>
      <point x="203" y="236" type="curve" smooth="yes"/>
      <point x="249" y="236"/>
      <point x="267" y="190"/>
      <point x="267" y="146" type="curve" smooth="yes"/>
      <point x="267" y="91"/>
      <point x="248" y="49"/>
      <point x="196" y="49" type="curve" smooth="yes"/>
      <point x="136" y="49"/>
      <point x="97" y="116"/>
      <point x="97" y="250" type="curve" smooth="yes"/>
      <point x="97" y="415"/>
      <point x="169" y="500"/>
      <point x="307" y="500" type="curve" smooth="yes"/>
      <point x="473" y="500" type="line"/>
      <point x="473" y="0" type="line"/>
      <point x="563" y="0" type="line"/>
      <point x="563" y="500" type="line"/>
      <point x="682" y="500" type="line"/>
      <point x="682" y="554" type="line"/>
      <point x="304" y="554" type="line" smooth="yes"/>
      <point x="146" y="554"/>
      <point x="44" y="450"/>
      <point x="44" y="251" type="curve" smooth="yes"/>
      <point x="44" y="83"/>
      <point x="113" y="-5"/>
    </contour>
  </outline>
</glyph>
<glyph name="ai-tamil" format="2">
  <advance width="752"/>
  <unicode hex="0B90"/>
  <note>
uni0B90
</note>
  <anchor x="379" y="0" name="bottom"/>
  <anchor x="375" y="-296" name="nukta"/>
  <anchor x="390" y="554" name="top"/>
  <anchor x="384" y="554" name="vedic"/>
  <outline>
    <contour>
      <point x="228" y="-296" type="curve" smooth="yes"/>
      <point x="308" y="-296"/>
      <point x="373" y="-253"/>
      <point x="389" y="-181" type="curve"/>
      <point x="402" y="-248"/>
      <point x="453" y="-296"/>
      <point x="543" y="-296" type="curve" smooth="yes"/>
      <point x="640" y="-296"/>
      <point x="708" y="-234"/>
      <point x="708" y="-99" type="curve" smooth="yes"/>
      <point x="708" y="-35"/>
      <point x="692" y="15"/>
      <point x="661" y="75" type="curve"/>
      <point x="614" y="48" type="line"/>
      <point x="639" y="0"/>
      <point x="656" y="-45"/>
      <point x="656" y="-93" type="curve" smooth="yes"/>
      <point x="656" y="-189"/>
      <point x="614" y="-235"/>
      <point x="542" y="-235" type="curve" smooth="yes"/>
      <point x="470" y="-235"/>
      <point x="437" y="-171"/>
      <point x="437" y="-74" type="curve" smooth="yes"/>
      <point x="437" y="-41" type="line"/>
      <point x="346" y="-41" type="line"/>
      <point x="346" y="-88" type="line" smooth="yes"/>
      <point x="346" y="-188"/>
      <point x="304" y="-241"/>
      <point x="240" y="-241" type="curve" smooth="yes"/>
      <point x="179" y="-241"/>
      <point x="136" y="-197"/>
      <point x="136" y="-117" type="curve" smooth="yes"/>
      <point x="136" y="32"/>
      <point x="246" y="66"/>
      <point x="406" y="78" type="curve" smooth="yes"/>
      <point x="562" y="90"/>
      <point x="707" y="137"/>
      <point x="707" y="340" type="curve" smooth="yes"/>
      <point x="707" y="505"/>
      <point x="630" y="559"/>
      <point x="539" y="559" type="curve" smooth="yes"/>
      <point x="467" y="559"/>
      <point x="416" y="522"/>
      <point x="395" y="444" type="curve"/>
      <point x="370" y="523"/>
      <point x="302" y="559"/>
      <point x="228" y="559" type="curve" smooth="yes"/>
      <point x="122" y="559"/>
      <point x="47" y="476"/>
      <point x="47" y="349" type="curve" smooth="yes"/>
      <point x="47" y="238"/>
      <point x="100" y="156"/>
      <point x="178" y="156" type="curve" smooth="yes"/>
      <point x="244" y="156"/>
      <point x="290" y="205"/>
      <point x="290" y="276" type="curve" smooth="yes"/>
      <point x="290" y="361"/>
      <point x="251" y="412"/>
      <point x="192" y="412" type="curve" smooth="yes"/>
      <point x="143" y="412"/>
      <point x="94" y="378"/>
      <point x="87" y="262" type="curve"/>
      <point x="106" y="224" type="line"/>
      <point x="109" y="322"/>
      <point x="142" y="348"/>
      <point x="172" y="348" type="curve" smooth="yes"/>
      <point x="202" y="348"/>
      <point x="217" y="322"/>
      <point x="217" y="279" type="curve" smooth="yes"/>
      <point x="217" y="238"/>
      <point x="199" y="210"/>
      <point x="168" y="210" type="curve" smooth="yes"/>
      <point x="132" y="210"/>
      <point x="101" y="243"/>
      <point x="101" y="344" type="curve" smooth="yes"/>
      <point x="101" y="448"/>
      <point x="153" y="505"/>
      <point x="220" y="505" type="curve" smooth="yes"/>
      <point x="296" y="505"/>
      <point x="346" y="458"/>
      <point x="346" y="345" type="curve" smooth="yes"/>
      <point x="346" y="215" type="line"/>
      <point x="437" y="215" type="line"/>
      <point x="437" y="371" type="line" smooth="yes"/>
      <point x="437" y="453"/>
      <point x="469" y="505"/>
      <point x="525" y="505" type="curve" smooth="yes"/>
      <point x="588" y="505"/>
      <point x="615" y="445"/>
      <point x="615" y="350" type="curve" smooth="yes"/>
      <point x="615" y="185"/>
      <point x="516" y="129"/>
      <point x="341" y="116" type="curve" smooth="yes"/>
      <point x="171" y="103"/>
      <point x="44" y="62"/>
      <point x="44" y="-105" type="curve" smooth="yes"/>
      <point x="44" y="-225"/>
      <point x="123" y="-296"/>
    </contour>
  </outline>
</glyph>
<glyph name="o-tamil" format="2">
  <advance width="759"/>
  <unicode hex="0B92"/>
  <note>
uni0B92
</note>
  <anchor x="389" y="0" name="bottom"/>
  <anchor x="387" y="-335" name="nukta"/>
  <anchor x="382" y="554" name="top"/>
  <anchor x="382" y="554" name="vedic"/>
  <outline>
    <contour>
      <point x="289" y="-294" type="curve" smooth="yes"/>
      <point x="434" y="-294"/>
      <point x="457" y="-135"/>
      <point x="585" y="-135" type="curve" smooth="yes"/>
      <point x="618" y="-135" type="line"/>
      <point x="618" y="-81" type="line"/>
      <point x="576" y="-81" type="line" smooth="yes"/>
      <point x="489" y="-81"/>
      <point x="429" y="-27"/>
      <point x="429" y="62" type="curve" smooth="yes"/>
      <point x="429" y="98"/>
      <point x="439" y="140"/>
      <point x="461" y="187" type="curve"/>
      <point x="467" y="184" type="line"/>
      <point x="462" y="159"/>
      <point x="460" y="136"/>
      <point x="460" y="115" type="curve" smooth="yes"/>
      <point x="460" y="43"/>
      <point x="490" y="-5"/>
      <point x="570" y="-5" type="curve" smooth="yes"/>
      <point x="652" y="-5"/>
      <point x="715" y="69"/>
      <point x="715" y="193" type="curve" smooth="yes"/>
      <point x="715" y="422"/>
      <point x="566" y="559"/>
      <point x="362" y="559" type="curve" smooth="yes"/>
      <point x="186" y="559"/>
      <point x="44" y="417"/>
      <point x="44" y="241" type="curve" smooth="yes"/>
      <point x="44" y="74"/>
      <point x="113" y="-5"/>
      <point x="211" y="-5" type="curve" smooth="yes"/>
      <point x="300" y="-5"/>
      <point x="352" y="57"/>
      <point x="352" y="152" type="curve" smooth="yes"/>
      <point x="352" y="245"/>
      <point x="302" y="303"/>
      <point x="229" y="303" type="curve" smooth="yes"/>
      <point x="142" y="303"/>
      <point x="95" y="213"/>
      <point x="93" y="118" type="curve"/>
      <point x="121" y="92" type="line"/>
      <point x="120" y="170"/>
      <point x="154" y="236"/>
      <point x="203" y="236" type="curve" smooth="yes"/>
      <point x="249" y="236"/>
      <point x="267" y="190"/>
      <point x="267" y="146" type="curve" smooth="yes"/>
      <point x="267" y="91"/>
      <point x="248" y="49"/>
      <point x="196" y="49" type="curve" smooth="yes"/>
      <point x="136" y="49"/>
      <point x="97" y="106"/>
      <point x="97" y="240" type="curve" smooth="yes"/>
      <point x="97" y="396"/>
      <point x="222" y="505"/>
      <point x="361" y="505" type="curve" smooth="yes"/>
      <point x="520" y="505"/>
      <point x="627" y="394"/>
      <point x="627" y="203" type="curve" smooth="yes"/>
      <point x="627" y="110"/>
      <point x="598" y="49"/>
      <point x="551" y="49" type="curve" smooth="yes"/>
      <point x="515" y="49"/>
      <point x="501" y="79"/>
      <point x="501" y="124" type="curve" smooth="yes"/>
      <point x="501" y="159"/>
      <point x="510" y="204"/>
      <point x="525" y="251" type="curve"/>
      <point x="461" y="278" type="line"/>
      <point x="405" y="185"/>
      <point x="383" y="111"/>
      <point x="383" y="53" type="curve" smooth="yes"/>
      <point x="383" y="-31"/>
      <point x="429" y="-80"/>
      <point x="484" y="-103" type="curve"/>
      <point x="484" y="-108" type="line"/>
      <point x="382" y="-129"/>
      <point x="366" y="-229"/>
      <point x="270" y="-229" type="curve" smooth="yes"/>
      <point x="231" y="-229"/>
      <point x="200" y="-207"/>
      <point x="200" y="-161" type="curve" smooth="yes"/>
      <point x="200" y="-129"/>
      <point x="212" y="-110"/>
      <point x="239" y="-82" type="curve"/>
      <point x="199" y="-47" type="line"/>
      <point x="163" y="-86"/>
      <point x="147" y="-113"/>
      <point x="147" y="-160" type="curve" smooth="yes"/>
      <point x="147" y="-247"/>
      <point x="209" y="-294"/>
    </contour>
  </outline>
</glyph>
<glyph name="oo-tamil" format="2">
  <advance width="759"/>
  <unicode hex="0B93"/>
  <note>
uni0B93
</note>
  <anchor x="380" y="0" name="bottom"/>
  <anchor x="378" y="-271" name="nukta"/>
  <anchor x="373" y="554" name="top"/>
  <anchor x="373" y="554" name="vedic"/>
  <outline>
    <contour>
      <point x="268" y="-305" type="curve" smooth="yes"/>
      <point x="423" y="-305"/>
      <point x="457" y="-135"/>
      <point x="585" y="-135" type="curve" smooth="yes"/>
      <point x="610" y="-135" type="line"/>
      <point x="610" y="-81" type="line"/>
      <point x="576" y="-81" type="line" smooth="yes"/>
      <point x="489" y="-81"/>
      <point x="428" y="-27"/>
      <point x="428" y="62" type="curve" smooth="yes"/>
      <point x="428" y="98"/>
      <point x="438" y="140"/>
      <point x="461" y="187" type="curve"/>
      <point x="467" y="184" type="line"/>
      <point x="462" y="159"/>
      <point x="460" y="136"/>
      <point x="460" y="115" type="curve" smooth="yes"/>
      <point x="460" y="43"/>
      <point x="490" y="-5"/>
      <point x="570" y="-5" type="curve" smooth="yes"/>
      <point x="652" y="-5"/>
      <point x="715" y="69"/>
      <point x="715" y="193" type="curve" smooth="yes"/>
      <point x="715" y="422"/>
      <point x="566" y="559"/>
      <point x="362" y="559" type="curve" smooth="yes"/>
      <point x="186" y="559"/>
      <point x="44" y="417"/>
      <point x="44" y="241" type="curve" smooth="yes"/>
      <point x="44" y="74"/>
      <point x="113" y="-5"/>
      <point x="211" y="-5" type="curve" smooth="yes"/>
      <point x="300" y="-5"/>
      <point x="352" y="57"/>
      <point x="352" y="152" type="curve" smooth="yes"/>
      <point x="352" y="245"/>
      <point x="302" y="303"/>
      <point x="229" y="303" type="curve" smooth="yes"/>
      <point x="142" y="303"/>
      <point x="95" y="213"/>
      <point x="93" y="118" type="curve"/>
      <point x="121" y="92" type="line"/>
      <point x="120" y="170"/>
      <point x="154" y="236"/>
      <point x="203" y="236" type="curve" smooth="yes"/>
      <point x="249" y="236"/>
      <point x="267" y="190"/>
      <point x="267" y="146" type="curve" smooth="yes"/>
      <point x="267" y="91"/>
      <point x="248" y="49"/>
      <point x="196" y="49" type="curve" smooth="yes"/>
      <point x="136" y="49"/>
      <point x="97" y="106"/>
      <point x="97" y="240" type="curve" smooth="yes"/>
      <point x="97" y="396"/>
      <point x="222" y="505"/>
      <point x="361" y="505" type="curve" smooth="yes"/>
      <point x="520" y="505"/>
      <point x="627" y="394"/>
      <point x="627" y="203" type="curve" smooth="yes"/>
      <point x="627" y="110"/>
      <point x="598" y="49"/>
      <point x="551" y="49" type="curve" smooth="yes"/>
      <point x="515" y="49"/>
      <point x="501" y="79"/>
      <point x="501" y="124" type="curve" smooth="yes"/>
      <point x="501" y="159"/>
      <point x="510" y="204"/>
      <point x="525" y="251" type="curve"/>
      <point x="461" y="278" type="line"/>
      <point x="404" y="185"/>
      <point x="382" y="111"/>
      <point x="382" y="54" type="curve" smooth="yes"/>
      <point x="382" y="-30"/>
      <point x="429" y="-80"/>
      <point x="484" y="-103" type="curve"/>
      <point x="484" y="-108" type="line"/>
      <point x="382" y="-129"/>
      <point x="359" y="-244"/>
      <point x="246" y="-244" type="curve" smooth="yes"/>
      <point x="201" y="-244"/>
      <point x="170" y="-217"/>
      <point x="170" y="-179" type="curve" smooth="yes"/>
      <point x="170" y="-149"/>
      <point x="195" y="-125"/>
      <point x="223" y="-125" type="curve" smooth="yes"/>
      <point x="253" y="-125"/>
      <point x="275" y="-141"/>
      <point x="286" y="-175" type="curve"/>
      <point x="314" y="-163"/>
      <point x="333" y="-139"/>
      <point x="333" y="-115" type="curve" smooth="yes"/>
      <point x="333" y="-76"/>
      <point x="293" y="-52"/>
      <point x="248" y="-52" type="curve" smooth="yes"/>
      <point x="183" y="-52"/>
      <point x="125" y="-101"/>
      <point x="125" y="-175" type="curve" smooth="yes"/>
      <point x="125" y="-259"/>
      <point x="190" y="-305"/>
    </contour>
  </outline>
</glyph>
<glyph name="ja-tamil" format="2">
  <advance width="751"/>
  <unicode hex="0B9C"/>
  <note>
uni0B9C
</note>
  <anchor x="379" y="0" name="bottom"/>
  <anchor x="375" y="-296" name="nukta"/>
  <anchor x="388" y="554" name="top"/>
  <anchor x="384" y="554" name="vedic"/>
  <outline>
    <contour>
      <point x="212" y="-296" type="curve" smooth="yes"/>
      <point x="398" y="-296"/>
      <point x="403" y="-21"/>
      <point x="535" y="-21" type="curve" smooth="yes"/>
      <point x="585" y="-21"/>
      <point x="617" y="-60"/>
      <point x="617" y="-128" type="curve" smooth="yes"/>
      <point x="617" y="-198"/>
      <point x="583" y="-242"/>
      <point x="526" y="-242" type="curve" smooth="yes"/>
      <point x="504" y="-242"/>
      <point x="479" y="-236"/>
      <point x="453" y="-220" type="curve"/>
      <point x="433" y="-263" type="line"/>
      <point x="467" y="-288"/>
      <point x="499" y="-296"/>
      <point x="543" y="-296" type="curve" smooth="yes"/>
      <point x="631" y="-296"/>
      <point x="707" y="-240"/>
      <point x="707" y="-131" type="curve" smooth="yes"/>
      <point x="707" y="-13"/>
      <point x="637" y="37"/>
      <point x="556" y="37" type="curve" smooth="yes"/>
      <point x="361" y="37"/>
      <point x="365" y="-238"/>
      <point x="227" y="-238" type="curve" smooth="yes"/>
      <point x="169" y="-238"/>
      <point x="135" y="-200"/>
      <point x="135" y="-104" type="curve" smooth="yes"/>
      <point x="135" y="54"/>
      <point x="258" y="65"/>
      <point x="406" y="83" type="curve" smooth="yes"/>
      <point x="570" y="103"/>
      <point x="707" y="135"/>
      <point x="707" y="340" type="curve" smooth="yes"/>
      <point x="707" y="505"/>
      <point x="631" y="559"/>
      <point x="540" y="559" type="curve" smooth="yes"/>
      <point x="471" y="559"/>
      <point x="416" y="521"/>
      <point x="395" y="443" type="curve"/>
      <point x="370" y="522"/>
      <point x="310" y="559"/>
      <point x="232" y="559" type="curve" smooth="yes"/>
      <point x="125" y="559"/>
      <point x="47" y="476"/>
      <point x="47" y="349" type="curve" smooth="yes"/>
      <point x="47" y="238"/>
      <point x="100" y="156"/>
      <point x="178" y="156" type="curve" smooth="yes"/>
      <point x="244" y="156"/>
      <point x="290" y="205"/>
      <point x="290" y="276" type="curve" smooth="yes"/>
      <point x="290" y="361"/>
      <point x="251" y="412"/>
      <point x="192" y="412" type="curve" smooth="yes"/>
      <point x="143" y="412"/>
      <point x="94" y="378"/>
      <point x="87" y="262" type="curve"/>
      <point x="106" y="224" type="line"/>
      <point x="109" y="322"/>
      <point x="142" y="348"/>
      <point x="172" y="348" type="curve" smooth="yes"/>
      <point x="202" y="348"/>
      <point x="217" y="322"/>
      <point x="217" y="279" type="curve" smooth="yes"/>
      <point x="217" y="238"/>
      <point x="199" y="210"/>
      <point x="168" y="210" type="curve" smooth="yes"/>
      <point x="132" y="210"/>
      <point x="101" y="243"/>
      <point x="101" y="344" type="curve" smooth="yes"/>
      <point x="101" y="448"/>
      <point x="157" y="505"/>
      <point x="224" y="505" type="curve" smooth="yes"/>
      <point x="299" y="505"/>
      <point x="347" y="453"/>
      <point x="347" y="346" type="curve" smooth="yes"/>
      <point x="347" y="215" type="line"/>
      <point x="438" y="215" type="line"/>
      <point x="438" y="372" type="line" smooth="yes"/>
      <point x="438" y="449"/>
      <point x="471" y="505"/>
      <point x="527" y="505" type="curve" smooth="yes"/>
      <point x="588" y="505"/>
      <point x="615" y="445"/>
      <point x="615" y="350" type="curve" smooth="yes"/>
      <point x="615" y="186"/>
      <point x="530" y="142"/>
      <point x="342" y="120" type="curve" smooth="yes"/>
      <point x="194" y="103"/>
      <point x="44" y="87"/>
      <point x="44" y="-102" type="curve" smooth="yes"/>
      <point x="44" y="-237"/>
      <point x="117" y="-296"/>
    </contour>
  </outline>
</glyph>
<glyph name="tta-tamil" format="2">
  <advance width="679"/>
  <unicode hex="0B9F"/>
  <note>
uni0B9F
</note>
  <anchor x="355" y="0" name="bottom"/>
  <anchor x="355" y="0" name="nukta"/>
  <anchor x="361" y="554" name="top"/>
  <anchor x="368" y="554" name="vedic"/>
  <outline>
    <contour>
      <point x="75" y="0" type="line"/>
      <point x="661" y="0" type="line"/>
      <point x="661" y="54" type="line"/>
      <point x="165" y="54" type="line"/>
      <point x="165" y="554" type="line"/>
      <point x="75" y="554" type="line"/>
    </contour>
  </outline>
</glyph>
<glyph name="ta-tamil" format="2">
  <advance width="647"/>
  <unicode hex="0BA4"/>
  <note>
uni0BA4
</note>
  <anchor x="321" y="0" name="bottom"/>
  <anchor x="448" y="554" name="imatra"/>
  <anchor x="337" y="-140" name="nukta"/>
  <anchor x="339" y="554" name="top"/>
  <anchor x="325" y="554" name="vedic"/>
  <outline>
    <contour>
      <point x="133" y="-234" type="curve"/>
      <point x="133" y="-166"/>
      <point x="148" y="-125"/>
      <point x="223" y="-125" type="curve" smooth="yes"/>
      <point x="339" y="-125" type="line" smooth="yes"/>
      <point x="515" y="-125"/>
      <point x="604" y="-48"/>
      <point x="604" y="105" type="curve" smooth="yes"/>
      <point x="604" y="241"/>
      <point x="532" y="317"/>
      <point x="408" y="317" type="curve" smooth="yes"/>
      <point x="394" y="317" type="line"/>
      <point x="394" y="500" type="line"/>
      <point x="514" y="500" type="line"/>
      <point x="514" y="554" type="line"/>
      <point x="147" y="554" type="line"/>
      <point x="147" y="286" type="line"/>
      <point x="202" y="286" type="line"/>
      <point x="202" y="500" type="line"/>
      <point x="304" y="500" type="line"/>
      <point x="304" y="317" type="line"/>
      <point x="184" y="317" type="line" smooth="yes"/>
      <point x="102" y="317"/>
      <point x="47" y="256"/>
      <point x="47" y="162" type="curve" smooth="yes"/>
      <point x="47" y="63"/>
      <point x="104" y="-4"/>
      <point x="212" y="-4" type="curve" smooth="yes"/>
      <point x="333" y="-4"/>
      <point x="394" y="67"/>
      <point x="394" y="200" type="curve" smooth="yes"/>
      <point x="394" y="263" type="line"/>
      <point x="407" y="263" type="line" smooth="yes"/>
      <point x="475" y="263"/>
      <point x="510" y="211"/>
      <point x="510" y="108" type="curve" smooth="yes"/>
      <point x="510" y="-14"/>
      <point x="439" y="-78"/>
      <point x="318" y="-78" type="curve" smooth="yes"/>
      <point x="188" y="-78" type="line" smooth="yes"/>
      <point x="118" y="-78"/>
      <point x="55" y="-93"/>
      <point x="55" y="-164" type="curve" smooth="yes"/>
      <point x="55" y="-213"/>
      <point x="84" y="-234"/>
    </contour>
    <contour>
      <point x="203" y="49" type="curve" smooth="yes"/>
      <point x="140" y="49"/>
      <point x="105" y="88"/>
      <point x="105" y="160" type="curve" smooth="yes"/>
      <point x="105" y="223"/>
      <point x="130" y="263"/>
      <point x="191" y="263" type="curve" smooth="yes"/>
      <point x="304" y="263" type="line"/>
      <point x="304" y="189" type="line" smooth="yes"/>
      <point x="304" y="86"/>
      <point x="258" y="49"/>
    </contour>
  </outline>
</glyph>
<glyph name="na-tamil" format="2">
  <advance width="605"/>
  <unicode hex="0BA8"/>
  <note>
uni0BA8
</note>
  <anchor x="291" y="0" name="bottom"/>
  <anchor x="419" y="554" name="imatra"/>
  <anchor x="329" y="-181" name="nukta"/>
  <anchor x="295" y="554" name="top"/>
  <anchor x="305" y="554" name="vedic"/>
  <outline>
    <contour>
      <point x="139" y="-249" type="curve"/>
      <point x="139" y="-180"/>
      <point x="154" y="-139"/>
      <point x="229" y="-139" type="curve" smooth="yes"/>
      <point x="295" y="-139" type="line" smooth="yes"/>
      <point x="453" y="-139"/>
      <point x="557" y="-62"/>
      <point x="557" y="143" type="curve" smooth="yes"/>
      <point x="557" y="275"/>
      <point x="507" y="345"/>
      <point x="429" y="345" type="curve" smooth="yes"/>
      <point x="375" y="345"/>
      <point x="350" y="313"/>
      <point x="338" y="289" type="curve"/>
      <point x="338" y="500" type="line"/>
      <point x="465" y="500" type="line"/>
      <point x="465" y="554" type="line"/>
      <point x="75" y="554" type="line"/>
      <point x="75" y="0" type="line"/>
      <point x="130" y="0" type="line"/>
      <point x="130" y="500" type="line"/>
      <point x="248" y="500" type="line"/>
      <point x="248" y="0" type="line"/>
      <point x="338" y="0" type="line"/>
      <point x="338" y="202" type="line" smooth="yes"/>
      <point x="338" y="243"/>
      <point x="357" y="278"/>
      <point x="395" y="278" type="curve" smooth="yes"/>
      <point x="435" y="278"/>
      <point x="465" y="239"/>
      <point x="465" y="132" type="curve" smooth="yes"/>
      <point x="465" y="-30"/>
      <point x="415" y="-92"/>
      <point x="285" y="-92" type="curve" smooth="yes"/>
      <point x="194" y="-92" type="line" smooth="yes"/>
      <point x="125" y="-92"/>
      <point x="61" y="-108"/>
      <point x="61" y="-179" type="curve" smooth="yes"/>
      <point x="61" y="-225"/>
      <point x="91" y="-249"/>
    </contour>
  </outline>
</glyph>
<glyph name="ma-tamil" format="2">
  <advance width="688"/>
  <unicode hex="0BAE"/>
  <note>
uni0BAE
</note>
  <anchor x="345" y="0" name="bottom"/>
  <anchor x="610" y="554" name="imatra"/>
  <anchor x="346" y="0" name="nukta"/>
  <anchor x="378" y="554" name="top"/>
  <anchor x="357" y="554" name="vedic"/>
  <outline>
    <contour>
      <point x="75" y="0" type="line"/>
      <point x="511" y="0" type="line" smooth="yes"/>
      <point x="607" y="0"/>
      <point x="642" y="61"/>
      <point x="642" y="234" type="curve" smooth="yes"/>
      <point x="642" y="439"/>
      <point x="565" y="559"/>
      <point x="451" y="559" type="curve" smooth="yes"/>
      <point x="364" y="559"/>
      <point x="332" y="498"/>
      <point x="332" y="399" type="curve" smooth="yes"/>
      <point x="332" y="54" type="line"/>
      <point x="165" y="54" type="line"/>
      <point x="165" y="554" type="line"/>
      <point x="75" y="554" type="line"/>
    </contour>
    <contour>
      <point x="422" y="54" type="line"/>
      <point x="422" y="400" type="line" smooth="yes"/>
      <point x="422" y="471"/>
      <point x="435" y="500"/>
      <point x="472" y="500" type="curve" smooth="yes"/>
      <point x="526" y="500"/>
      <point x="586" y="410"/>
      <point x="586" y="232" type="curve" smooth="yes"/>
      <point x="586" y="104"/>
      <point x="568" y="54"/>
      <point x="504" y="54" type="curve" smooth="yes"/>
    </contour>
  </outline>
</glyph>
<glyph name="ya-tamil" format="2">
  <advance width="744"/>
  <unicode hex="0BAF"/>
  <note>
uni0BAF
</note>
  <anchor x="372" y="0" name="bottom"/>
  <anchor x="661" y="554" name="imatra"/>
  <anchor x="375" y="0" name="nukta"/>
  <anchor x="387" y="554" name="top"/>
  <anchor x="375" y="554" name="vedic"/>
  <outline>
    <contour>
      <point x="188" y="-5" type="curve" smooth="yes"/>
      <point x="251" y="-5"/>
      <point x="279" y="36"/>
      <point x="289" y="58" type="curve"/>
      <point x="289" y="0" type="line"/>
      <point x="668" y="0" type="line"/>
      <point x="668" y="554" type="line"/>
      <point x="578" y="554" type="line"/>
      <point x="578" y="54" type="line"/>
      <point x="373" y="54" type="line"/>
      <point x="373" y="554" type="line"/>
      <point x="283" y="554" type="line"/>
      <point x="283" y="148" type="line" smooth="yes"/>
      <point x="283" y="88"/>
      <point x="257" y="56"/>
      <point x="220" y="56" type="curve" smooth="yes"/>
      <point x="188" y="56"/>
      <point x="163" y="80"/>
      <point x="163" y="139" type="curve" smooth="yes"/>
      <point x="163" y="554" type="line"/>
      <point x="73" y="554" type="line"/>
      <point x="73" y="148" type="line" smooth="yes"/>
      <point x="73" y="42"/>
      <point x="118" y="-5"/>
    </contour>
  </outline>
</glyph>
<glyph name="ra-tamil" format="2">
  <advance width="503"/>
  <unicode hex="0BB0"/>
  <note>
uni0BB0
</note>
  <anchor x="248" y="0" name="bottom"/>
  <anchor x="415" y="554" name="imatra"/>
  <anchor x="248" y="-199" name="nukta"/>
  <anchor x="264" y="554" name="top"/>
  <anchor x="275" y="554" name="vedic"/>
  <outline>
    <contour>
      <point x="179" y="-204" type="line"/>
      <point x="361" y="25" type="line"/>
      <point x="361" y="500" type="line"/>
      <point x="480" y="500" type="line"/>
      <point x="480" y="554" type="line"/>
      <point x="75" y="554" type="line"/>
      <point x="75" y="0" type="line"/>
      <point x="132" y="0" type="line"/>
      <point x="132" y="500" type="line"/>
      <point x="271" y="500" type="line"/>
      <point x="271" y="1" type="line"/>
      <point x="136" y="-169" type="line"/>
    </contour>
  </outline>
</glyph>
<glyph name="rra-tamil" format="2">
  <advance width="668"/>
  <unicode hex="0BB1"/>
  <note>
uni0BB1
</note>
  <anchor x="338" y="0" name="bottom"/>
  <anchor x="335" y="-199" name="nukta"/>
  <anchor x="323" y="554" name="top"/>
  <anchor x="348" y="554" name="vedic"/>
  <outline>
    <contour>
      <point x="151" y="-234" type="curve"/>
      <point x="151" y="-166"/>
      <point x="167" y="-124"/>
      <point x="241" y="-124" type="curve" smooth="yes"/>
      <point x="324" y="-124" type="line" smooth="yes"/>
      <point x="513" y="-124"/>
      <point x="620" y="-28"/>
      <point x="620" y="246" type="curve" smooth="yes"/>
      <point x="620" y="433"/>
      <point x="562" y="559"/>
      <point x="430" y="559" type="curve" smooth="yes"/>
      <point x="356" y="559"/>
      <point x="322" y="519"/>
      <point x="304" y="482" type="curve"/>
      <point x="289" y="518"/>
      <point x="259" y="558"/>
      <point x="194" y="558" type="curve" smooth="yes"/>
      <point x="129" y="558"/>
      <point x="79" y="511"/>
      <point x="79" y="420" type="curve" smooth="yes"/>
      <point x="79" y="0" type="line"/>
      <point x="134" y="0" type="line"/>
      <point x="134" y="419" type="line" smooth="yes"/>
      <point x="134" y="477"/>
      <point x="155" y="504"/>
      <point x="195" y="504" type="curve" smooth="yes"/>
      <point x="236" y="504"/>
      <point x="258" y="471"/>
      <point x="258" y="412" type="curve" smooth="yes"/>
      <point x="258" y="0" type="line"/>
      <point x="348" y="0" type="line"/>
      <point x="348" y="411" type="line" smooth="yes"/>
      <point x="348" y="466"/>
      <point x="379" y="505"/>
      <point x="421" y="505" type="curve" smooth="yes"/>
      <point x="492" y="505"/>
      <point x="527" y="440"/>
      <point x="527" y="251" type="curve" smooth="yes"/>
      <point x="527" y="6"/>
      <point x="450" y="-77"/>
      <point x="322" y="-77" type="curve" smooth="yes"/>
      <point x="207" y="-77" type="line" smooth="yes"/>
      <point x="137" y="-77"/>
      <point x="73" y="-95"/>
      <point x="73" y="-164" type="curve" smooth="yes"/>
      <point x="73" y="-213"/>
      <point x="105" y="-234"/>
    </contour>
  </outline>
</glyph>
<glyph name="la-tamil" format="2">
  <advance width="805"/>
  <unicode hex="0BB2"/>
  <note>
uni0BB2
</note>
  <anchor x="402" y="0" name="bottom"/>
  <anchor x="402" y="0" name="nukta"/>
  <anchor x="427" y="554" name="top"/>
  <anchor x="401" y="554" name="vedic"/>
  <outline>
    <contour>
      <point x="211" y="-5" type="curve" smooth="yes"/>
      <point x="300" y="-5"/>
      <point x="352" y="57"/>
      <point x="352" y="152" type="curve" smooth="yes"/>
      <point x="352" y="245"/>
      <point x="302" y="303"/>
      <point x="229" y="303" type="curve" smooth="yes"/>
      <point x="142" y="303"/>
      <point x="95" y="213"/>
      <point x="93" y="118" type="curve"/>
      <point x="121" y="92" type="line"/>
      <point x="120" y="170"/>
      <point x="154" y="236"/>
      <point x="203" y="236" type="curve" smooth="yes"/>
      <point x="249" y="236"/>
      <point x="267" y="190"/>
      <point x="267" y="146" type="curve" smooth="yes"/>
      <point x="267" y="91"/>
      <point x="248" y="49"/>
      <point x="196" y="49" type="curve" smooth="yes"/>
      <point x="136" y="49"/>
      <point x="97" y="116"/>
      <point x="97" y="250" type="curve" smooth="yes"/>
      <point x="97" y="410"/>
      <point x="162" y="505"/>
      <point x="280" y="505" type="curve" smooth="yes"/>
      <point x="385" y="505"/>
      <point x="433" y="433"/>
      <point x="433" y="320" type="curve" smooth="yes"/>
      <point x="433" y="163" type="line" smooth="yes"/>
      <point x="433" y="50"/>
      <point x="487" y="0"/>
      <point x="568" y="0" type="curve" smooth="yes"/>
      <point x="683" y="0"/>
      <point x="758" y="110"/>
      <point x="758" y="279" type="curve" smooth="yes"/>
      <point x="758" y="389"/>
      <point x="736" y="462"/>
      <point x="680" y="559" type="curve"/>
      <point x="633" y="532" type="line"/>
      <point x="680" y="451"/>
      <point x="705" y="374"/>
      <point x="705" y="289" type="curve" smooth="yes"/>
      <point x="705" y="147"/>
      <point x="656" y="59"/>
      <point x="586" y="59" type="curve" smooth="yes"/>
      <point x="543" y="59"/>
      <point x="523" y="89"/>
      <point x="523" y="162" type="curve" smooth="yes"/>
      <point x="523" y="321" type="line" smooth="yes"/>
      <point x="523" y="471"/>
      <point x="437" y="559"/>
      <point x="292" y="559" type="curve" smooth="yes"/>
      <point x="137" y="559"/>
      <point x="44" y="443"/>
      <point x="44" y="251" type="curve" smooth="yes"/>
      <point x="44" y="83"/>
      <point x="113" y="-5"/>
    </contour>
  </outline>
</glyph>
<glyph name="sha-tamil" format="2">
  <advance width="850"/>
  <unicode hex="0BB6"/>
  <note>
uni0BB6
</note>
  <anchor x="435" y="0" name="bottom"/>
  <anchor x="659" y="554" name="imatra"/>
  <anchor x="435" y="0" name="nukta"/>
  <anchor x="436" y="554" name="top"/>
  <anchor x="438" y="554" name="vedic"/>
  <outline>
    <contour>
      <point x="226" y="-5" type="curve" smooth="yes"/>
      <point x="321" y="-5"/>
      <point x="390" y="41"/>
      <point x="390" y="184" type="curve" smooth="yes"/>
      <point x="390" y="500" type="line"/>
      <point x="488" y="500" type="line"/>
      <point x="488" y="146" type="line" smooth="yes"/>
      <point x="488" y="50"/>
      <point x="528" y="-5"/>
      <point x="607" y="-5" type="curve" smooth="yes"/>
      <point x="733" y="-5"/>
      <point x="804" y="122"/>
      <point x="804" y="324" type="curve" smooth="yes"/>
      <point x="804" y="482"/>
      <point x="772" y="554"/>
      <point x="684" y="554" type="curve" smooth="yes"/>
      <point x="334" y="554" type="line"/>
      <point x="334" y="186" type="line" smooth="yes"/>
      <point x="334" y="73"/>
      <point x="292" y="54"/>
      <point x="245" y="54" type="curve" smooth="yes"/>
      <point x="198" y="54"/>
      <point x="164" y="80"/>
      <point x="164" y="172" type="curve" smooth="yes"/>
      <point x="164" y="554" type="line"/>
      <point x="73" y="554" type="line"/>
      <point x="73" y="172" type="line" smooth="yes"/>
      <point x="73" y="42"/>
      <point x="136" y="-5"/>
    </contour>
    <contour>
      <point x="635" y="54" type="curve" smooth="yes"/>
      <point x="597" y="54"/>
      <point x="578" y="78"/>
      <point x="578" y="147" type="curve" smooth="yes"/>
      <point x="578" y="500" type="line"/>
      <point x="674" y="500" type="line" smooth="yes"/>
      <point x="740" y="500"/>
      <point x="751" y="430"/>
      <point x="751" y="326" type="curve" smooth="yes"/>
      <point x="751" y="144"/>
      <point x="693" y="54"/>
    </contour>
  </outline>
</glyph>
<glyph name="ssa-tamil" format="2">
  <advance width="1089"/>
  <unicode hex="0BB7"/>
  <note>
uni0BB7
</note>
  <anchor x="565" y="0" name="bottom"/>
  <anchor x="483" y="0" name="nukta"/>
  <anchor x="573" y="554" name="top"/>
  <anchor x="574" y="554" name="vedic"/>
  <outline>
    <contour>
      <point x="211" y="-5" type="curve" smooth="yes"/>
      <point x="300" y="-5"/>
      <point x="352" y="57"/>
      <point x="352" y="152" type="curve" smooth="yes"/>
      <point x="352" y="245"/>
      <point x="302" y="303"/>
      <point x="229" y="303" type="curve" smooth="yes"/>
      <point x="142" y="303"/>
      <point x="95" y="213"/>
      <point x="93" y="118" type="curve"/>
      <point x="121" y="92" type="line"/>
      <point x="120" y="170"/>
      <point x="154" y="236"/>
      <point x="203" y="236" type="curve" smooth="yes"/>
      <point x="249" y="236"/>
      <point x="267" y="190"/>
      <point x="267" y="146" type="curve" smooth="yes"/>
      <point x="267" y="91"/>
      <point x="248" y="49"/>
      <point x="196" y="49" type="curve" smooth="yes"/>
      <point x="136" y="49"/>
      <point x="97" y="116"/>
      <point x="97" y="250" type="curve" smooth="yes"/>
      <point x="97" y="410"/>
      <point x="169" y="505"/>
      <point x="289" y="505" type="curve" smooth="yes"/>
      <point x="405" y="505"/>
      <point x="479" y="402"/>
      <point x="479" y="257" type="curve" smooth="yes"/>
      <point x="479" y="150"/>
      <point x="449" y="87"/>
      <point x="419" y="40" type="curve"/>
      <point x="433" y="0" type="line"/>
      <point x="1040" y="0" type="line"/>
      <point x="1040" y="320" type="line"/>
      <point x="949" y="269" type="line"/>
      <point x="949" y="54" type="line"/>
      <point x="491" y="54" type="line"/>
      <point x="530" y="104"/>
      <point x="565" y="167"/>
      <point x="565" y="266" type="curve" smooth="yes"/>
      <point x="565" y="443"/>
      <point x="460" y="559"/>
      <point x="303" y="559" type="curve" smooth="yes"/>
      <point x="147" y="559"/>
      <point x="44" y="441"/>
      <point x="44" y="251" type="curve" smooth="yes"/>
      <point x="44" y="83"/>
      <point x="113" y="-5"/>
    </contour>
    <contour>
      <point x="768" y="-254" type="line"/>
      <point x="857" y="-254" type="line"/>
      <point x="857" y="436" type="line" smooth="yes"/>
      <point x="857" y="516"/>
      <point x="813" y="559"/>
      <point x="748" y="559" type="curve" smooth="yes"/>
      <point x="674" y="559"/>
      <point x="628" y="503"/>
      <point x="628" y="415" type="curve" smooth="yes"/>
      <point x="628" y="282"/>
      <point x="699" y="220"/>
      <point x="804" y="220" type="curve" smooth="yes"/>
      <point x="892" y="220"/>
      <point x="961" y="250"/>
      <point x="1040" y="314" type="curve"/>
      <point x="1040" y="326" type="line"/>
      <point x="1011" y="354" type="line"/>
      <point x="948" y="301"/>
      <point x="881" y="272"/>
      <point x="810" y="272" type="curve" smooth="yes"/>
      <point x="726" y="272"/>
      <point x="679" y="307"/>
      <point x="679" y="414" type="curve" smooth="yes"/>
      <point x="679" y="466"/>
      <point x="694" y="499"/>
      <point x="727" y="499" type="curve" smooth="yes"/>
      <point x="751" y="499"/>
      <point x="768" y="481"/>
      <point x="768" y="445" type="curve" smooth="yes"/>
    </contour>
  </outline>
</glyph>
<glyph name="sa-tamil" format="2">
  <advance width="1055"/>
  <unicode hex="0BB8"/>
  <note>
uni0BB8
</note>
  <anchor x="530" y="0" name="bottom"/>
  <anchor x="530" y="0" name="nukta"/>
  <anchor x="520" y="554" name="top"/>
  <anchor x="529" y="554" name="vedic"/>
  <outline>
    <contour>
      <point x="462" y="0" type="line"/>
      <point x="552" y="0" type="line"/>
      <point x="552" y="418" type="line" smooth="yes"/>
      <point x="552" y="472"/>
      <point x="575" y="504"/>
      <point x="620" y="504" type="curve" smooth="yes"/>
      <point x="662" y="504"/>
      <point x="683" y="475"/>
      <point x="683" y="428" type="curve" smooth="yes"/>
      <point x="683" y="163" type="line" smooth="yes"/>
      <point x="683" y="50"/>
      <point x="736" y="0"/>
      <point x="818" y="0" type="curve" smooth="yes"/>
      <point x="933" y="0"/>
      <point x="1008" y="110"/>
      <point x="1008" y="279" type="curve" smooth="yes"/>
      <point x="1008" y="389"/>
      <point x="986" y="462"/>
      <point x="930" y="559" type="curve"/>
      <point x="883" y="532" type="line"/>
      <point x="929" y="451"/>
      <point x="955" y="374"/>
      <point x="955" y="289" type="curve" smooth="yes"/>
      <point x="955" y="147"/>
      <point x="906" y="59"/>
      <point x="835" y="59" type="curve" smooth="yes"/>
      <point x="792" y="59"/>
      <point x="772" y="89"/>
      <point x="772" y="162" type="curve" smooth="yes"/>
      <point x="772" y="413" type="line" smooth="yes"/>
      <point x="772" y="512"/>
      <point x="717" y="559"/>
      <point x="638" y="559" type="curve" smooth="yes"/>
      <point x="550" y="559"/>
      <point x="500" y="498"/>
      <point x="500" y="425" type="curve" smooth="yes"/>
      <point x="500" y="344" type="line"/>
      <point x="462" y="344" type="line"/>
    </contour>
    <contour>
      <point x="212" y="-5" type="curve" smooth="yes"/>
      <point x="301" y="-5"/>
      <point x="354" y="57"/>
      <point x="354" y="152" type="curve" smooth="yes"/>
      <point x="354" y="245"/>
      <point x="304" y="303"/>
      <point x="230" y="303" type="curve" smooth="yes"/>
      <point x="144" y="303"/>
      <point x="98" y="213"/>
      <point x="96" y="118" type="curve"/>
      <point x="124" y="92" type="line"/>
      <point x="124" y="170"/>
      <point x="156" y="236"/>
      <point x="204" y="236" type="curve" smooth="yes"/>
      <point x="250" y="236"/>
      <point x="268" y="190"/>
      <point x="268" y="146" type="curve" smooth="yes"/>
      <point x="268" y="91"/>
      <point x="250" y="49"/>
      <point x="198" y="49" type="curve" smooth="yes"/>
      <point x="137" y="49"/>
      <point x="100" y="116"/>
      <point x="100" y="250" type="curve" smooth="yes"/>
      <point x="100" y="401"/>
      <point x="167" y="505"/>
      <point x="292" y="505" type="curve" smooth="yes"/>
      <point x="379" y="505"/>
      <point x="462" y="450"/>
      <point x="462" y="303" type="curve"/>
      <point x="515" y="308" type="line"/>
      <point x="513" y="485"/>
      <point x="414" y="559"/>
      <point x="298" y="559" type="curve" smooth="yes"/>
      <point x="144" y="559"/>
      <point x="47" y="438"/>
      <point x="47" y="251" type="curve" smooth="yes"/>
      <point x="47" y="83"/>
      <point x="115" y="-5"/>
    </contour>
  </outline>
</glyph>
<glyph name="iMatra-tamil" format="2">
  <advance width="170"/>
  <unicode hex="0BBF"/>
  <note>
uni0BBF
</note>
  <outline>
    <contour>
      <point x="44" y="0" type="line"/>
      <point x="99" y="0" type="line"/>
      <point x="99" y="567" type="line" smooth="yes"/>
      <point x="99" y="733"/>
      <point x="15" y="815"/>
      <point x="-108" y="815" type="curve" smooth="yes"/>
      <point x="-214" y="815"/>
      <point x="-278" y="741"/>
      <point x="-278" y="643" type="curve" smooth="yes"/>
      <point x="-278" y="554"/>
      <point x="-232" y="500"/>
      <point x="-150" y="500" type="curve" smooth="yes"/>
      <point x="-145" y="500" type="line"/>
      <point x="-145" y="554" type="line"/>
      <point x="-150" y="554" type="line" smooth="yes"/>
      <point x="-190" y="554"/>
      <point x="-219" y="580"/>
      <point x="-219" y="629" type="curve" smooth="yes"/>
      <point x="-219" y="691"/>
      <point x="-173" y="728"/>
      <point x="-111" y="728" type="curve" smooth="yes"/>
      <point x="-18" y="728"/>
      <point x="44" y="675"/>
      <point x="44" y="537" type="curve" smooth="yes"/>
    </contour>
  </outline>
</glyph>
<glyph name="iiMatra-tamil" format="2">
  <unicode hex="0BC0"/>
  <note>
uni0BC0
</note>
  <anchor x="0" y="554" name="_imatra"/>
  <anchor x="-2" y="882" name="top"/>
  <outline>
    <contour>
      <point x="-23" y="505" type="curve" smooth="yes"/>
      <point x="0" y="505" type="line"/>
      <point x="0" y="554" type="line"/>
      <point x="-20" y="554" type="line" smooth="yes"/>
      <point x="-83" y="554"/>
      <point x="-118" y="604"/>
      <point x="-118" y="684" type="curve" smooth="yes"/>
      <point x="-118" y="770"/>
      <point x="-88" y="828"/>
      <point x="-7" y="828" type="curve" smooth="yes"/>
      <point x="48" y="828"/>
      <point x="81" y="792"/>
      <point x="81" y="730" type="curve" smooth="yes"/>
      <point x="81" y="683"/>
      <point x="60" y="656"/>
      <point x="27" y="656" type="curve" smooth="yes"/>
      <point x="-34" y="656"/>
      <point x="-44" y="756"/>
      <point x="-8" y="851" type="curve"/>
      <point x="-50" y="855" type="line"/>
      <point x="-105" y="729"/>
      <point x="-70" y="602"/>
      <point x="37" y="602" type="curve" smooth="yes"/>
      <point x="111" y="602"/>
      <point x="156" y="661"/>
      <point x="156" y="728" type="curve" smooth="yes"/>
      <point x="156" y="824"/>
      <point x="96" y="882"/>
      <point x="-2" y="882" type="curve" smooth="yes"/>
      <point x="-109" y="882"/>
      <point x="-172" y="803"/>
      <point x="-172" y="685" type="curve" smooth="yes"/>
      <point x="-172" y="576"/>
      <point x="-115" y="505"/>
    </contour>
  </outline>
</glyph>
<glyph name="uMatra-tamil" format="2">
  <advance width="412"/>
  <unicode hex="0BC1"/>
  <note>
uni0BC1
</note>
  <outline>
    <contour>
      <point x="247" y="214" type="curve" smooth="yes"/>
      <point x="322" y="214"/>
      <point x="390" y="261"/>
      <point x="390" y="368" type="curve" smooth="yes"/>
      <point x="390" y="554" type="line"/>
      <point x="-192" y="554" type="line"/>
      <point x="-155" y="500" type="line"/>
      <point x="301" y="500" type="line"/>
      <point x="301" y="361" type="line" smooth="yes"/>
      <point x="301" y="303"/>
      <point x="276" y="271"/>
      <point x="233" y="271" type="curve" smooth="yes"/>
      <point x="187" y="271"/>
      <point x="168" y="300"/>
      <point x="168" y="371" type="curve" smooth="yes"/>
      <point x="168" y="523" type="line"/>
      <point x="113" y="523" type="line"/>
      <point x="113" y="374" type="line" smooth="yes"/>
      <point x="113" y="264"/>
      <point x="167" y="214"/>
    </contour>
  </outline>
</glyph>
<glyph name="uuMatra-tamil" format="2">
  <advance width="667"/>
  <unicode hex="0BC2"/>
  <note>
uni0BC2
</note>
  <outline>
    <contour>
      <point x="283" y="0" type="curve" smooth="yes"/>
      <point x="499" y="0"/>
      <point x="621" y="169"/>
      <point x="621" y="411" type="curve" smooth="yes"/>
      <point x="621" y="620"/>
      <point x="518" y="780"/>
      <point x="338" y="780" type="curve" smooth="yes"/>
      <point x="173" y="780"/>
      <point x="113" y="649"/>
      <point x="113" y="526" type="curve" smooth="yes"/>
      <point x="113" y="374" type="line" smooth="yes"/>
      <point x="113" y="264"/>
      <point x="167" y="214"/>
      <point x="247" y="214" type="curve" smooth="yes"/>
      <point x="322" y="214"/>
      <point x="390" y="261"/>
      <point x="390" y="368" type="curve" smooth="yes"/>
      <point x="390" y="554" type="line"/>
      <point x="-192" y="554" type="line"/>
      <point x="-155" y="500" type="line"/>
      <point x="301" y="500" type="line"/>
      <point x="301" y="361" type="line" smooth="yes"/>
      <point x="301" y="303"/>
      <point x="275" y="271"/>
      <point x="233" y="271" type="curve" smooth="yes"/>
      <point x="187" y="271"/>
      <point x="168" y="300"/>
      <point x="168" y="371" type="curve" smooth="yes"/>
      <point x="168" y="526" type="line" smooth="yes"/>
      <point x="168" y="631"/>
      <point x="215" y="727"/>
      <point x="325" y="727" type="curve" smooth="yes"/>
      <point x="480" y="727"/>
      <point x="530" y="570"/>
      <point x="530" y="425" type="curve" smooth="yes"/>
      <point x="530" y="208"/>
      <point x="448" y="54"/>
      <point x="282" y="54" type="curve" smooth="yes"/>
      <point x="185" y="54"/>
      <point x="125" y="90"/>
      <point x="66" y="182" type="curve"/>
      <point x="22" y="150" type="line"/>
      <point x="85" y="56"/>
      <point x="158" y="0"/>
    </contour>
  </outline>
</glyph>
<glyph name="eMatra-tamil" format="2">
  <advance width="649"/>
  <unicode hex="0BC6"/>
  <note>
uni0BC6
</note>
  <outline>
    <contour>
      <point x="255" y="-5" type="curve" smooth="yes"/>
      <point x="344" y="-5"/>
      <point x="396" y="57"/>
      <point x="396" y="155" type="curve" smooth="yes"/>
      <point x="396" y="250"/>
      <point x="346" y="308"/>
      <point x="272" y="308" type="curve" smooth="yes"/>
      <point x="186" y="308"/>
      <point x="135" y="214"/>
      <point x="133" y="116" type="curve"/>
      <point x="164" y="90" type="line"/>
      <point x="164" y="171"/>
      <point x="198" y="241"/>
      <point x="247" y="241" type="curve" smooth="yes"/>
      <point x="292" y="241"/>
      <point x="311" y="195"/>
      <point x="311" y="148" type="curve" smooth="yes"/>
      <point x="311" y="91"/>
      <point x="292" y="49"/>
      <point x="240" y="49" type="curve" smooth="yes"/>
      <point x="153" y="49"/>
      <point x="102" y="194"/>
      <point x="102" y="385" type="curve" smooth="yes"/>
      <point x="102" y="598"/>
      <point x="192" y="725"/>
      <point x="336" y="725" type="curve" smooth="yes"/>
      <point x="461" y="725"/>
      <point x="523" y="648"/>
      <point x="523" y="459" type="curve" smooth="yes"/>
      <point x="523" y="0" type="line"/>
      <point x="578" y="0" type="line"/>
      <point x="578" y="476" type="line" smooth="yes"/>
      <point x="578" y="712"/>
      <point x="493" y="815"/>
      <point x="339" y="815" type="curve" smooth="yes"/>
      <point x="160" y="815"/>
      <point x="49" y="639"/>
      <point x="49" y="388" type="curve" smooth="yes"/>
      <point x="49" y="172"/>
      <point x="122" y="-5"/>
    </contour>
  </outline>
</glyph>
<glyph name="eeMatra-tamil" format="2">
  <advance width="492"/>
  <unicode hex="0BC7"/>
  <note>
uni0BC7
</note>
  <outline>
    <contour>
      <point x="293" y="-5" type="curve" smooth="yes"/>
      <point x="382" y="-5"/>
      <point x="445" y="50"/>
      <point x="445" y="155" type="curve" smooth="yes"/>
      <point x="445" y="250"/>
      <point x="395" y="308"/>
      <point x="321" y="308" type="curve" smooth="yes"/>
      <point x="232" y="308"/>
      <point x="186" y="208"/>
      <point x="182" y="95" type="curve"/>
      <point x="218" y="69" type="line"/>
      <point x="219" y="164"/>
      <point x="247" y="241"/>
      <point x="295" y="241" type="curve" smooth="yes"/>
      <point x="341" y="241"/>
      <point x="359" y="195"/>
      <point x="359" y="148" type="curve" smooth="yes"/>
      <point x="359" y="84"/>
      <point x="329" y="49"/>
      <point x="277" y="49" type="curve" smooth="yes"/>
      <point x="194" y="49"/>
      <point x="102" y="212"/>
      <point x="102" y="404" type="curve" smooth="yes"/>
      <point x="102" y="595"/>
      <point x="194" y="762"/>
      <point x="277" y="762" type="curve" smooth="yes"/>
      <point x="329" y="762"/>
      <point x="359" y="726"/>
      <point x="359" y="662" type="curve" smooth="yes"/>
      <point x="359" y="615"/>
      <point x="341" y="570"/>
      <point x="295" y="570" type="curve" smooth="yes"/>
      <point x="247" y="570"/>
      <point x="219" y="646"/>
      <point x="218" y="742" type="curve"/>
      <point x="182" y="716" type="line"/>
      <point x="186" y="603"/>
      <point x="232" y="502"/>
      <point x="321" y="502" type="curve" smooth="yes"/>
      <point x="395" y="502"/>
      <point x="445" y="561"/>
      <point x="445" y="656" type="curve" smooth="yes"/>
      <point x="445" y="760"/>
      <point x="382" y="815"/>
      <point x="293" y="815" type="curve" smooth="yes"/>
      <point x="155" y="815"/>
      <point x="49" y="622"/>
      <point x="49" y="406" type="curve" smooth="yes"/>
      <point x="49" y="190"/>
      <point x="155" y="-5"/>
    </contour>
  </outline>
</glyph>
<glyph name="aiMatra-tamil" format="2">
  <advance width="985"/>
  <unicode hex="0BC8"/>
  <note>
uni0BC8
</note>
  <outline>
    <contour>
      <point x="802" y="-8" type="line"/>
      <point x="888" y="58"/>
      <point x="941" y="135"/>
      <point x="941" y="271" type="curve" smooth="yes"/>
      <point x="941" y="441"/>
      <point x="846" y="559"/>
      <point x="678" y="559" type="curve" smooth="yes"/>
      <point x="493" y="559"/>
      <point x="403" y="380"/>
      <point x="403" y="186" type="curve" smooth="yes"/>
      <point x="403" y="60"/>
      <point x="448" y="-5"/>
      <point x="533" y="-5" type="curve" smooth="yes"/>
      <point x="618" y="-5"/>
      <point x="677" y="61"/>
      <point x="677" y="184" type="curve" smooth="yes"/>
      <point x="677" y="401"/>
      <point x="544" y="559"/>
      <point x="333" y="559" type="curve" smooth="yes"/>
      <point x="174" y="559"/>
      <point x="44" y="455"/>
      <point x="44" y="251" type="curve" smooth="yes"/>
      <point x="44" y="83"/>
      <point x="112" y="-5"/>
      <point x="209" y="-5" type="curve" smooth="yes"/>
      <point x="298" y="-5"/>
      <point x="351" y="57"/>
      <point x="351" y="152" type="curve" smooth="yes"/>
      <point x="351" y="245"/>
      <point x="301" y="303"/>
      <point x="227" y="303" type="curve" smooth="yes"/>
      <point x="141" y="303"/>
      <point x="95" y="213"/>
      <point x="93" y="118" type="curve"/>
      <point x="121" y="92" type="line"/>
      <point x="121" y="170"/>
      <point x="153" y="236"/>
      <point x="201" y="236" type="curve" smooth="yes"/>
      <point x="247" y="236"/>
      <point x="265" y="190"/>
      <point x="265" y="146" type="curve" smooth="yes"/>
      <point x="265" y="91"/>
      <point x="247" y="49"/>
      <point x="195" y="49" type="curve" smooth="yes"/>
      <point x="134" y="49"/>
      <point x="97" y="116"/>
      <point x="97" y="250" type="curve" smooth="yes"/>
      <point x="97" y="418"/>
      <point x="197" y="505"/>
      <point x="328" y="505" type="curve" smooth="yes"/>
      <point x="478" y="505"/>
      <point x="587" y="389"/>
      <point x="587" y="184" type="curve" smooth="yes"/>
      <point x="587" y="93"/>
      <point x="563" y="49"/>
      <point x="521" y="49" type="curve" smooth="yes"/>
      <point x="482" y="49"/>
      <point x="457" y="91"/>
      <point x="457" y="182" type="curve" smooth="yes"/>
      <point x="457" y="343"/>
      <point x="517" y="505"/>
      <point x="672" y="505" type="curve" smooth="yes"/>
      <point x="783" y="505"/>
      <point x="853" y="419"/>
      <point x="853" y="262" type="curve" smooth="yes"/>
      <point x="853" y="167"/>
      <point x="831" y="100"/>
      <point x="774" y="27" type="curve"/>
    </contour>
  </outline>
</glyph>
<glyph name="halant-tamil" format="2">
  <unicode hex="0BCD"/>
  <note>
uni0BCD
</note>
  <anchor x="0" y="554" name="_top"/>
  <anchor x="0" y="679" name="top"/>
  <outline>
    <contour>
      <point x="0" y="625" type="curve" smooth="yes"/>
      <point x="31" y="625"/>
      <point x="56" y="650"/>
      <point x="56" y="679" type="curve" smooth="yes"/>
      <point x="56" y="708"/>
      <point x="31" y="734"/>
      <point x="0" y="734" type="curve" smooth="yes"/>
      <point x="-31" y="734"/>
      <point x="-56" y="708"/>
      <point x="-56" y="679" type="curve" smooth="yes"/>
      <point x="-56" y="650"/>
      <point x="-31" y="625"/>
    </contour>
  </outline>
</glyph>
<glyph name="om-tamil" format="2">
  <advance width="759"/>
  <unicode hex="0BD0"/>
  <note>
uni0BD0
</note>
  <outline>
    <contour>
      <point x="265" y="-345" type="curve" smooth="yes"/>
      <point x="465" y="-345"/>
      <point x="465" y="-135"/>
      <point x="608" y="-135" type="curve" smooth="yes"/>
      <point x="640" y="-135" type="line"/>
      <point x="640" y="-81" type="line"/>
      <point x="598" y="-81" type="line" smooth="yes"/>
      <point x="507" y="-81"/>
      <point x="433" y="-22"/>
      <point x="433" y="75" type="curve" smooth="yes"/>
      <point x="433" y="108"/>
      <point x="442" y="146"/>
      <point x="461" y="187" type="curve"/>
      <point x="467" y="184" type="line"/>
      <point x="462" y="159"/>
      <point x="460" y="136"/>
      <point x="460" y="115" type="curve" smooth="yes"/>
      <point x="460" y="43"/>
      <point x="490" y="-5"/>
      <point x="570" y="-5" type="curve" smooth="yes"/>
      <point x="652" y="-5"/>
      <point x="715" y="69"/>
      <point x="715" y="193" type="curve" smooth="yes"/>
      <point x="715" y="422"/>
      <point x="566" y="559"/>
      <point x="362" y="559" type="curve" smooth="yes"/>
      <point x="186" y="559"/>
      <point x="44" y="422"/>
      <point x="44" y="246" type="curve" smooth="yes"/>
      <point x="44" y="79"/>
      <point x="113" y="5"/>
      <point x="211" y="5" type="curve" smooth="yes"/>
      <point x="300" y="5"/>
      <point x="352" y="67"/>
      <point x="352" y="162" type="curve" smooth="yes"/>
      <point x="352" y="255"/>
      <point x="302" y="313"/>
      <point x="229" y="313" type="curve" smooth="yes"/>
      <point x="142" y="313"/>
      <point x="95" y="213"/>
      <point x="93" y="118" type="curve"/>
      <point x="121" y="92" type="line"/>
      <point x="120" y="170"/>
      <point x="154" y="246"/>
      <point x="203" y="246" type="curve" smooth="yes"/>
      <point x="249" y="246"/>
      <point x="267" y="200"/>
      <point x="267" y="156" type="curve" smooth="yes"/>
      <point x="267" y="101"/>
      <point x="248" y="59"/>
      <point x="196" y="59" type="curve" smooth="yes"/>
      <point x="136" y="59"/>
      <point x="97" y="111"/>
      <point x="97" y="245" type="curve" smooth="yes"/>
      <point x="97" y="401"/>
      <point x="222" y="505"/>
      <point x="361" y="505" type="curve" smooth="yes"/>
      <point x="520" y="505"/>
      <point x="627" y="394"/>
      <point x="627" y="203" type="curve" smooth="yes"/>
      <point x="627" y="110"/>
      <point x="598" y="49"/>
      <point x="551" y="49" type="curve" smooth="yes"/>
      <point x="515" y="49"/>
      <point x="501" y="79"/>
      <point x="501" y="124" type="curve" smooth="yes"/>
      <point x="501" y="159"/>
      <point x="510" y="204"/>
      <point x="525" y="251" type="curve"/>
      <point x="461" y="278" type="line"/>
      <point x="410" y="194"/>
      <point x="390" y="125"/>
      <point x="390" y="69" type="curve" smooth="yes"/>
      <point x="390" y="-25"/>
      <point x="447" y="-79"/>
      <point x="506" y="-104" type="curve"/>
      <point x="506" y="-109" type="line"/>
      <point x="405" y="-130"/>
      <point x="411" y="-285"/>
      <point x="248" y="-285" type="curve" smooth="yes"/>
      <point x="182" y="-285"/>
      <point x="133" y="-254"/>
      <point x="133" y="-188" type="curve" smooth="yes"/>
      <point x="133" y="-180"/>
      <point x="134" y="-172"/>
      <point x="135" y="-164" type="curve"/>
      <point x="85" y="-155" type="line"/>
      <point x="83" y="-167"/>
      <point x="82" y="-179"/>
      <point x="82" y="-191" type="curve" smooth="yes"/>
      <point x="82" y="-285"/>
      <point x="156.994" y="-345"/>
    </contour>
    <contour>
      <point x="173" y="-222" type="line"/>
      <point x="212" y="-222" type="line"/>
      <point x="212" y="-70" type="line"/>
      <point x="173" y="-70" type="line"/>
    </contour>
    <contour>
      <point x="186" y="-222" type="line"/>
      <point x="336" y="-222" type="line"/>
      <point x="336" y="-184" type="line"/>
      <point x="186" y="-184" type="line"/>
    </contour>
    <contour>
      <point x="243" y="-222" type="line"/>
      <point x="280" y="-222" type="line"/>
      <point x="280" y="-128" type="line" smooth="yes"/>
      <point x="280" y="-115"/>
      <point x="285" y="-106"/>
      <point x="297" y="-106" type="curve" smooth="yes"/>
      <point x="308" y="-106"/>
      <point x="313" y="-115"/>
      <point x="313" y="-128" type="curve" smooth="yes"/>
      <point x="313" y="-222" type="line"/>
      <point x="354" y="-222" type="line"/>
      <point x="354" y="-131" type="line" smooth="yes"/>
      <point x="354" y="-85"/>
      <point x="328" y="-67"/>
      <point x="297" y="-67" type="curve" smooth="yes"/>
      <point x="267" y="-67"/>
      <point x="243" y="-85"/>
      <point x="243" y="-131" type="curve" smooth="yes"/>
    </contour>
    <contour>
      <point x="259" y="-61" type="curve" smooth="yes"/>
      <point x="275" y="-61"/>
      <point x="288" y="-48"/>
      <point x="288" y="-33" type="curve" smooth="yes"/>
      <point x="288" y="-18"/>
      <point x="275" y="-5"/>
      <point x="259" y="-5" type="curve" smooth="yes"/>
      <point x="243" y="-5"/>
      <point x="230" y="-18"/>
      <point x="230" y="-33" type="curve" smooth="yes"/>
      <point x="230" y="-48"/>
      <point x="243" y="-61"/>
    </contour>
  </outline>
</glyph>
<glyph name="one-tamil" format="2">
  <advance width="647"/>
  <unicode hex="0BE7"/>
  <note>
uni0BE7
</note>
  <outline>
    <contour>
      <point x="212" y="-4" type="curve" smooth="yes"/>
      <point x="333" y="-4"/>
      <point x="394" y="67"/>
      <point x="394" y="200" type="curve" smooth="yes"/>
      <point x="394" y="263" type="line"/>
      <point x="421" y="263" type="line" smooth="yes"/>
      <point x="476" y="263"/>
      <point x="512" y="229"/>
      <point x="512" y="154" type="curve" smooth="yes"/>
      <point x="512" y="84"/>
      <point x="479" y="51"/>
      <point x="438" y="51" type="curve" smooth="yes"/>
      <point x="403" y="51"/>
      <point x="380" y="69"/>
      <point x="355" y="105" type="curve"/>
      <point x="327" y="57" type="line"/>
      <point x="362" y="13"/>
      <point x="396" y="-5"/>
      <point x="451" y="-5" type="curve" smooth="yes"/>
      <point x="530" y="-5"/>
      <point x="600" y="45"/>
      <point x="600" y="151" type="curve" smooth="yes"/>
      <point x="600" y="259"/>
      <point x="531" y="317"/>
      <point x="420" y="317" type="curve" smooth="yes"/>
      <point x="394" y="317" type="line"/>
      <point x="394" y="500" type="line"/>
      <point x="514" y="500" type="line"/>
      <point x="514" y="554" type="line"/>
      <point x="147" y="554" type="line"/>
      <point x="147" y="286" type="line"/>
      <point x="202" y="286" type="line"/>
      <point x="202" y="500" type="line"/>
      <point x="304" y="500" type="line"/>
      <point x="304" y="317" type="line"/>
      <point x="184" y="317" type="line" smooth="yes"/>
      <point x="102" y="317"/>
      <point x="47" y="256"/>
      <point x="47" y="162" type="curve" smooth="yes"/>
      <point x="47" y="63"/>
      <point x="104" y="-4"/>
    </contour>
    <contour>
      <point x="203" y="49" type="curve" smooth="yes"/>
      <point x="140" y="49"/>
      <point x="105" y="88"/>
      <point x="105" y="160" type="curve" smooth="yes"/>
      <point x="105" y="223"/>
      <point x="130" y="263"/>
      <point x="191" y="263" type="curve" smooth="yes"/>
      <point x="304" y="263" type="line"/>
      <point x="304" y="189" type="line" smooth="yes"/>
      <point x="304" y="86"/>
      <point x="258" y="49"/>
    </contour>
  </outline>
</glyph>
<glyph name="two-tamil" format="2">
  <advance width="710"/>
  <unicode hex="0BE8"/>
  <note>
uni0BE8
</note>
  <outline>
    <contour>
      <point x="135" y="0" type="curve" smooth="yes"/>
      <point x="689" y="0" type="line"/>
      <point x="689" y="54" type="line"/>
      <point x="138" y="54" type="line" smooth="yes"/>
      <point x="119" y="54"/>
      <point x="100" y="69"/>
      <point x="100" y="94" type="curve" smooth="yes"/>
      <point x="100" y="120"/>
      <point x="119" y="135"/>
      <point x="138" y="135" type="curve" smooth="yes"/>
      <point x="296" y="135" type="line" smooth="yes"/>
      <point x="407" y="135"/>
      <point x="498" y="208"/>
      <point x="498" y="340" type="curve" smooth="yes"/>
      <point x="498" y="487"/>
      <point x="404" y="559"/>
      <point x="283" y="559" type="curve" smooth="yes"/>
      <point x="174" y="559"/>
      <point x="87" y="490"/>
      <point x="87" y="347" type="curve" smooth="yes"/>
      <point x="87" y="208"/>
      <point x="180" y="149"/>
      <point x="277" y="149" type="curve"/>
      <point x="277" y="188" type="line"/>
      <point x="188" y="188"/>
      <point x="146" y="247"/>
      <point x="146" y="347" type="curve" smooth="yes"/>
      <point x="146" y="450"/>
      <point x="195" y="505"/>
      <point x="277" y="505" type="curve" smooth="yes"/>
      <point x="357" y="505"/>
      <point x="409" y="451"/>
      <point x="409" y="347" type="curve" smooth="yes"/>
      <point x="409" y="243"/>
      <point x="360" y="188"/>
      <point x="277" y="188" type="curve" smooth="yes"/>
      <point x="135" y="188" type="line" smooth="yes"/>
      <point x="89" y="188"/>
      <point x="48" y="154"/>
      <point x="48" y="94" type="curve" smooth="yes"/>
      <point x="48" y="35"/>
      <point x="89" y="0"/>
    </contour>
  </outline>
</glyph>
<glyph name="three-tamil" format="2">
  <advance width="673"/>
  <unicode hex="0BE9"/>
  <note>
uni0BE9
</note>
  <outline>
    <contour>
      <point x="75" y="0" type="line"/>
      <point x="130" y="0" type="line"/>
      <point x="130" y="500" type="line"/>
      <point x="236" y="500" type="line"/>
      <point x="236" y="196" type="line"/>
      <point x="322" y="196" type="line"/>
      <point x="322" y="240" type="line" smooth="yes"/>
      <point x="322" y="285"/>
      <point x="345" y="313"/>
      <point x="375" y="313" type="curve" smooth="yes"/>
      <point x="410" y="313"/>
      <point x="434" y="282"/>
      <point x="434" y="210" type="curve" smooth="yes"/>
      <point x="434" y="98"/>
      <point x="376" y="54"/>
      <point x="320" y="54" type="curve" smooth="yes"/>
      <point x="236" y="54" type="line"/>
      <point x="236" y="0" type="line"/>
      <point x="651" y="0" type="line"/>
      <point x="651" y="54" type="line"/>
      <point x="419" y="54" type="line"/>
      <point x="462" y="74"/>
      <point x="520" y="128"/>
      <point x="520" y="226" type="curve" smooth="yes"/>
      <point x="520" y="319"/>
      <point x="479" y="379"/>
      <point x="411" y="379" type="curve" smooth="yes"/>
      <point x="361" y="379"/>
      <point x="334" y="348"/>
      <point x="324" y="324" type="curve"/>
      <point x="324" y="500" type="line"/>
      <point x="443" y="500" type="line"/>
      <point x="443" y="554" type="line"/>
      <point x="75" y="554" type="line"/>
    </contour>
  </outline>
</glyph>
<glyph name="four-tamil" format="2">
  <advance width="672"/>
  <unicode hex="0BEA"/>
  <note>
uni0BEA
</note>
  <outline>
    <contour>
      <point x="212" y="-4" type="curve" smooth="yes"/>
      <point x="333" y="-4"/>
      <point x="394" y="67"/>
      <point x="394" y="200" type="curve" smooth="yes"/>
      <point x="394" y="263" type="line"/>
      <point x="634" y="263" type="line"/>
      <point x="634" y="554" type="line"/>
      <point x="579" y="554" type="line"/>
      <point x="579" y="317" type="line"/>
      <point x="394" y="317" type="line"/>
      <point x="394" y="500" type="line"/>
      <point x="514" y="500" type="line"/>
      <point x="514" y="554" type="line"/>
      <point x="147" y="554" type="line"/>
      <point x="147" y="286" type="line"/>
      <point x="202" y="286" type="line"/>
      <point x="202" y="500" type="line"/>
      <point x="304" y="500" type="line"/>
      <point x="304" y="317" type="line"/>
      <point x="184" y="317" type="line" smooth="yes"/>
      <point x="102" y="317"/>
      <point x="47" y="256"/>
      <point x="47" y="162" type="curve" smooth="yes"/>
      <point x="47" y="63"/>
      <point x="104" y="-4"/>
    </contour>
    <contour>
      <point x="203" y="49" type="curve" smooth="yes"/>
      <point x="140" y="49"/>
      <point x="105" y="88"/>
      <point x="105" y="160" type="curve" smooth="yes"/>
      <point x="105" y="223"/>
      <point x="130" y="263"/>
      <point x="191" y="263" type="curve" smooth="yes"/>
      <point x="304" y="263" type="line"/>
      <point x="304" y="189" type="line" smooth="yes"/>
      <point x="304" y="86"/>
      <point x="258" y="49"/>
    </contour>
  </outline>
</glyph>
<glyph name="five-tamil" format="2">
  <advance width="847"/>
  <unicode hex="0BEB"/>
  <note>
uni0BEB
</note>
  <outline>
    <contour>
      <point x="415" y="-296" type="curve" smooth="yes"/>
      <point x="633" y="-296"/>
      <point x="747" y="-119"/>
      <point x="747" y="112" type="curve" smooth="yes"/>
      <point x="747" y="245"/>
      <point x="697" y="345"/>
      <point x="605" y="345" type="curve" smooth="yes"/>
      <point x="535" y="345"/>
      <point x="493" y="284"/>
      <point x="493" y="197" type="curve" smooth="yes"/>
      <point x="493" y="138" type="line"/>
      <point x="521" y="138" type="line"/>
      <point x="521" y="198" type="line" smooth="yes"/>
      <point x="521" y="243"/>
      <point x="544" y="284"/>
      <point x="581" y="284" type="curve" smooth="yes"/>
      <point x="636" y="284"/>
      <point x="655" y="202"/>
      <point x="655" y="102" type="curve" smooth="yes"/>
      <point x="655" y="-102"/>
      <point x="587" y="-243"/>
      <point x="405" y="-243" type="curve" smooth="yes"/>
      <point x="196" y="-243"/>
      <point x="105" y="-12"/>
      <point x="105" y="264" type="curve" smooth="yes"/>
      <point x="105" y="549"/>
      <point x="213" y="739"/>
      <point x="434" y="739" type="curve" smooth="yes"/>
      <point x="612" y="739"/>
      <point x="718" y="621"/>
      <point x="734" y="396" type="curve"/>
      <point x="792" y="396" type="line"/>
      <point x="771" y="674"/>
      <point x="637" y="829"/>
      <point x="431" y="829" type="curve" smooth="yes"/>
      <point x="181" y="829"/>
      <point x="51" y="584"/>
      <point x="51" y="264" type="curve" smooth="yes"/>
      <point x="51" y="-38"/>
      <point x="170" y="-296"/>
    </contour>
    <contour>
      <point x="259" y="0" type="line"/>
      <point x="314" y="0" type="line"/>
      <point x="314" y="500" type="line"/>
      <point x="431" y="500" type="line"/>
      <point x="431" y="0" type="line"/>
      <point x="521" y="0" type="line"/>
      <point x="521" y="500" type="line"/>
      <point x="641" y="500" type="line"/>
      <point x="641" y="554" type="line"/>
      <point x="259" y="554" type="line"/>
    </contour>
  </outline>
</glyph>
<glyph name="six-tamil" format="2">
  <advance width="864"/>
  <unicode hex="0BEC"/>
  <note>
uni0BEC
</note>
  <outline>
    <contour>
      <point x="212" y="-4" type="curve" smooth="yes"/>
      <point x="338" y="-4"/>
      <point x="394" y="67"/>
      <point x="394" y="200" type="curve" smooth="yes"/>
      <point x="394" y="263" type="line"/>
      <point x="454" y="263" type="line" smooth="yes"/>
      <point x="479" y="263"/>
      <point x="493" y="246"/>
      <point x="493" y="214" type="curve" smooth="yes"/>
      <point x="493" y="0" type="line"/>
      <point x="577" y="0" type="line"/>
      <point x="577" y="214" type="line" smooth="yes"/>
      <point x="577" y="246"/>
      <point x="591" y="263"/>
      <point x="616" y="263" type="curve" smooth="yes"/>
      <point x="820" y="263" type="line"/>
      <point x="820" y="317" type="line"/>
      <point x="607" y="317" type="line" smooth="yes"/>
      <point x="570" y="317"/>
      <point x="541" y="299"/>
      <point x="535" y="264" type="curve"/>
      <point x="529" y="299"/>
      <point x="500" y="317"/>
      <point x="462" y="317" type="curve" smooth="yes"/>
      <point x="394" y="317" type="line"/>
      <point x="394" y="500" type="line"/>
      <point x="514" y="500" type="line"/>
      <point x="514" y="554" type="line"/>
      <point x="147" y="554" type="line"/>
      <point x="147" y="286" type="line"/>
      <point x="202" y="286" type="line"/>
      <point x="202" y="500" type="line"/>
      <point x="304" y="500" type="line"/>
      <point x="304" y="317" type="line"/>
      <point x="184" y="317" type="line" smooth="yes"/>
      <point x="102" y="317"/>
      <point x="47" y="256"/>
      <point x="47" y="162" type="curve" smooth="yes"/>
      <point x="47" y="63"/>
      <point x="104" y="-4"/>
    </contour>
    <contour>
      <point x="203" y="49" type="curve" smooth="yes"/>
      <point x="140" y="49"/>
      <point x="105" y="88"/>
      <point x="105" y="160" type="curve" smooth="yes"/>
      <point x="105" y="223"/>
      <point x="130" y="263"/>
      <point x="191" y="263" type="curve" smooth="yes"/>
      <point x="304" y="263" type="line"/>
      <point x="304" y="189" type="line" smooth="yes"/>
      <point x="304" y="86"/>
      <point x="263" y="49"/>
    </contour>
    <contour>
      <point x="672" y="0" type="line"/>
      <point x="757" y="0" type="line"/>
      <point x="757" y="288" type="line"/>
      <point x="672" y="288" type="line"/>
    </contour>
  </outline>
</glyph>
<glyph name="eight-tamil" format="2">
  <advance width="980"/>
  <unicode hex="0BEE"/>
  <note>
uni0BEE
</note>
  <outline>
    <contour>
      <point x="815" y="-184" type="line"/>
      <point x="904" y="-184" type="line"/>
      <point x="904" y="554" type="line"/>
      <point x="815" y="554" type="line"/>
      <point x="815" y="171" type="line"/>
      <point x="100" y="171" type="line" smooth="yes"/>
      <point x="56" y="171"/>
      <point x="34" y="143"/>
      <point x="34" y="99" type="curve" smooth="yes"/>
      <point x="34" y="4"/>
      <point x="153" y="-122"/>
      <point x="338" y="-122" type="curve" smooth="yes"/>
      <point x="566" y="-122"/>
      <point x="712" y="13"/>
      <point x="712" y="256" type="curve" smooth="yes"/>
      <point x="712" y="445"/>
      <point x="620" y="559"/>
      <point x="479" y="559" type="curve" smooth="yes"/>
      <point x="357" y="559"/>
      <point x="286" y="462"/>
      <point x="286" y="324" type="curve" smooth="yes"/>
      <point x="286" y="256"/>
      <point x="304" y="195"/>
      <point x="342" y="138" type="curve"/>
      <point x="398" y="138" type="line"/>
      <point x="355" y="196"/>
      <point x="336" y="252"/>
      <point x="336" y="314" type="curve" smooth="yes"/>
      <point x="336" y="432"/>
      <point x="383" y="505"/>
      <point x="467" y="505" type="curve" smooth="yes"/>
      <point x="563" y="505"/>
      <point x="623" y="406"/>
      <point x="623" y="260" type="curve" smooth="yes"/>
      <point x="623" y="56"/>
      <point x="506" y="-68"/>
      <point x="332" y="-68" type="curve" smooth="yes"/>
      <point x="181" y="-68"/>
      <point x="89" y="29"/>
      <point x="89" y="91" type="curve" smooth="yes"/>
      <point x="89" y="107"/>
      <point x="95" y="117"/>
      <point x="114" y="117" type="curve" smooth="yes"/>
      <point x="815" y="117" type="line"/>
    </contour>
  </outline>
</glyph>
<glyph name="nine-tamil" format="2">
  <advance width="940"/>
  <unicode hex="0BEF"/>
  <note>
uni0BEF
</note>
  <outline>
    <contour>
      <point x="787" y="-20" type="line"/>
      <point x="853" y="24"/>
      <point x="901" y="85"/>
      <point x="901" y="189" type="curve" smooth="yes"/>
      <point x="901" y="333"/>
      <point x="809" y="423"/>
      <point x="678" y="423" type="curve" smooth="yes"/>
      <point x="550" y="423"/>
      <point x="464" y="322"/>
      <point x="464" y="174" type="curve" smooth="yes"/>
      <point x="464" y="74"/>
      <point x="504" y="-5"/>
      <point x="598" y="-5" type="curve" smooth="yes"/>
      <point x="673" y="-5"/>
      <point x="729" y="49"/>
      <point x="729" y="141" type="curve" smooth="yes"/>
      <point x="729" y="252"/>
      <point x="651" y="317"/>
      <point x="537" y="317" type="curve" smooth="yes"/>
      <point x="394" y="317" type="line"/>
      <point x="394" y="500" type="line"/>
      <point x="514" y="500" type="line"/>
      <point x="514" y="554" type="line"/>
      <point x="147" y="554" type="line"/>
      <point x="147" y="286" type="line"/>
      <point x="202" y="286" type="line"/>
      <point x="202" y="500" type="line"/>
      <point x="304" y="500" type="line"/>
      <point x="304" y="317" type="line"/>
      <point x="184" y="317" type="line" smooth="yes"/>
      <point x="102" y="317"/>
      <point x="47" y="256"/>
      <point x="47" y="162" type="curve" smooth="yes"/>
      <point x="47" y="63"/>
      <point x="104" y="-4"/>
      <point x="212" y="-4" type="curve" smooth="yes"/>
      <point x="333" y="-4"/>
      <point x="394" y="67"/>
      <point x="394" y="200" type="curve" smooth="yes"/>
      <point x="394" y="263" type="line"/>
      <point x="532" y="263" type="line" smooth="yes"/>
      <point x="600" y="263"/>
      <point x="641" y="217"/>
      <point x="641" y="134" type="curve" smooth="yes"/>
      <point x="641" y="87"/>
      <point x="625" y="49"/>
      <point x="585" y="49" type="curve" smooth="yes"/>
      <point x="543" y="49"/>
      <point x="516" y="104"/>
      <point x="516" y="168" type="curve" smooth="yes"/>
      <point x="516" y="286"/>
      <point x="566" y="370"/>
      <point x="665" y="370" type="curve" smooth="yes"/>
      <point x="759" y="370"/>
      <point x="813" y="303"/>
      <point x="813" y="180" type="curve" smooth="yes"/>
      <point x="813" y="120"/>
      <point x="800" y="57"/>
      <point x="759" y="16" type="curve"/>
    </contour>
    <contour>
      <point x="203" y="49" type="curve" smooth="yes"/>
      <point x="140" y="49"/>
      <point x="105" y="88"/>
      <point x="105" y="160" type="curve" smooth="yes"/>
      <point x="105" y="223"/>
      <point x="130" y="263"/>
      <point x="191" y="263" type="curve" smooth="yes"/>
      <point x="304" y="263" type="line"/>
      <point x="304" y="189" type="line" smooth="yes"/>
      <point x="304" y="86"/>
      <point x="258" y="49"/>
    </contour>
  </outline>
</glyph>
<glyph name="ten-tamil" format="2">
  <advance width="648"/>
  <unicode hex="0BF0"/>
  <note>
uni0BF0
</note>
  <outline>
    <contour>
      <point x="387" y="-5" type="curve" smooth="yes"/>
      <point x="513" y="-5"/>
      <point x="593" y="131"/>
      <point x="593" y="326" type="curve" smooth="yes"/>
      <point x="593" y="584"/>
      <point x="483" y="765"/>
      <point x="253" y="796" type="curve"/>
      <point x="250" y="742" type="line"/>
      <point x="452" y="717"/>
      <point x="540" y="532"/>
      <point x="540" y="336" type="curve" smooth="yes"/>
      <point x="540" y="160"/>
      <point x="483" y="49"/>
      <point x="404" y="49" type="curve" smooth="yes"/>
      <point x="379" y="49"/>
      <point x="364" y="66"/>
      <point x="364" y="89" type="curve" smooth="yes"/>
      <point x="364" y="554" type="line"/>
      <point x="274" y="554" type="line"/>
      <point x="274" y="111" type="line" smooth="yes"/>
      <point x="274" y="54"/>
      <point x="305" y="-5"/>
    </contour>
    <contour>
      <point x="192" y="-5" type="curve" smooth="yes"/>
      <point x="256" y="-5"/>
      <point x="309" y="33"/>
      <point x="309" y="147" type="curve" smooth="yes"/>
      <point x="309" y="207" type="line"/>
      <point x="274" y="207" type="line"/>
      <point x="274" y="144" type="line" smooth="yes"/>
      <point x="274" y="83"/>
      <point x="255" y="49"/>
      <point x="217" y="49" type="curve" smooth="yes"/>
      <point x="183" y="49"/>
      <point x="167" y="67"/>
      <point x="167" y="121" type="curve" smooth="yes"/>
      <point x="167" y="554" type="line"/>
      <point x="75" y="554" type="line"/>
      <point x="75" y="132" type="line" smooth="yes"/>
      <point x="75" y="40"/>
      <point x="121" y="-5"/>
    </contour>
  </outline>
</glyph>
<glyph name="onehundred-tamil" format="2">
  <advance width="685"/>
  <unicode hex="0BF1"/>
  <note>
uni0BF1
</note>
  <outline>
    <contour>
      <point x="237" y="0" type="line"/>
      <point x="292" y="0" type="line"/>
      <point x="292" y="500" type="line"/>
      <point x="438" y="500" type="line"/>
      <point x="438" y="0" type="line"/>
      <point x="527" y="0" type="line"/>
      <point x="527" y="500" type="line"/>
      <point x="647" y="500" type="line"/>
      <point x="647" y="554" type="line"/>
      <point x="237" y="554" type="line"/>
    </contour>
    <contour>
      <point x="65" y="0" type="line"/>
      <point x="122" y="0" type="line"/>
      <point x="122" y="428" type="line" smooth="yes"/>
      <point x="122" y="479"/>
      <point x="140" y="505"/>
      <point x="179" y="505" type="curve" smooth="yes"/>
      <point x="216" y="505"/>
      <point x="237" y="478"/>
      <point x="237" y="420" type="curve"/>
      <point x="264" y="420" type="line"/>
      <point x="264" y="508"/>
      <point x="229" y="559"/>
      <point x="162" y="559" type="curve" smooth="yes"/>
      <point x="103" y="559"/>
      <point x="65" y="511"/>
      <point x="65" y="431" type="curve" smooth="yes"/>
    </contour>
  </outline>
</glyph>
<glyph name="onethousand-tamil" format="2">
  <advance width="870"/>
  <unicode hex="0BF2"/>
  <note>
uni0BF2
</note>
  <outline>
    <contour>
      <point x="202" y="-4" type="curve" smooth="yes"/>
      <point x="323" y="-4"/>
      <point x="384" y="67"/>
      <point x="384" y="200" type="curve" smooth="yes"/>
      <point x="384" y="500" type="line"/>
      <point x="504" y="500" type="line"/>
      <point x="504" y="554" type="line"/>
      <point x="137" y="554" type="line"/>
      <point x="137" y="286" type="line"/>
      <point x="192" y="286" type="line"/>
      <point x="192" y="500" type="line"/>
      <point x="294" y="500" type="line"/>
      <point x="294" y="189" type="line" smooth="yes"/>
      <point x="294" y="86"/>
      <point x="249" y="49"/>
      <point x="193" y="49" type="curve" smooth="yes"/>
      <point x="130" y="49"/>
      <point x="96" y="88"/>
      <point x="96" y="160" type="curve" smooth="yes"/>
      <point x="96" y="223"/>
      <point x="121" y="263"/>
      <point x="181" y="263" type="curve" smooth="yes"/>
      <point x="776" y="263" type="line"/>
      <point x="776" y="317" type="line"/>
      <point x="174" y="317" type="line" smooth="yes"/>
      <point x="92" y="317"/>
      <point x="37" y="256"/>
      <point x="37" y="162" type="curve" smooth="yes"/>
      <point x="37" y="63"/>
      <point x="94" y="-4"/>
    </contour>
    <contour>
      <point x="399" y="-273" type="curve"/>
      <point x="399" y="-206"/>
      <point x="415" y="-167"/>
      <point x="489" y="-167" type="curve" smooth="yes"/>
      <point x="600" y="-167" type="line" smooth="yes"/>
      <point x="730" y="-167"/>
      <point x="833" y="-120"/>
      <point x="833" y="18" type="curve" smooth="yes"/>
      <point x="833" y="126"/>
      <point x="770" y="188"/>
      <point x="668" y="188" type="curve" smooth="yes"/>
      <point x="545" y="188" type="line" smooth="yes"/>
      <point x="485" y="188"/>
      <point x="433" y="145"/>
      <point x="433" y="68" type="curve" smooth="yes"/>
      <point x="433" y="-5"/>
      <point x="475" y="-56"/>
      <point x="543" y="-56" type="curve" smooth="yes"/>
      <point x="625" y="-56"/>
      <point x="673" y="-1"/>
      <point x="673" y="89" type="curve" smooth="yes"/>
      <point x="673" y="291" type="line"/>
      <point x="595" y="291" type="line"/>
      <point x="595" y="82" type="line" smooth="yes"/>
      <point x="595" y="22"/>
      <point x="573" y="-2"/>
      <point x="538" y="-2" type="curve" smooth="yes"/>
      <point x="509" y="-2"/>
      <point x="488" y="21"/>
      <point x="488" y="66" type="curve" smooth="yes"/>
      <point x="488" y="113"/>
      <point x="513" y="134"/>
      <point x="549" y="134" type="curve" smooth="yes"/>
      <point x="669" y="134" type="line" smooth="yes"/>
      <point x="730" y="134"/>
      <point x="755" y="89"/>
      <point x="755" y="18" type="curve" smooth="yes"/>
      <point x="755" y="-79"/>
      <point x="688" y="-113"/>
      <point x="591" y="-113" type="curve" smooth="yes"/>
      <point x="455" y="-113" type="line" smooth="yes"/>
      <point x="385" y="-113"/>
      <point x="323" y="-131"/>
      <point x="323" y="-204" type="curve" smooth="yes"/>
      <point x="323" y="-252"/>
      <point x="351" y="-273"/>
    </contour>
  </outline>
</glyph>
<glyph name="day-tamil" format="2">
  <advance width="669"/>
  <unicode hex="0BF3"/>
  <note>
uni0BF3
</note>
  <outline>
    <contour>
      <point x="198" y="-5" type="curve" smooth="yes"/>
      <point x="283" y="-5"/>
      <point x="335" y="57"/>
      <point x="335" y="152" type="curve" smooth="yes"/>
      <point x="335" y="245"/>
      <point x="286" y="303"/>
      <point x="216" y="303" type="curve" smooth="yes"/>
      <point x="129" y="303"/>
      <point x="88" y="213"/>
      <point x="86" y="118" type="curve"/>
      <point x="114" y="92" type="line"/>
      <point x="113" y="170"/>
      <point x="142" y="236"/>
      <point x="190" y="236" type="curve" smooth="yes"/>
      <point x="232" y="236"/>
      <point x="250" y="190"/>
      <point x="250" y="146" type="curve" smooth="yes"/>
      <point x="250" y="91"/>
      <point x="231" y="49"/>
      <point x="184" y="49" type="curve" smooth="yes"/>
      <point x="128" y="49"/>
      <point x="97" y="116"/>
      <point x="97" y="250" type="curve" smooth="yes"/>
      <point x="97" y="410"/>
      <point x="159" y="505"/>
      <point x="271" y="505" type="curve" smooth="yes"/>
      <point x="389" y="505"/>
      <point x="449" y="401"/>
      <point x="449" y="267" type="curve" smooth="yes"/>
      <point x="449" y="160"/>
      <point x="423" y="97"/>
      <point x="390" y="40" type="curve"/>
      <point x="404" y="0" type="line"/>
      <point x="660" y="0" type="line"/>
      <point x="660" y="54" type="line"/>
      <point x="462" y="54" type="line"/>
      <point x="503" y="113"/>
      <point x="536" y="177"/>
      <point x="536" y="275" type="curve" smooth="yes"/>
      <point x="536" y="442"/>
      <point x="444" y="559"/>
      <point x="286" y="559" type="curve" smooth="yes"/>
      <point x="136" y="559"/>
      <point x="44" y="441"/>
      <point x="44" y="251" type="curve" smooth="yes"/>
      <point x="44" y="83"/>
      <point x="101" y="-5"/>
    </contour>
  </outline>
</glyph>
<glyph name="debit-tamil" format="2">
  <advance width="900"/>
  <unicode hex="0BF6"/>
  <note>
uni0BF6
</note>
  <outline>
    <contour>
      <point x="295" y="-305" type="curve" smooth="yes"/>
      <point x="475" y="-305"/>
      <point x="600" y="-221"/>
      <point x="600" y="-18" type="curve" smooth="yes"/>
      <point x="600" y="554" type="line"/>
      <point x="509" y="554" type="line"/>
      <point x="509" y="-19" type="line" smooth="yes"/>
      <point x="509" y="-189"/>
      <point x="425" y="-251"/>
      <point x="285" y="-251" type="curve" smooth="yes"/>
      <point x="179" y="-251"/>
      <point x="95" y="-203"/>
      <point x="95" y="-139" type="curve" smooth="yes"/>
      <point x="95" y="-125"/>
      <point x="101" y="-116"/>
      <point x="120" y="-116" type="curve" smooth="yes"/>
      <point x="824" y="-116" type="line"/>
      <point x="824" y="554" type="line"/>
      <point x="733" y="554" type="line"/>
      <point x="733" y="-63" type="line"/>
      <point x="104" y="-63" type="line" smooth="yes"/>
      <point x="60" y="-63"/>
      <point x="39" y="-88"/>
      <point x="39" y="-132" type="curve" smooth="yes"/>
      <point x="39" y="-221"/>
      <point x="137" y="-305"/>
    </contour>
    <contour>
      <point x="75" y="15" type="line"/>
      <point x="553" y="15" type="line"/>
      <point x="553" y="68" type="line"/>
      <point x="165" y="68" type="line"/>
      <point x="165" y="554" type="line"/>
      <point x="75" y="554" type="line"/>
    </contour>
  </outline>
</glyph>
<glyph name="credit-tamil" format="2">
  <advance width="1159"/>
  <unicode hex="0BF7"/>
  <note>
uni0BF7
</note>
  <anchor x="362" y="0" name="bottom"/>
  <anchor x="363" y="0" name="nukta"/>
  <anchor x="365" y="554" name="top"/>
  <anchor x="365" y="554" name="vedic"/>
  <outline>
    <contour>
      <point x="746" y="-5" type="curve" smooth="yes"/>
      <point x="817" y="-5"/>
      <point x="874" y="50"/>
      <point x="874" y="144" type="curve" smooth="yes"/>
      <point x="874" y="253"/>
      <point x="815" y="317"/>
      <point x="719" y="317" type="curve" smooth="yes"/>
      <point x="639" y="317"/>
      <point x="566" y="267"/>
      <point x="514" y="178" type="curve"/>
      <point x="514" y="109" type="line"/>
      <point x="559" y="197"/>
      <point x="626" y="264"/>
      <point x="697" y="264" type="curve" smooth="yes"/>
      <point x="762" y="264"/>
      <point x="794" y="213"/>
      <point x="794" y="137" type="curve" smooth="yes"/>
      <point x="794" y="83"/>
      <point x="773" y="49"/>
      <point x="734" y="49" type="curve" smooth="yes"/>
      <point x="691" y="49"/>
      <point x="672" y="107"/>
      <point x="672" y="172" type="curve" smooth="yes"/>
      <point x="672" y="295"/>
      <point x="732" y="370"/>
      <point x="824" y="370" type="curve" smooth="yes"/>
      <point x="915" y="370"/>
      <point x="977" y="301"/>
      <point x="977" y="185" type="curve" smooth="yes"/>
      <point x="977" y="137"/>
      <point x="957" y="77"/>
      <point x="925" y="40" type="curve"/>
      <point x="938" y="0" type="line"/>
      <point x="1137" y="0" type="line"/>
      <point x="1137" y="54" type="line"/>
      <point x="982" y="54" type="line"/>
      <point x="991" y="44" type="line"/>
      <point x="1028" y="80"/>
      <point x="1060" y="132"/>
      <point x="1060" y="198" type="curve" smooth="yes"/>
      <point x="1060" y="345"/>
      <point x="965" y="423"/>
      <point x="838" y="423" type="curve" smooth="yes"/>
      <point x="721" y="423"/>
      <point x="620" y="329"/>
      <point x="620" y="179" type="curve" smooth="yes"/>
      <point x="620" y="77"/>
      <point x="654" y="-5"/>
    </contour>
    <component base="e-tamil"/>
  </outline>
</glyph>
<glyph name="asabove-tamil" format="2">
  <advance width="1448"/>
  <unicode hex="0BF8"/>
  <note>
uni0BF8
</note>
  <outline>
    <contour>
      <point x="546" y="-5" type="curve" smooth="yes"/>
      <point x="631" y="-5"/>
      <point x="711" y="59"/>
      <point x="711" y="237" type="curve" smooth="yes"/>
      <point x="711" y="474"/>
      <point x="582" y="657"/>
      <point x="359" y="657" type="curve" smooth="yes"/>
      <point x="144" y="657"/>
      <point x="44" y="455"/>
      <point x="44" y="251" type="curve" smooth="yes"/>
      <point x="44" y="83"/>
      <point x="112" y="-5"/>
      <point x="209" y="-5" type="curve" smooth="yes"/>
      <point x="298" y="-5"/>
      <point x="351" y="57"/>
      <point x="351" y="152" type="curve" smooth="yes"/>
      <point x="351" y="245"/>
      <point x="301" y="303"/>
      <point x="227" y="303" type="curve" smooth="yes"/>
      <point x="141" y="303"/>
      <point x="95" y="213"/>
      <point x="93" y="118" type="curve"/>
      <point x="121" y="92" type="line"/>
      <point x="120" y="170"/>
      <point x="153" y="236"/>
      <point x="201" y="236" type="curve" smooth="yes"/>
      <point x="247" y="236"/>
      <point x="265" y="190"/>
      <point x="265" y="146" type="curve" smooth="yes"/>
      <point x="265" y="91"/>
      <point x="247" y="49"/>
      <point x="195" y="49" type="curve" smooth="yes"/>
      <point x="134" y="49"/>
      <point x="97" y="116"/>
      <point x="97" y="250" type="curve" smooth="yes"/>
      <point x="97" y="418"/>
      <point x="172" y="603"/>
      <point x="358" y="603" type="curve" smooth="yes"/>
      <point x="541" y="603"/>
      <point x="622" y="482"/>
      <point x="622" y="241" type="curve" smooth="yes"/>
      <point x="622" y="95"/>
      <point x="576" y="56"/>
      <point x="535" y="56" type="curve" smooth="yes"/>
      <point x="496" y="56"/>
      <point x="457" y="92"/>
      <point x="457" y="192" type="curve" smooth="yes"/>
      <point x="457" y="324"/>
      <point x="505" y="505"/>
      <point x="677" y="505" type="curve" smooth="yes"/>
      <point x="795" y="505"/>
      <point x="860" y="402"/>
      <point x="860" y="257" type="curve" smooth="yes"/>
      <point x="860" y="150"/>
      <point x="830" y="87"/>
      <point x="801" y="40" type="curve"/>
      <point x="814" y="0" type="line"/>
      <point x="1436" y="0" type="line"/>
      <point x="1436" y="54" type="line"/>
      <point x="845" y="54" type="line"/>
      <point x="863" y="42" type="line"/>
      <point x="905" y="94"/>
      <point x="947" y="159"/>
      <point x="947" y="266" type="curve" smooth="yes"/>
      <point x="947" y="443"/>
      <point x="844" y="559"/>
      <point x="686" y="559" type="curve" smooth="yes"/>
      <point x="476" y="559"/>
      <point x="403" y="362"/>
      <point x="403" y="196" type="curve" smooth="yes"/>
      <point x="403" y="61"/>
      <point x="459" y="-5"/>
    </contour>
    <contour>
      <point x="1234" y="-254" type="line"/>
      <point x="1323" y="-254" type="line"/>
      <point x="1323" y="409" type="line" smooth="yes"/>
      <point x="1323" y="504"/>
      <point x="1276" y="554"/>
      <point x="1192" y="554" type="curve" smooth="yes"/>
      <point x="1087" y="554"/>
      <point x="1026" y="453"/>
      <point x="1026" y="298" type="curve" smooth="yes"/>
      <point x="1026" y="151"/>
      <point x="1086" y="13"/>
      <point x="1219" y="13" type="curve"/>
      <point x="1219" y="54" type="line"/>
      <point x="1132" y="54"/>
      <point x="1079" y="165"/>
      <point x="1079" y="292" type="curve" smooth="yes"/>
      <point x="1079" y="413"/>
      <point x="1114" y="495"/>
      <point x="1173" y="495" type="curve" smooth="yes"/>
      <point x="1214" y="495"/>
      <point x="1234" y="467"/>
      <point x="1234" y="416" type="curve" smooth="yes"/>
    </contour>
  </outline>
</glyph>
<glyph name="rupee-tamil" format="2">
  <advance width="810"/>
  <unicode hex="0BF9"/>
  <note>
uni0BF9
</note>
  <outline>
    <contour>
      <point x="426" y="-296" type="curve" smooth="yes"/>
      <point x="643" y="-296"/>
      <point x="761" y="-131"/>
      <point x="761" y="112" type="curve" smooth="yes"/>
      <point x="761" y="247"/>
      <point x="719" y="345"/>
      <point x="620" y="345" type="curve" smooth="yes"/>
      <point x="553" y="345"/>
      <point x="509" y="295"/>
      <point x="509" y="195" type="curve" smooth="yes"/>
      <point x="509" y="167" type="line"/>
      <point x="531" y="167" type="line"/>
      <point x="531" y="192" type="line" smooth="yes"/>
      <point x="531" y="246"/>
      <point x="555" y="286"/>
      <point x="592" y="286" type="curve" smooth="yes"/>
      <point x="650" y="286"/>
      <point x="669" y="204"/>
      <point x="669" y="102" type="curve" smooth="yes"/>
      <point x="669" y="-114"/>
      <point x="588" y="-243"/>
      <point x="417" y="-243" type="curve" smooth="yes"/>
      <point x="213" y="-243"/>
      <point x="109" y="-5"/>
      <point x="109" y="295" type="curve" smooth="yes"/>
      <point x="109" y="604"/>
      <point x="193" y="798"/>
      <point x="307" y="798" type="curve" smooth="yes"/>
      <point x="370" y="798"/>
      <point x="392" y="746"/>
      <point x="392" y="714" type="curve" smooth="yes"/>
      <point x="392" y="676"/>
      <point x="376" y="659"/>
      <point x="354" y="659" type="curve" smooth="yes"/>
      <point x="332" y="659"/>
      <point x="316" y="692"/>
      <point x="316" y="728" type="curve" smooth="yes"/>
      <point x="316" y="810"/>
      <point x="357" y="850"/>
      <point x="419" y="850" type="curve" smooth="yes"/>
      <point x="479" y="850"/>
      <point x="518" y="803"/>
      <point x="518" y="747" type="curve" smooth="yes"/>
      <point x="518" y="709"/>
      <point x="503" y="677"/>
      <point x="482" y="651" type="curve"/>
      <point x="497" y="610" type="line"/>
      <point x="650" y="610" type="line"/>
      <point x="650" y="664" type="line"/>
      <point x="519" y="664" type="line"/>
      <point x="518" y="633" type="line"/>
      <point x="556" y="661"/>
      <point x="585" y="702"/>
      <point x="585" y="759" type="curve" smooth="yes"/>
      <point x="585" y="847"/>
      <point x="518" y="904"/>
      <point x="433" y="904" type="curve" smooth="yes"/>
      <point x="333" y="904"/>
      <point x="268" y="836"/>
      <point x="268" y="733" type="curve" smooth="yes"/>
      <point x="268" y="657"/>
      <point x="304" y="605"/>
      <point x="364" y="605" type="curve" smooth="yes"/>
      <point x="417" y="605"/>
      <point x="458" y="646"/>
      <point x="458" y="714" type="curve" smooth="yes"/>
      <point x="458" y="795"/>
      <point x="398" y="852"/>
      <point x="315" y="852" type="curve" smooth="yes"/>
      <point x="143" y="852"/>
      <point x="53" y="628"/>
      <point x="53" y="295" type="curve" smooth="yes"/>
      <point x="53" y="-31"/>
      <point x="184" y="-296"/>
    </contour>
    <contour>
      <point x="269" y="0" type="line"/>
      <point x="323" y="0" type="line"/>
      <point x="323" y="500" type="line"/>
      <point x="440" y="500" type="line"/>
      <point x="440" y="0" type="line"/>
      <point x="531" y="0" type="line"/>
      <point x="531" y="500" type="line"/>
      <point x="650" y="500" type="line"/>
      <point x="650" y="554" type="line"/>
      <point x="269" y="554" type="line"/>
    </contour>
  </outline>
</glyph>
<glyph name="doubleSvarita-vedic" format="2">
  <unicode hex="1CDA"/>
  <note>
uni1CDA
</note>
  <anchor x="0" y="554" name="_vedic"/>
  <outline>
    <contour>
      <point x="-74" y="917" type="line"/>
      <point x="-24" y="917" type="line"/>
      <point x="-24" y="1112" type="line"/>
      <point x="-74" y="1112" type="line"/>
    </contour>
    <contour>
      <point x="24" y="917" type="line"/>
      <point x="74" y="917" type="line"/>
      <point x="74" y="1112" type="line"/>
      <point x="24" y="1112" type="line"/>
    </contour>
  </outline>
</glyph>
<glyph name="endash" format="2">
  <advance width="500"/>
  <unicode hex="2013"/>
  <outline>
    <contour>
      <point x="-4" y="243" type="line"/>
      <point x="504" y="243" type="line"/>
      <point x="504" y="294" type="line"/>
      <point x="-4" y="294" type="line"/>
    </contour>
  </outline>
</glyph>
<glyph name="emdash" format="2">
  <advance width="1000"/>
  <unicode hex="2014"/>
  <outline>
    <contour>
      <point x="-4" y="243" type="line"/>
      <point x="1004" y="243" type="line"/>
      <point x="1004" y="294" type="line"/>
      <point x="-4" y="294" type="line"/>
    </contour>
  </outline>
</glyph>
<glyph name="quoteleft" format="2">
  <advance width="205"/>
  <unicode hex="2018"/>
  <outline>
    <contour>
      <point x="108" y="435" type="curve" smooth="yes"/>
      <point x="138" y="435"/>
      <point x="161" y="455"/>
      <point x="161" y="493" type="curve" smooth="yes"/>
      <point x="161" y="552"/>
      <point x="103" y="543"/>
      <point x="103" y="583" type="curve"/>
      <point x="103" y="622"/>
      <point x="127" y="653"/>
      <point x="177" y="674" type="curve"/>
      <point x="177" y="715" type="line"/>
      <point x="81" y="680"/>
      <point x="44" y="604"/>
      <point x="44" y="519" type="curve" smooth="yes"/>
      <point x="44" y="464"/>
      <point x="72" y="435"/>
    </contour>
  </outline>
</glyph>
<glyph name="quoteright" format="2">
  <advance width="205"/>
  <unicode hex="2019"/>
  <outline>
    <contour>
      <point x="27" y="434" type="line"/>
      <point x="123" y="469"/>
      <point x="160" y="545"/>
      <point x="160" y="630" type="curve" smooth="yes"/>
      <point x="160" y="684"/>
      <point x="132" y="714"/>
      <point x="96" y="714" type="curve" smooth="yes"/>
      <point x="66" y="714"/>
      <point x="43" y="693"/>
      <point x="43" y="656" type="curve" smooth="yes"/>
      <point x="43" y="596"/>
      <point x="101" y="606"/>
      <point x="101" y="566" type="curve"/>
      <point x="101" y="527"/>
      <point x="76" y="495"/>
      <point x="27" y="474" type="curve"/>
    </contour>
  </outline>
</glyph>
<glyph name="quotedblleft" format="2">
  <advance width="364"/>
  <unicode hex="201C"/>
  <outline>
    <contour>
      <point x="253" y="435" type="curve" smooth="yes"/>
      <point x="283" y="435"/>
      <point x="306" y="455"/>
      <point x="306" y="493" type="curve" smooth="yes"/>
      <point x="306" y="552"/>
      <point x="248" y="543"/>
      <point x="248" y="583" type="curve"/>
      <point x="248" y="622"/>
      <point x="272" y="653"/>
      <point x="322" y="674" type="curve"/>
      <point x="322" y="715" type="line"/>
      <point x="225" y="680"/>
      <point x="189" y="604"/>
      <point x="189" y="519" type="curve" smooth="yes"/>
      <point x="189" y="464"/>
      <point x="217" y="435"/>
    </contour>
    <contour>
      <point x="125" y="435" type="curve" smooth="yes"/>
      <point x="154" y="435"/>
      <point x="177" y="455"/>
      <point x="177" y="493" type="curve" smooth="yes"/>
      <point x="177" y="552"/>
      <point x="119" y="543"/>
      <point x="119" y="583" type="curve"/>
      <point x="119" y="622"/>
      <point x="143" y="653"/>
      <point x="193" y="674" type="curve"/>
      <point x="193" y="715" type="line"/>
      <point x="97" y="680"/>
      <point x="60" y="604"/>
      <point x="60" y="519" type="curve" smooth="yes"/>
      <point x="60" y="464"/>
      <point x="88" y="435"/>
    </contour>
  </outline>
</glyph>
<glyph name="quotedblright" format="2">
  <advance width="364"/>
  <unicode hex="201D"/>
  <outline>
    <contour>
      <point x="171" y="434" type="line"/>
      <point x="268" y="469"/>
      <point x="304" y="545"/>
      <point x="304" y="630" type="curve" smooth="yes"/>
      <point x="304" y="684"/>
      <point x="276" y="714"/>
      <point x="240" y="714" type="curve" smooth="yes"/>
      <point x="211" y="714"/>
      <point x="188" y="693"/>
      <point x="188" y="656" type="curve" smooth="yes"/>
      <point x="188" y="596"/>
      <point x="245" y="606"/>
      <point x="245" y="566" type="curve"/>
      <point x="245" y="527"/>
      <point x="222" y="495"/>
      <point x="171" y="474" type="curve"/>
    </contour>
    <contour>
      <point x="43" y="434" type="line"/>
      <point x="140" y="469"/>
      <point x="177" y="545"/>
      <point x="177" y="630" type="curve" smooth="yes"/>
      <point x="177" y="684"/>
      <point x="148" y="714"/>
      <point x="112" y="714" type="curve" smooth="yes"/>
      <point x="82" y="714"/>
      <point x="59" y="693"/>
      <point x="59" y="656" type="curve" smooth="yes"/>
      <point x="59" y="596"/>
      <point x="117" y="606"/>
      <point x="117" y="566" type="curve"/>
      <point x="117" y="527"/>
      <point x="93" y="495"/>
      <point x="43" y="474" type="curve"/>
    </contour>
  </outline>
</glyph>
<glyph name="ellipsis" format="2">
  <advance width="690"/>
  <unicode hex="2026"/>
  <outline>
    <contour>
      <point x="552" y="-7" type="curve" smooth="yes"/>
      <point x="581" y="-7"/>
      <point x="606" y="10"/>
      <point x="606" y="60" type="curve" smooth="yes"/>
      <point x="606" y="110"/>
      <point x="581" y="126"/>
      <point x="552" y="126" type="curve" smooth="yes"/>
      <point x="523" y="126"/>
      <point x="497" y="110"/>
      <point x="497" y="60" type="curve" smooth="yes"/>
      <point x="497" y="10"/>
      <point x="523" y="-7"/>
    </contour>
    <contour>
      <point x="161" y="-7" type="curve" smooth="yes"/>
      <point x="191" y="-7"/>
      <point x="215" y="10"/>
      <point x="215" y="60" type="curve" smooth="yes"/>
      <point x="215" y="110"/>
      <point x="191" y="126"/>
      <point x="161" y="126" type="curve" smooth="yes"/>
      <point x="132" y="126"/>
      <point x="107" y="110"/>
      <point x="107" y="60" type="curve" smooth="yes"/>
      <point x="107" y="10"/>
      <point x="132" y="-7"/>
    </contour>
    <contour>
      <point x="356" y="-7" type="curve" smooth="yes"/>
      <point x="385" y="-7"/>
      <point x="410" y="10"/>
      <point x="410" y="60" type="curve" smooth="yes"/>
      <point x="410" y="110"/>
      <point x="385" y="126"/>
      <point x="356" y="126" type="curve" smooth="yes"/>
      <point x="326" y="126"/>
      <point x="303" y="110"/>
      <point x="303" y="60" type="curve" smooth="yes"/>
      <point x="303" y="10"/>
      <point x="326" y="-7"/>
    </contour>
  </outline>
</glyph>
<glyph name="foursuperior" format="2">
  <advance width="317"/>
  <unicode hex="2074"/>
  <outline>
    <contour>
      <point x="105" y="387" type="line"/>
      <point x="280" y="387" type="line"/>
      <point x="280" y="421" type="line"/>
      <point x="262" y="421" type="line"/>
      <point x="243" y="421"/>
      <point x="228" y="425"/>
      <point x="228" y="458" type="curve"/>
      <point x="228" y="519" type="line"/>
      <point x="293" y="519" type="line"/>
      <point x="293" y="560" type="line"/>
      <point x="228" y="560" type="line"/>
      <point x="228" y="819" type="line"/>
      <point x="170" y="819" type="line"/>
      <point x="16" y="547" type="line"/>
      <point x="16" y="519" type="line"/>
      <point x="167" y="519" type="line"/>
      <point x="167" y="458" type="line"/>
      <point x="167" y="425"/>
      <point x="151" y="421"/>
      <point x="133" y="421" type="curve"/>
      <point x="105" y="421" type="line"/>
    </contour>
    <contour>
      <point x="61" y="560" type="line"/>
      <point x="150" y="724" type="line"/>
      <point x="154" y="730"/>
      <point x="164" y="752"/>
      <point x="169" y="765" type="curve"/>
      <point x="167" y="740"/>
      <point x="167" y="709"/>
      <point x="167" y="688" type="curve"/>
      <point x="167" y="560" type="line"/>
    </contour>
  </outline>
</glyph>
<glyph name="minus" format="2">
  <advance width="425"/>
  <unicode hex="2212"/>
  <outline>
    <contour>
      <point x="43" y="329" type="line"/>
      <point x="382" y="329" type="line"/>
      <point x="382" y="386" type="line"/>
      <point x="43" y="386" type="line"/>
    </contour>
  </outline>
</glyph>
<glyph name="dottedCircle" format="2">
  <advance width="594"/>
  <unicode hex="25CC"/>
  <anchor x="297" y="300" name="bottom"/>
  <anchor x="297" y="554" name="imatra"/>
  <anchor x="297" y="0" name="nukta"/>
  <anchor x="297" y="554" name="top"/>
  <anchor x="297" y="304" name="vedic"/>
  <outline>
    <contour>
      <point x="382" y="470" type="curve" smooth="yes"/>
      <point x="397" y="470"/>
      <point x="408" y="482"/>
      <point x="408" y="496" type="curve" smooth="yes"/>
      <point x="408" y="510"/>
      <point x="397" y="522"/>
      <point x="382" y="522" type="curve" smooth="yes"/>
      <point x="366" y="522"/>
      <point x="355" y="510"/>
      <point x="355" y="496" type="curve" smooth="yes"/>
      <point x="355" y="482"/>
      <point x="366" y="470"/>
    </contour>
    <contour>
      <point x="140" y="107" type="curve" smooth="yes"/>
      <point x="155" y="107"/>
      <point x="166" y="119"/>
      <point x="166" y="133" type="curve" smooth="yes"/>
      <point x="166" y="147"/>
      <point x="155" y="159"/>
      <point x="140" y="159" type="curve" smooth="yes"/>
      <point x="124" y="159"/>
      <point x="113" y="147"/>
      <point x="113" y="133" type="curve" smooth="yes"/>
      <point x="113" y="119"/>
      <point x="124" y="107"/>
    </contour>
    <contour>
      <point x="92" y="181" type="curve" smooth="yes"/>
      <point x="107" y="181"/>
      <point x="118" y="193"/>
      <point x="118" y="207" type="curve" smooth="yes"/>
      <point x="118" y="221"/>
      <point x="107" y="233"/>
      <point x="92" y="233" type="curve" smooth="yes"/>
      <point x="76" y="233"/>
      <point x="65" y="221"/>
      <point x="65" y="207" type="curve" smooth="yes"/>
      <point x="65" y="193"/>
      <point x="76" y="181"/>
    </contour>
    <contour>
      <point x="212" y="60" type="curve" smooth="yes"/>
      <point x="229" y="60"/>
      <point x="239" y="72"/>
      <point x="239" y="86" type="curve" smooth="yes"/>
      <point x="239" y="100"/>
      <point x="229" y="112"/>
      <point x="212" y="112" type="curve" smooth="yes"/>
      <point x="197" y="112"/>
      <point x="187" y="100"/>
      <point x="187" y="86" type="curve" smooth="yes"/>
      <point x="187" y="72"/>
      <point x="197" y="60"/>
    </contour>
    <contour>
      <point x="75" y="265" type="curve" smooth="yes"/>
      <point x="90" y="265"/>
      <point x="101" y="277"/>
      <point x="101" y="291" type="curve" smooth="yes"/>
      <point x="101" y="305"/>
      <point x="90" y="317"/>
      <point x="75" y="317" type="curve" smooth="yes"/>
      <point x="59" y="317"/>
      <point x="48" y="305"/>
      <point x="48" y="291" type="curve" smooth="yes"/>
      <point x="48" y="277"/>
      <point x="59" y="265"/>
    </contour>
    <contour>
      <point x="297" y="42" type="curve" smooth="yes"/>
      <point x="313" y="42"/>
      <point x="323" y="54"/>
      <point x="323" y="68" type="curve" smooth="yes"/>
      <point x="323" y="82"/>
      <point x="313" y="94"/>
      <point x="297" y="94" type="curve" smooth="yes"/>
      <point x="282" y="94"/>
      <point x="271" y="82"/>
      <point x="271" y="68" type="curve" smooth="yes"/>
      <point x="271" y="54"/>
      <point x="282" y="42"/>
    </contour>
    <contour>
      <point x="92" y="349" type="curve" smooth="yes"/>
      <point x="108" y="349"/>
      <point x="118" y="361"/>
      <point x="118" y="375" type="curve" smooth="yes"/>
      <point x="118" y="389"/>
      <point x="107" y="401"/>
      <point x="92" y="401" type="curve" smooth="yes"/>
      <point x="76" y="401"/>
      <point x="65" y="389"/>
      <point x="65" y="375" type="curve" smooth="yes"/>
      <point x="65" y="361"/>
      <point x="76" y="349"/>
    </contour>
    <contour>
      <point x="382" y="60" type="curve" smooth="yes"/>
      <point x="397" y="60"/>
      <point x="408" y="72"/>
      <point x="408" y="86" type="curve" smooth="yes"/>
      <point x="408" y="100"/>
      <point x="397" y="112"/>
      <point x="382" y="112" type="curve" smooth="yes"/>
      <point x="366" y="112"/>
      <point x="355" y="100"/>
      <point x="355" y="86" type="curve" smooth="yes"/>
      <point x="355" y="72"/>
      <point x="366" y="60"/>
    </contour>
    <contour>
      <point x="455" y="107" type="curve" smooth="yes"/>
      <point x="471" y="107"/>
      <point x="480" y="119"/>
      <point x="480" y="133" type="curve" smooth="yes"/>
      <point x="480" y="147"/>
      <point x="471" y="159"/>
      <point x="455" y="159" type="curve" smooth="yes"/>
      <point x="439" y="159"/>
      <point x="429" y="147"/>
      <point x="429" y="133" type="curve" smooth="yes"/>
      <point x="429" y="119"/>
      <point x="439" y="107"/>
    </contour>
    <contour>
      <point x="140" y="423" type="curve" smooth="yes"/>
      <point x="155" y="423"/>
      <point x="166" y="435"/>
      <point x="166" y="449" type="curve" smooth="yes"/>
      <point x="166" y="463"/>
      <point x="155" y="475"/>
      <point x="140" y="475" type="curve" smooth="yes"/>
      <point x="124" y="475"/>
      <point x="113" y="463"/>
      <point x="113" y="449" type="curve" smooth="yes"/>
      <point x="113" y="435"/>
      <point x="124" y="423"/>
    </contour>
    <contour>
      <point x="212" y="470" type="curve" smooth="yes"/>
      <point x="229" y="470"/>
      <point x="239" y="482"/>
      <point x="239" y="496" type="curve" smooth="yes"/>
      <point x="239" y="510"/>
      <point x="229" y="522"/>
      <point x="212" y="522" type="curve" smooth="yes"/>
      <point x="197" y="522"/>
      <point x="187" y="510"/>
      <point x="187" y="496" type="curve" smooth="yes"/>
      <point x="187" y="482"/>
      <point x="197" y="470"/>
    </contour>
    <contour>
      <point x="502" y="181" type="curve" smooth="yes"/>
      <point x="518" y="181"/>
      <point x="528" y="193"/>
      <point x="528" y="207" type="curve" smooth="yes"/>
      <point x="528" y="221"/>
      <point x="518" y="233"/>
      <point x="502" y="233" type="curve" smooth="yes"/>
      <point x="486" y="233"/>
      <point x="476" y="221"/>
      <point x="476" y="207" type="curve" smooth="yes"/>
      <point x="476" y="193"/>
      <point x="486" y="181"/>
    </contour>
    <contour>
      <point x="297" y="488" type="curve" smooth="yes"/>
      <point x="313" y="488"/>
      <point x="323" y="500"/>
      <point x="323" y="514" type="curve" smooth="yes"/>
      <point x="323" y="528"/>
      <point x="313" y="540"/>
      <point x="297" y="540" type="curve" smooth="yes"/>
      <point x="282" y="540"/>
      <point x="271" y="528"/>
      <point x="271" y="514" type="curve" smooth="yes"/>
      <point x="271" y="500"/>
      <point x="282" y="488"/>
    </contour>
    <contour>
      <point x="521" y="265" type="curve" smooth="yes"/>
      <point x="536" y="265"/>
      <point x="546" y="277"/>
      <point x="546" y="291" type="curve" smooth="yes"/>
      <point x="546" y="305"/>
      <point x="536" y="317"/>
      <point x="521" y="317" type="curve" smooth="yes"/>
      <point x="504" y="317"/>
      <point x="494" y="305"/>
      <point x="494" y="291" type="curve" smooth="yes"/>
      <point x="494" y="277"/>
      <point x="504" y="265"/>
    </contour>
    <contour>
      <point x="502" y="349" type="curve" smooth="yes"/>
      <point x="518" y="349"/>
      <point x="528" y="361"/>
      <point x="528" y="375" type="curve" smooth="yes"/>
      <point x="528" y="389"/>
      <point x="518" y="401"/>
      <point x="502" y="401" type="curve" smooth="yes"/>
      <point x="486" y="401"/>
      <point x="476" y="389"/>
      <point x="476" y="375" type="curve" smooth="yes"/>
      <point x="476" y="361"/>
      <point x="486" y="349"/>
    </contour>
    <contour>
      <point x="455" y="423" type="curve" smooth="yes"/>
      <point x="471" y="423"/>
      <point x="480" y="435"/>
      <point x="480" y="449" type="curve" smooth="yes"/>
      <point x="480" y="463"/>
      <point x="471" y="475"/>
      <point x="455" y="475" type="curve" smooth="yes"/>
      <point x="439" y="475"/>
      <point x="429" y="463"/>
      <point x="429" y="449" type="curve" smooth="yes"/>
      <point x="429" y="435"/>
      <point x="439" y="423"/>
    </contour>
  </outline>
</glyph>
<glyph name="candrabinduhalant-deva" format="2">
  <advance width="365"/>
  <unicode hex="A8F3"/>
  <note>
uniA8F3
</note>
  <outline>
    <contour>
      <point x="182" y="358" type="curve" smooth="yes"/>
      <point x="258" y="358"/>
      <point x="320" y="413"/>
      <point x="333" y="542" type="curve"/>
      <point x="271" y="554" type="line"/>
      <point x="262" y="451"/>
      <point x="227" y="419"/>
      <point x="173" y="419" type="curve" smooth="yes"/>
      <point x="121" y="419"/>
      <point x="90" y="468"/>
      <point x="80" y="547" type="curve"/>
      <point x="39" y="538" type="line"/>
      <point x="52" y="422"/>
      <point x="104" y="358"/>
    </contour>
    <contour>
      <point x="177" y="485" type="curve" smooth="yes"/>
      <point x="196" y="485"/>
      <point x="212" y="495"/>
      <point x="212" y="524" type="curve" smooth="yes"/>
      <point x="212" y="554"/>
      <point x="196" y="563"/>
      <point x="177" y="563" type="curve" smooth="yes"/>
      <point x="156" y="563"/>
      <point x="141" y="554"/>
      <point x="141" y="524" type="curve" smooth="yes"/>
      <point x="141" y="495"/>
      <point x="156" y="485"/>
    </contour>
    <contour>
      <point x="279" y="62" type="curve"/>
      <point x="319" y="81" type="line"/>
      <point x="234" y="257"/>
      <point x="210" y="280"/>
      <point x="145" y="280" type="curve" smooth="yes"/>
      <point x="123" y="280"/>
      <point x="103" y="272"/>
      <point x="96" y="272" type="curve"/>
      <point x="119" y="202" type="line"/>
      <point x="134" y="208"/>
      <point x="146" y="210"/>
      <point x="161" y="210" type="curve" smooth="yes"/>
      <point x="194" y="210"/>
      <point x="213" y="195"/>
    </contour>
  </outline>
</glyph>
<glyph name="u11301" format="2">
  <unicode hex="11301"/>
  <anchor x="0" y="554" name="_vedic"/>
  <outline>
    <contour>
      <point x="11" y="906" type="curve" smooth="yes"/>
      <point x="108" y="906"/>
      <point x="157" y="961"/>
      <point x="157" y="1034" type="curve" smooth="yes"/>
      <point x="157" y="1067"/>
      <point x="144" y="1100"/>
      <point x="109" y="1100" type="curve" smooth="yes"/>
      <point x="103" y="1100"/>
      <point x="97" y="1099"/>
      <point x="91" y="1097" type="curve"/>
      <point x="98" y="1083"/>
      <point x="101" y="1068"/>
      <point x="101" y="1052" type="curve" smooth="yes"/>
      <point x="101" y="992"/>
      <point x="68" y="964"/>
      <point x="10" y="964" type="curve" smooth="yes"/>
      <point x="-56" y="964"/>
      <point x="-83" y="997"/>
      <point x="-83" y="1056" type="curve" smooth="yes"/>
      <point x="-83" y="1069"/>
      <point x="-81" y="1083"/>
      <point x="-76" y="1097" type="curve"/>
      <point x="-84" y="1100"/>
      <point x="-90" y="1101"/>
      <point x="-96" y="1101" type="curve" smooth="yes"/>
      <point x="-128" y="1101"/>
      <point x="-156" y="1074"/>
      <point x="-156" y="1028" type="curve" smooth="yes"/>
      <point x="-156" y="970"/>
      <point x="-127" y="906"/>
    </contour>
    <contour>
      <point x="5" y="1011" type="curve" smooth="yes"/>
      <point x="32" y="1011"/>
      <point x="54" y="1031"/>
      <point x="54" y="1062" type="curve" smooth="yes"/>
      <point x="54" y="1090"/>
      <point x="32" y="1112"/>
      <point x="5" y="1112" type="curve" smooth="yes"/>
      <point x="-22" y="1112"/>
      <point x="-43" y="1090"/>
      <point x="-43" y="1062" type="curve" smooth="yes"/>
      <point x="-43" y="1031"/>
      <point x="-22" y="1011"/>
    </contour>
  </outline>
</glyph>
<glyph name="visarga-grantha" format="2">
  <advance width="230"/>
  <unicode hex="11303"/>
  <outline>
    <contour>
      <point x="118" y="-4" type="curve" smooth="yes"/>
      <point x="180" y="-4"/>
      <point x="226" y="38"/>
      <point x="226" y="101" type="curve" smooth="yes"/>
      <point x="226" y="164"/>
      <point x="180" y="206"/>
      <point x="118" y="206" type="curve" smooth="yes"/>
      <point x="55" y="206"/>
      <point x="10" y="164"/>
      <point x="10" y="101" type="curve" smooth="yes"/>
      <point x="10" y="38"/>
      <point x="55" y="-4"/>
    </contour>
    <contour>
      <point x="118" y="51" type="curve" smooth="yes"/>
      <point x="89" y="51"/>
      <point x="69" y="72"/>
      <point x="69" y="102" type="curve" smooth="yes"/>
      <point x="69" y="131"/>
      <point x="89" y="152"/>
      <point x="118" y="152" type="curve" smooth="yes"/>
      <point x="146" y="152"/>
      <point x="166" y="131"/>
      <point x="166" y="102" type="curve" smooth="yes"/>
      <point x="166" y="72"/>
      <point x="146" y="51"/>
    </contour>
    <contour>
      <point x="118" y="348" type="curve" smooth="yes"/>
      <point x="180" y="348"/>
      <point x="226" y="391"/>
      <point x="226" y="454" type="curve" smooth="yes"/>
      <point x="226" y="517"/>
      <point x="180" y="559"/>
      <point x="118" y="559" type="curve" smooth="yes"/>
      <point x="55" y="559"/>
      <point x="10" y="517"/>
      <point x="10" y="454" type="curve" smooth="yes"/>
      <point x="10" y="391"/>
      <point x="55" y="348"/>
    </contour>
    <contour>
      <point x="118" y="404" type="curve" smooth="yes"/>
      <point x="89" y="404"/>
      <point x="69" y="425"/>
      <point x="69" y="455" type="curve" smooth="yes"/>
      <point x="69" y="484"/>
      <point x="89" y="505"/>
      <point x="118" y="505" type="curve" smooth="yes"/>
      <point x="146" y="505"/>
      <point x="166" y="484"/>
      <point x="166" y="455" type="curve" smooth="yes"/>
      <point x="166" y="425"/>
      <point x="146" y="404"/>
    </contour>
  </outline>
</glyph>
<glyph name="nukta-grantha" format="2">
  <unicode hex="1133C"/>
  <anchor x="0" y="0" name="_nukta"/>
  <outline>
    <contour>
      <point x="-89" y="-160" type="curve" smooth="yes"/>
      <point x="-58" y="-160"/>
      <point x="-33" y="-135"/>
      <point x="-33" y="-106" type="curve" smooth="yes"/>
      <point x="-33" y="-77"/>
      <point x="-58" y="-51"/>
      <point x="-89" y="-51" type="curve" smooth="yes"/>
      <point x="-120" y="-51"/>
      <point x="-145" y="-77"/>
      <point x="-145" y="-106" type="curve" smooth="yes"/>
      <point x="-145" y="-135"/>
      <point x="-120" y="-160"/>
    </contour>
    <contour>
      <point x="89" y="-160" type="curve" smooth="yes"/>
      <point x="120" y="-160"/>
      <point x="145" y="-135"/>
      <point x="145" y="-106" type="curve" smooth="yes"/>
      <point x="145" y="-77"/>
      <point x="120" y="-51"/>
      <point x="89" y="-51" type="curve" smooth="yes"/>
      <point x="58" y="-51"/>
      <point x="33" y="-77"/>
      <point x="33" y="-106" type="curve" smooth="yes"/>
      <point x="33" y="-135"/>
      <point x="58" y="-160"/>
    </contour>
  </outline>
</glyph>
<glyph name="anusvara-tamil.alt" format="2">
  <note>
uni0B82
</note>
  <anchor x="0" y="424" name="_top"/>
  <outline>
    <contour>
      <point x="0" y="633" type="curve" smooth="yes"/>
      <point x="60" y="633"/>
      <point x="104" y="673"/>
      <point x="104" y="734" type="curve" smooth="yes"/>
      <point x="104" y="794"/>
      <point x="60" y="835"/>
      <point x="0" y="835" type="curve" smooth="yes"/>
      <point x="-60" y="835"/>
      <point x="-104" y="794"/>
      <point x="-104" y="734" type="curve" smooth="yes"/>
      <point x="-104" y="673"/>
      <point x="-60" y="633"/>
    </contour>
    <contour>
      <point x="0" y="687" type="curve" smooth="yes"/>
      <point x="-27" y="687"/>
      <point x="-45" y="706"/>
      <point x="-45" y="734" type="curve" smooth="yes"/>
      <point x="-45" y="762"/>
      <point x="-27" y="781"/>
      <point x="0" y="781" type="curve" smooth="yes"/>
      <point x="27" y="781"/>
      <point x="45" y="762"/>
      <point x="45" y="734" type="curve" smooth="yes"/>
      <point x="45" y="706"/>
      <point x="27" y="687"/>
    </contour>
  </outline>
</glyph>
<glyph name="cu-tamil" format="2">
  <advance width="679"/>
  <note>
g106
</note>
  <anchor x="339" y="0" name="bottom"/>
  <anchor x="339" y="0" name="nukta"/>
  <anchor x="342" y="554" name="top"/>
  <anchor x="355" y="554" name="vedic"/>
  <outline>
    <contour>
      <point x="212" y="-4" type="curve" smooth="yes"/>
      <point x="333" y="-4"/>
      <point x="394" y="67"/>
      <point x="394" y="200" type="curve" smooth="yes"/>
      <point x="394" y="263" type="line"/>
      <point x="488" y="263" type="line"/>
      <point x="488" y="0" type="line"/>
      <point x="572" y="0" type="line"/>
      <point x="572" y="263" type="line"/>
      <point x="659" y="263" type="line"/>
      <point x="659" y="317" type="line"/>
      <point x="394" y="317" type="line"/>
      <point x="394" y="500" type="line"/>
      <point x="514" y="500" type="line"/>
      <point x="514" y="554" type="line"/>
      <point x="147" y="554" type="line"/>
      <point x="147" y="286" type="line"/>
      <point x="202" y="286" type="line"/>
      <point x="202" y="500" type="line"/>
      <point x="304" y="500" type="line"/>
      <point x="304" y="317" type="line"/>
      <point x="184" y="317" type="line" smooth="yes"/>
      <point x="102" y="317"/>
      <point x="47" y="256"/>
      <point x="47" y="162" type="curve" smooth="yes"/>
      <point x="47" y="63"/>
      <point x="104" y="-4"/>
    </contour>
    <contour>
      <point x="203" y="49" type="curve" smooth="yes"/>
      <point x="140" y="49"/>
      <point x="105" y="88"/>
      <point x="105" y="160" type="curve" smooth="yes"/>
      <point x="105" y="223"/>
      <point x="130" y="263"/>
      <point x="191" y="263" type="curve" smooth="yes"/>
      <point x="304" y="263" type="line"/>
      <point x="304" y="189" type="line" smooth="yes"/>
      <point x="304" y="86"/>
      <point x="258" y="49"/>
    </contour>
  </outline>
</glyph>
<glyph name="cuu-tamil" format="2">
  <advance width="939"/>
  <note>
g107
</note>
  <anchor x="490" y="0" name="bottom"/>
  <anchor x="491" y="-254" name="nukta"/>
  <anchor x="502" y="554" name="top"/>
  <anchor x="480" y="554" name="vedic"/>
  <outline>
    <contour>
      <point x="491" y="-254" type="curve" smooth="yes"/>
      <point x="701" y="-254"/>
      <point x="891" y="-153"/>
      <point x="891" y="34" type="curve" smooth="yes"/>
      <point x="891" y="135"/>
      <point x="851" y="181"/>
      <point x="795" y="181" type="curve" smooth="yes"/>
      <point x="738" y="181"/>
      <point x="706" y="122"/>
      <point x="706" y="70" type="curve" smooth="yes"/>
      <point x="706" y="46" type="line"/>
      <point x="724" y="46" type="line"/>
      <point x="724" y="68" type="line" smooth="yes"/>
      <point x="724" y="100"/>
      <point x="738" y="123"/>
      <point x="763" y="123" type="curve" smooth="yes"/>
      <point x="791" y="123"/>
      <point x="807" y="99"/>
      <point x="807" y="35" type="curve" smooth="yes"/>
      <point x="807" y="-132"/>
      <point x="653" y="-200"/>
      <point x="479" y="-200" type="curve" smooth="yes"/>
      <point x="291" y="-200"/>
      <point x="101" y="-80"/>
      <point x="101" y="171" type="curve" smooth="yes"/>
      <point x="101" y="282"/>
      <point x="135" y="366"/>
      <point x="187" y="463" type="curve"/>
      <point x="140" y="487" type="line"/>
      <point x="83" y="386"/>
      <point x="49" y="290"/>
      <point x="49" y="171" type="curve" smooth="yes"/>
      <point x="49" y="-108"/>
      <point x="261" y="-254"/>
    </contour>
    <contour>
      <point x="365" y="-4" type="curve" smooth="yes"/>
      <point x="486" y="-4"/>
      <point x="546" y="67"/>
      <point x="546" y="200" type="curve" smooth="yes"/>
      <point x="546" y="263" type="line"/>
      <point x="641" y="263" type="line"/>
      <point x="641" y="0" type="line"/>
      <point x="725" y="0" type="line"/>
      <point x="725" y="263" type="line"/>
      <point x="812" y="263" type="line"/>
      <point x="812" y="317" type="line"/>
      <point x="546" y="317" type="line"/>
      <point x="546" y="500" type="line"/>
      <point x="667" y="500" type="line"/>
      <point x="667" y="554" type="line"/>
      <point x="300" y="554" type="line"/>
      <point x="300" y="286" type="line"/>
      <point x="355" y="286" type="line"/>
      <point x="355" y="500" type="line"/>
      <point x="457" y="500" type="line"/>
      <point x="457" y="317" type="line"/>
      <point x="336" y="317" type="line" smooth="yes"/>
      <point x="254" y="317"/>
      <point x="200" y="256"/>
      <point x="200" y="162" type="curve" smooth="yes"/>
      <point x="200" y="63"/>
      <point x="256" y="-4"/>
    </contour>
    <contour>
      <point x="355" y="49" type="curve" smooth="yes"/>
      <point x="293" y="49"/>
      <point x="258" y="88"/>
      <point x="258" y="160" type="curve" smooth="yes"/>
      <point x="258" y="223"/>
      <point x="283" y="263"/>
      <point x="344" y="263" type="curve" smooth="yes"/>
      <point x="457" y="263" type="line"/>
      <point x="457" y="189" type="line" smooth="yes"/>
      <point x="457" y="86"/>
      <point x="411" y="49"/>
    </contour>
  </outline>
</glyph>
<glyph name="hii-tamil" format="2">
  <advance width="1241"/>
  <note>
uni0BB9
</note>
  <anchor x="643" y="0" name="bottom"/>
  <anchor x="643" y="-152" name="nukta"/>
  <anchor x="1131" y="875" name="top"/>
  <anchor x="620" y="554" name="vedic"/>
  <outline>
    <contour>
      <point x="177" y="-239" type="curve"/>
      <point x="177" y="-171"/>
      <point x="193" y="-131"/>
      <point x="267" y="-131" type="curve" smooth="yes"/>
      <point x="823" y="-131" type="line" smooth="yes"/>
      <point x="1086" y="-131"/>
      <point x="1192" y="-13"/>
      <point x="1192" y="246" type="curve" smooth="yes"/>
      <point x="1192" y="428"/>
      <point x="1128" y="559"/>
      <point x="1003" y="559" type="curve" smooth="yes"/>
      <point x="929" y="559"/>
      <point x="895" y="519"/>
      <point x="876" y="482" type="curve"/>
      <point x="862" y="518"/>
      <point x="832" y="558"/>
      <point x="767" y="558" type="curve" smooth="yes"/>
      <point x="702" y="558"/>
      <point x="651" y="511"/>
      <point x="651" y="420" type="curve" smooth="yes"/>
      <point x="651" y="54" type="line"/>
      <point x="491" y="54" type="line"/>
      <point x="530" y="104"/>
      <point x="565" y="167"/>
      <point x="565" y="266" type="curve" smooth="yes"/>
      <point x="565" y="443"/>
      <point x="460" y="559"/>
      <point x="303" y="559" type="curve" smooth="yes"/>
      <point x="149" y="559"/>
      <point x="44" y="441"/>
      <point x="44" y="251" type="curve" smooth="yes"/>
      <point x="44" y="83"/>
      <point x="113" y="-5"/>
      <point x="211" y="-5" type="curve" smooth="yes"/>
      <point x="300" y="-5"/>
      <point x="352" y="57"/>
      <point x="352" y="152" type="curve" smooth="yes"/>
      <point x="352" y="245"/>
      <point x="302" y="303"/>
      <point x="229" y="303" type="curve" smooth="yes"/>
      <point x="142" y="303"/>
      <point x="95" y="213"/>
      <point x="93" y="118" type="curve"/>
      <point x="121" y="92" type="line"/>
      <point x="120" y="170"/>
      <point x="154" y="236"/>
      <point x="203" y="236" type="curve" smooth="yes"/>
      <point x="249" y="236"/>
      <point x="267" y="190"/>
      <point x="267" y="146" type="curve" smooth="yes"/>
      <point x="267" y="91"/>
      <point x="248" y="49"/>
      <point x="196" y="49" type="curve" smooth="yes"/>
      <point x="136" y="49"/>
      <point x="97" y="116"/>
      <point x="97" y="250" type="curve" smooth="yes"/>
      <point x="97" y="410"/>
      <point x="171" y="505"/>
      <point x="289" y="505" type="curve" smooth="yes"/>
      <point x="405" y="505"/>
      <point x="479" y="402"/>
      <point x="479" y="257" type="curve" smooth="yes"/>
      <point x="479" y="150"/>
      <point x="449" y="87"/>
      <point x="419" y="40" type="curve"/>
      <point x="433" y="0" type="line"/>
      <point x="707" y="0" type="line"/>
      <point x="707" y="419" type="line" smooth="yes"/>
      <point x="707" y="477"/>
      <point x="728" y="504"/>
      <point x="768" y="504" type="curve" smooth="yes"/>
      <point x="809" y="504"/>
      <point x="831" y="471"/>
      <point x="831" y="412" type="curve" smooth="yes"/>
      <point x="831" y="0" type="line"/>
      <point x="921" y="0" type="line"/>
      <point x="921" y="411" type="line" smooth="yes"/>
      <point x="921" y="466"/>
      <point x="952" y="505"/>
      <point x="994" y="505" type="curve" smooth="yes"/>
      <point x="1059" y="505"/>
      <point x="1100" y="436"/>
      <point x="1100" y="251" type="curve" smooth="yes"/>
      <point x="1100" y="21"/>
      <point x="1022" y="-80"/>
      <point x="821" y="-80" type="curve" smooth="yes"/>
      <point x="232" y="-80" type="line" smooth="yes"/>
      <point x="163" y="-80"/>
      <point x="99" y="-97"/>
      <point x="99" y="-169" type="curve" smooth="yes"/>
      <point x="99" y="-218"/>
      <point x="131" y="-239"/>
    </contour>
    <component base="iiMatra-tamil.alt01" xOffset="1250"/>
  </outline>
</glyph>
<glyph name="iMatra-tamil.alt01" format="2">
  <advance width="189"/>
  <note>
uni0BBF
</note>
  <outline>
    <contour>
      <point x="64" y="0" type="line"/>
      <point x="118" y="0" type="line"/>
      <point x="118" y="570" type="line" smooth="yes"/>
      <point x="118" y="757"/>
      <point x="9" y="815"/>
      <point x="-89" y="815" type="curve" smooth="yes"/>
      <point x="-190" y="815"/>
      <point x="-259" y="747"/>
      <point x="-259" y="647" type="curve" smooth="yes"/>
      <point x="-259" y="581"/>
      <point x="-224" y="536"/>
      <point x="-174" y="501" type="curve"/>
      <point x="-153" y="529" type="line"/>
      <point x="-186" y="554"/>
      <point x="-199" y="587"/>
      <point x="-199" y="625" type="curve" smooth="yes"/>
      <point x="-199" y="683"/>
      <point x="-163" y="728"/>
      <point x="-88" y="728" type="curve" smooth="yes"/>
      <point x="-23" y="728"/>
      <point x="64" y="696"/>
      <point x="64" y="540" type="curve" smooth="yes"/>
    </contour>
  </outline>
</glyph>
<glyph name="iMatra-tamil.alt02" format="2">
  <advance width="192"/>
  <note>
uni0BBF
</note>
  <outline>
    <contour>
      <point x="65" y="0" type="line"/>
      <point x="121" y="0" type="line"/>
      <point x="121" y="521" type="line" smooth="yes"/>
      <point x="121" y="724"/>
      <point x="7" y="815"/>
      <point x="-146" y="815" type="curve" smooth="yes"/>
      <point x="-274" y="815"/>
      <point x="-358" y="732"/>
      <point x="-358" y="625" type="curve" smooth="yes"/>
      <point x="-358" y="566"/>
      <point x="-329" y="537"/>
      <point x="-281" y="500" type="curve"/>
      <point x="-263" y="526" type="line"/>
      <point x="-289" y="554"/>
      <point x="-298" y="571"/>
      <point x="-298" y="610" type="curve" smooth="yes"/>
      <point x="-298" y="677"/>
      <point x="-236" y="728"/>
      <point x="-148" y="728" type="curve" smooth="yes"/>
      <point x="-16" y="728"/>
      <point x="65" y="652"/>
      <point x="65" y="491" type="curve" smooth="yes"/>
    </contour>
  </outline>
</glyph>
<glyph name="iiMatra-tamil.alt01" format="2">
  <note>
uni0BC0
</note>
  <outline>
    <contour>
      <point x="-190" y="497" type="curve"/>
      <point x="-164" y="535" type="line"/>
      <point x="-206" y="567"/>
      <point x="-232" y="613"/>
      <point x="-232" y="683" type="curve" smooth="yes"/>
      <point x="-232" y="763"/>
      <point x="-203" y="822"/>
      <point x="-124" y="822" type="curve" smooth="yes"/>
      <point x="-69" y="822"/>
      <point x="-37" y="786"/>
      <point x="-37" y="726" type="curve" smooth="yes"/>
      <point x="-37" y="679"/>
      <point x="-58" y="653"/>
      <point x="-90" y="653" type="curve" smooth="yes"/>
      <point x="-127" y="653"/>
      <point x="-145" y="691"/>
      <point x="-145" y="741" type="curve" smooth="yes"/>
      <point x="-145" y="772"/>
      <point x="-138" y="809"/>
      <point x="-125" y="844" type="curve"/>
      <point x="-166" y="848" type="line"/>
      <point x="-183" y="809"/>
      <point x="-191" y="771"/>
      <point x="-191" y="736" type="curve" smooth="yes"/>
      <point x="-191" y="659"/>
      <point x="-152" y="600"/>
      <point x="-80" y="600" type="curve" smooth="yes"/>
      <point x="-7" y="600"/>
      <point x="36" y="657"/>
      <point x="36" y="723" type="curve" smooth="yes"/>
      <point x="36" y="818"/>
      <point x="-22" y="875"/>
      <point x="-119" y="875" type="curve" smooth="yes"/>
      <point x="-225" y="875"/>
      <point x="-285" y="794"/>
      <point x="-285" y="684" type="curve" smooth="yes"/>
      <point x="-285" y="600"/>
      <point x="-255" y="544"/>
    </contour>
  </outline>
</glyph>
<glyph name="iiMatra-tamil.alt02" format="2">
  <note>
uni0BC0
</note>
  <outline>
    <contour>
      <point x="-299" y="505" type="curve"/>
      <point x="-282" y="542" type="line"/>
      <point x="-335" y="571"/>
      <point x="-363" y="622"/>
      <point x="-363" y="689" type="curve" smooth="yes"/>
      <point x="-363" y="768"/>
      <point x="-333" y="828"/>
      <point x="-252" y="828" type="curve" smooth="yes"/>
      <point x="-197" y="828"/>
      <point x="-164" y="792"/>
      <point x="-164" y="730" type="curve" smooth="yes"/>
      <point x="-164" y="683"/>
      <point x="-186" y="656"/>
      <point x="-218" y="656" type="curve" smooth="yes"/>
      <point x="-256" y="656"/>
      <point x="-274" y="694"/>
      <point x="-274" y="745" type="curve" smooth="yes"/>
      <point x="-274" y="777"/>
      <point x="-267" y="815"/>
      <point x="-253" y="851" type="curve"/>
      <point x="-295" y="855" type="line"/>
      <point x="-312" y="815"/>
      <point x="-321" y="775"/>
      <point x="-321" y="739" type="curve" smooth="yes"/>
      <point x="-321" y="662"/>
      <point x="-281" y="602"/>
      <point x="-208" y="602" type="curve" smooth="yes"/>
      <point x="-134" y="602"/>
      <point x="-89" y="661"/>
      <point x="-89" y="728" type="curve" smooth="yes"/>
      <point x="-89" y="824"/>
      <point x="-149" y="882"/>
      <point x="-247" y="882" type="curve" smooth="yes"/>
      <point x="-354" y="882"/>
      <point x="-417" y="801"/>
      <point x="-417" y="690" type="curve" smooth="yes"/>
      <point x="-417" y="601"/>
      <point x="-376" y="543"/>
    </contour>
  </outline>
</glyph>
<glyph name="kssa-tamil" format="2">
  <advance width="1388"/>
  <note>
g76
</note>
  <anchor x="696" y="0" name="bottom"/>
  <anchor x="638" y="0" name="nukta"/>
  <anchor x="724" y="554" name="top"/>
  <anchor x="710" y="554" name="vedic"/>
  <outline>
    <contour>
      <point x="598" y="-5" type="curve" smooth="yes"/>
      <point x="673" y="-5"/>
      <point x="729" y="49"/>
      <point x="729" y="141" type="curve" smooth="yes"/>
      <point x="729" y="252"/>
      <point x="651" y="317"/>
      <point x="537" y="317" type="curve" smooth="yes"/>
      <point x="394" y="317" type="line"/>
      <point x="394" y="500" type="line"/>
      <point x="514" y="500" type="line"/>
      <point x="514" y="554" type="line"/>
      <point x="147" y="554" type="line"/>
      <point x="147" y="286" type="line"/>
      <point x="202" y="286" type="line"/>
      <point x="202" y="500" type="line"/>
      <point x="304" y="500" type="line"/>
      <point x="304" y="317" type="line"/>
      <point x="184" y="317" type="line" smooth="yes"/>
      <point x="102" y="317"/>
      <point x="47" y="256"/>
      <point x="47" y="162" type="curve" smooth="yes"/>
      <point x="47" y="63"/>
      <point x="104" y="-4"/>
      <point x="212" y="-4" type="curve" smooth="yes"/>
      <point x="333" y="-4"/>
      <point x="394" y="67"/>
      <point x="394" y="200" type="curve" smooth="yes"/>
      <point x="394" y="263" type="line"/>
      <point x="532" y="263" type="line" smooth="yes"/>
      <point x="600" y="263"/>
      <point x="641" y="217"/>
      <point x="641" y="134" type="curve" smooth="yes"/>
      <point x="641" y="87"/>
      <point x="625" y="49"/>
      <point x="585" y="49" type="curve" smooth="yes"/>
      <point x="543" y="49"/>
      <point x="516" y="104"/>
      <point x="516" y="168" type="curve" smooth="yes"/>
      <point x="516" y="286"/>
      <point x="566" y="370"/>
      <point x="665" y="370" type="curve" smooth="yes"/>
      <point x="759" y="370"/>
      <point x="813" y="300"/>
      <point x="813" y="184" type="curve" smooth="yes"/>
      <point x="813" y="128"/>
      <point x="797" y="81"/>
      <point x="771" y="40" type="curve"/>
      <point x="785" y="0" type="line"/>
      <point x="1339" y="0" type="line"/>
      <point x="1339" y="320" type="line"/>
      <point x="1249" y="269" type="line"/>
      <point x="1249" y="54" type="line"/>
      <point x="815" y="54" type="line"/>
      <point x="822" y="30" type="line"/>
      <point x="865" y="70"/>
      <point x="901" y="125"/>
      <point x="901" y="200" type="curve" smooth="yes"/>
      <point x="901" y="341"/>
      <point x="812" y="423"/>
      <point x="680" y="423" type="curve" smooth="yes"/>
      <point x="552" y="423"/>
      <point x="464" y="322"/>
      <point x="464" y="174" type="curve" smooth="yes"/>
      <point x="464" y="74"/>
      <point x="504" y="-5"/>
    </contour>
    <contour>
      <point x="203" y="49" type="curve" smooth="yes"/>
      <point x="140" y="49"/>
      <point x="105" y="88"/>
      <point x="105" y="160" type="curve" smooth="yes"/>
      <point x="105" y="223"/>
      <point x="130" y="263"/>
      <point x="191" y="263" type="curve" smooth="yes"/>
      <point x="304" y="263" type="line"/>
      <point x="304" y="189" type="line" smooth="yes"/>
      <point x="304" y="86"/>
      <point x="258" y="49"/>
    </contour>
    <contour>
      <point x="1067" y="-254" type="line"/>
      <point x="1157" y="-254" type="line"/>
      <point x="1157" y="436" type="line" smooth="yes"/>
      <point x="1157" y="516"/>
      <point x="1113" y="559"/>
      <point x="1047" y="559" type="curve" smooth="yes"/>
      <point x="974" y="559"/>
      <point x="928" y="503"/>
      <point x="928" y="415" type="curve" smooth="yes"/>
      <point x="928" y="282"/>
      <point x="999" y="220"/>
      <point x="1104" y="220" type="curve" smooth="yes"/>
      <point x="1191" y="220"/>
      <point x="1261" y="250"/>
      <point x="1339" y="314" type="curve"/>
      <point x="1339" y="326" type="line"/>
      <point x="1311" y="354" type="line"/>
      <point x="1248" y="301"/>
      <point x="1181" y="272"/>
      <point x="1110" y="272" type="curve" smooth="yes"/>
      <point x="1026" y="272"/>
      <point x="979" y="307"/>
      <point x="979" y="414" type="curve" smooth="yes"/>
      <point x="979" y="466"/>
      <point x="994" y="499"/>
      <point x="1026" y="499" type="curve" smooth="yes"/>
      <point x="1051" y="499"/>
      <point x="1067" y="481"/>
      <point x="1067" y="445" type="curve" smooth="yes"/>
    </contour>
  </outline>
</glyph>
<glyph name="ku-tamil" format="2">
  <advance width="818"/>
  <note>
g101
</note>
  <anchor x="433" y="0" name="bottom"/>
  <anchor x="428" y="-254" name="nukta"/>
  <anchor x="509" y="554" name="top"/>
  <anchor x="510" y="554" name="vedic"/>
  <outline>
    <contour>
      <point x="428" y="-254" type="curve" smooth="yes"/>
      <point x="638" y="-254"/>
      <point x="775" y="-128"/>
      <point x="775" y="63" type="curve" smooth="yes"/>
      <point x="775" y="239"/>
      <point x="688" y="317"/>
      <point x="547" y="317" type="curve" smooth="yes"/>
      <point x="351" y="317" type="line" smooth="yes"/>
      <point x="267" y="317"/>
      <point x="214" y="256"/>
      <point x="214" y="162" type="curve" smooth="yes"/>
      <point x="214" y="51"/>
      <point x="281" y="-4"/>
      <point x="377" y="-4" type="curve" smooth="yes"/>
      <point x="497" y="-4"/>
      <point x="560" y="66"/>
      <point x="560" y="196" type="curve" smooth="yes"/>
      <point x="560" y="500" type="line"/>
      <point x="678" y="500" type="line"/>
      <point x="678" y="554" type="line"/>
      <point x="315" y="554" type="line"/>
      <point x="315" y="291" type="line"/>
      <point x="369" y="291" type="line"/>
      <point x="369" y="500" type="line"/>
      <point x="471" y="500" type="line"/>
      <point x="471" y="189" type="line" smooth="yes"/>
      <point x="471" y="92"/>
      <point x="430" y="49"/>
      <point x="368" y="49" type="curve" smooth="yes"/>
      <point x="308" y="49"/>
      <point x="272" y="86"/>
      <point x="272" y="160" type="curve" smooth="yes"/>
      <point x="272" y="223"/>
      <point x="297" y="263"/>
      <point x="358" y="263" type="curve" smooth="yes"/>
      <point x="536" y="263" type="line" smooth="yes"/>
      <point x="629" y="263"/>
      <point x="685" y="207"/>
      <point x="685" y="69" type="curve" smooth="yes"/>
      <point x="685" y="-101"/>
      <point x="582" y="-200"/>
      <point x="422" y="-200" type="curve" smooth="yes"/>
      <point x="250" y="-200"/>
      <point x="101" y="-76"/>
      <point x="101" y="150" type="curve" smooth="yes"/>
      <point x="101" y="263"/>
      <point x="138" y="351"/>
      <point x="210" y="469" type="curve"/>
      <point x="167" y="498" type="line"/>
      <point x="87" y="376"/>
      <point x="49" y="263"/>
      <point x="49" y="150" type="curve" smooth="yes"/>
      <point x="49" y="-75"/>
      <point x="199" y="-254"/>
    </contour>
  </outline>
</glyph>
<glyph name="kuu-tamil" format="2">
  <advance width="1002"/>
  <note>
g102
</note>
  <anchor x="503" y="0" name="bottom"/>
  <anchor x="503" y="0" name="nukta"/>
  <anchor x="352" y="554" name="top"/>
  <anchor x="519" y="554" name="vedic"/>
  <outline>
    <contour>
      <point x="598" y="-5" type="curve" smooth="yes"/>
      <point x="673" y="-5"/>
      <point x="729" y="49"/>
      <point x="729" y="141" type="curve" smooth="yes"/>
      <point x="729" y="252"/>
      <point x="651" y="317"/>
      <point x="537" y="317" type="curve" smooth="yes"/>
      <point x="394" y="317" type="line"/>
      <point x="394" y="500" type="line"/>
      <point x="514" y="500" type="line"/>
      <point x="514" y="554" type="line"/>
      <point x="147" y="554" type="line"/>
      <point x="147" y="286" type="line"/>
      <point x="202" y="286" type="line"/>
      <point x="202" y="500" type="line"/>
      <point x="304" y="500" type="line"/>
      <point x="304" y="317" type="line"/>
      <point x="184" y="317" type="line" smooth="yes"/>
      <point x="102" y="317"/>
      <point x="47" y="256"/>
      <point x="47" y="162" type="curve" smooth="yes"/>
      <point x="47" y="63"/>
      <point x="104" y="-4"/>
      <point x="212" y="-4" type="curve" smooth="yes"/>
      <point x="333" y="-4"/>
      <point x="394" y="67"/>
      <point x="394" y="200" type="curve" smooth="yes"/>
      <point x="394" y="263" type="line"/>
      <point x="532" y="263" type="line" smooth="yes"/>
      <point x="600" y="263"/>
      <point x="641" y="217"/>
      <point x="641" y="134" type="curve" smooth="yes"/>
      <point x="641" y="87"/>
      <point x="625" y="49"/>
      <point x="585" y="49" type="curve" smooth="yes"/>
      <point x="543" y="49"/>
      <point x="516" y="104"/>
      <point x="516" y="168" type="curve" smooth="yes"/>
      <point x="516" y="286"/>
      <point x="566" y="370"/>
      <point x="665" y="370" type="curve" smooth="yes"/>
      <point x="759" y="370"/>
      <point x="813" y="300"/>
      <point x="813" y="184" type="curve" smooth="yes"/>
      <point x="813" y="128"/>
      <point x="797" y="81"/>
      <point x="771" y="40" type="curve"/>
      <point x="785" y="0" type="line"/>
      <point x="985" y="0" type="line"/>
      <point x="985" y="54" type="line"/>
      <point x="815" y="54" type="line"/>
      <point x="822" y="30" type="line"/>
      <point x="865" y="70"/>
      <point x="901" y="125"/>
      <point x="901" y="200" type="curve" smooth="yes"/>
      <point x="901" y="341"/>
      <point x="812" y="423"/>
      <point x="680" y="423" type="curve" smooth="yes"/>
      <point x="552" y="423"/>
      <point x="464" y="322"/>
      <point x="464" y="174" type="curve" smooth="yes"/>
      <point x="464" y="74"/>
      <point x="504" y="-5"/>
    </contour>
    <contour>
      <point x="203" y="49" type="curve" smooth="yes"/>
      <point x="140" y="49"/>
      <point x="105" y="88"/>
      <point x="105" y="160" type="curve" smooth="yes"/>
      <point x="105" y="223"/>
      <point x="130" y="263"/>
      <point x="191" y="263" type="curve" smooth="yes"/>
      <point x="304" y="263" type="line"/>
      <point x="304" y="189" type="line" smooth="yes"/>
      <point x="304" y="86"/>
      <point x="258" y="49"/>
    </contour>
  </outline>
</glyph>
